<svg width="24" height="24" viewBox="0 0 24 24" fill="none" xmlns="http://www.w3.org/2000/svg">
<path d="M6.615 21C6.171 21 5.791 20.8417 5.475 20.525C5.15833 20.209 5 19.829 5 19.385V10.615C5 10.171 5.15833 9.791 5.475 9.475C5.791 9.15833 6.171 9 6.615 9H8V7C8 5.886 8.388 4.94067 9.164 4.164C9.94 3.38733 10.8853 2.99933 12 3C13.114 3 14.0593 3.388 14.836 4.164C15.6127 4.94 16.0007 5.88533 16 7V9H17.385C17.829 9 18.209 9.15833 18.525 9.475C18.8417 9.791 19 10.171 19 10.615V19.385C19 19.829 18.8417 20.209 18.525 20.525C18.209 20.8417 17.829 21 17.385 21H6.615ZM12 16.5C12.422 16.5 12.7773 16.3553 13.066 16.066C13.3553 15.7773 13.5 15.422 13.5 15C13.5 14.578 13.3553 14.2227 13.066 13.934C12.7773 13.6447 12.422 13.5 12 13.5C11.578 13.5 11.2227 13.6447 10.934 13.934C10.6447 14.2227 10.5 14.578 10.5 15C10.5 15.422 10.6447 15.7773 10.934 16.066C11.2227 16.3553 11.578 16.5 12 16.5ZM9 9H15V7C15 6.16667 14.7083 5.45833 14.125 4.875C13.5417 4.29167 12.8333 4 12 4C11.1667 4 10.4583 4.29167 9.875 4.875C9.29167 5.45833 9 6.16667 9 7V9Z" fill="url(#paint0_linear_433_433)"/>
<defs>
<linearGradient id="paint0_linear_433_433" x1="3.89254" y1="12" x2="19" y2="12" gradientUnits="userSpaceOnUse">
<stop stop-color="#5BB9CA"/>
<stop offset="1" stop-color="#1D7483"/>
</linearGradient>
</defs>
</svg>
