<svg width="100" height="100" viewBox="0 0 100 100" fill="none" xmlns="http://www.w3.org/2000/svg">
<path d="M66.6667 66.6667H91.6667M79.1667 54.1667V79.1667M87.5 41.6667V33.3334C87.4983 31.8721 87.1129 30.4368 86.3812 29.1716C85.65 27.9064 84.5987 26.8558 83.3333 26.1251L54.1667 9.45842C52.9 8.72704 51.4629 8.342 50 8.342C48.5371 8.342 47.1 8.72704 45.8333 9.45842L16.6667 26.1251C15.4011 26.8558 14.3499 27.9064 13.6186 29.1716C12.8873 30.4368 12.5015 31.8721 12.5 33.3334V66.6667C12.5015 68.1283 12.8873 69.5633 13.6186 70.8287C14.3499 72.0937 15.4011 73.1446 16.6667 73.875L45.8333 90.5417C47.1 91.2733 48.5371 91.6583 50 91.6583C51.4629 91.6583 52.9 91.2733 54.1667 90.5417L62.5 85.7917M68.75 39.1668L31.4583 17.6668M13.7083 29.1668L50 50M50 50L86.2917 29.1668M50 50V91.6667" stroke="url(#paint0_linear_12_3153)" stroke-width="3" stroke-linecap="round" stroke-linejoin="round"/>
<defs>
<linearGradient id="paint0_linear_12_3153" x1="6.23756" y1="50.0043" x2="91.6667" y2="50.0043" gradientUnits="userSpaceOnUse">
<stop stop-color="#5BB9CA"/>
<stop offset="1" stop-color="#1D7483"/>
</linearGradient>
</defs>
</svg>
