<svg width="36" height="36" viewBox="0 0 36 36" fill="currentColor" xmlns="http://www.w3.org/2000/svg">
<circle cx="18" cy="18" r="18" fill="currentColor"/>
<path d="M15.8737 22L14.3757 19.83L13.1157 22H10.5257L13.1017 18.01L10.4557 14.188H13.1437L14.6417 16.344L15.9017 14.188H18.4917L15.8737 18.122L18.5617 22H15.8737ZM19.1622 20.082C19.4795 19.83 19.6242 19.7133 19.5962 19.732C20.5109 18.976 21.2295 18.3553 21.7522 17.87C22.2842 17.3847 22.7322 16.876 23.0962 16.344C23.4602 15.812 23.6422 15.294 23.6422 14.79C23.6422 14.4073 23.5535 14.1087 23.3762 13.894C23.1989 13.6793 22.9329 13.572 22.5782 13.572C22.2235 13.572 21.9435 13.7073 21.7382 13.978C21.5422 14.2393 21.4442 14.6127 21.4442 15.098H19.1342C19.1529 14.3047 19.3209 13.642 19.6382 13.11C19.9649 12.578 20.3895 12.186 20.9122 11.934C21.4442 11.682 22.0322 11.556 22.6762 11.556C23.7869 11.556 24.6222 11.8407 25.1822 12.41C25.7515 12.9793 26.0362 13.7213 26.0362 14.636C26.0362 15.6347 25.6955 16.5633 25.0142 17.422C24.3329 18.2713 23.4649 19.102 22.4102 19.914H26.1902V21.86H19.1622V20.082Z" fill="white"/>
</svg>
