<svg width="683" height="683" viewBox="0 0 683 683" fill="none" xmlns="http://www.w3.org/2000/svg">
<path d="M327.067 2.00005C308.267 7.06671 293.2 21.2 287.333 39.4667L285.2 46.1334L276.133 47.7334C253.733 51.6 217.6 67.3334 181.467 89.2001C157.6 103.733 155.067 104.8 144.667 106C127.733 107.867 109.333 101.467 98.6668 89.8667C95.2001 85.8667 91.8668 80.9334 91.3334 78.8C90.2668 74.1334 86.2668 69.6 82.0001 68.5334C77.6001 67.4667 71.7334 70.5334 69.4668 75.2C67.8668 78.5334 68.0001 80 69.8668 86.0001C75.3334 103.333 93.6001 119.333 114.667 125.467C118 126.4 121.067 127.467 121.733 128C122.267 128.533 101.2 181.6 74.8001 246.133L26.8001 363.333L16.6668 364C7.33343 364.667 6.13343 365.067 3.06677 368.667C-0.133232 372.4 -0.266566 373.067 0.400101 384C4.0001 434.4 37.4668 477.733 85.6001 494.133C100.8 499.2 111.867 500.267 142.667 499.6C167.2 499.2 172.8 498.667 181.2 496.133C233.2 480.8 268.4 437.467 272.8 383.467C273.6 373.067 273.467 372.267 270.267 368.533C267.2 365.067 266 364.667 256.533 364L246.267 363.333L198.533 246.667C172.267 182.533 150.667 129.6 150.667 129.2C150.667 128.8 153.867 127.733 157.733 126.8C165.333 125.067 173.333 120.933 195.333 107.467C224.667 89.3334 262.667 72.6667 280.4 70C286 69.2 286.667 69.3334 286.667 71.4667C286.667 76.4 293.333 88.1334 300 95.2001L306.667 102.267V358.4V614.667H287.467H268.267L264.667 618.8L261.2 623.067L261.6 649.6L262 676.267L265.733 679.467L269.467 682.667H341.333H413.2L416.933 679.467L420.667 676.267L421.067 649.6L421.467 623.067L418 618.8L414.4 614.667H395.2H376V358.4V102.267L382.667 95.2001C389.333 88.1334 396 76.4 396 71.4667C396 69.3334 396.667 69.2 402.267 70C420.267 72.6667 461.067 90.9334 490.667 109.467C508.8 120.8 519.733 126.133 526.8 127.333C529.6 127.867 532 128.667 532 129.067C532 129.6 510.4 182.533 484.133 246.667L436.4 363.333L426.133 364C416.667 364.667 415.467 365.067 412.4 368.533C409.2 372.267 409.067 373.067 409.867 383.467C414.267 437.2 449.733 480.933 501.333 496.133C509.867 498.667 515.6 499.2 540 499.6C570.8 500.267 581.867 499.2 597.067 494.133C616 487.6 632 477.6 646 463.467C667.467 441.733 680 414.133 682.267 384C682.933 373.067 682.8 372.4 679.6 368.667C676.533 365.067 675.333 364.667 666 364L655.867 363.333L607.867 246.133C581.467 181.6 560.4 128.533 560.933 128C561.6 127.467 564.667 126.4 568 125.467C588.933 119.467 607.467 103.2 612.8 86.1334C614.667 80 614.8 78.5334 613.2 75.2C610.933 70.5334 605.067 67.4667 600.667 68.5334C596.4 69.6 592.4 74.1334 591.333 78.8C590.8 80.9334 587.467 85.8667 584 89.8667C573.2 101.467 555.067 107.867 537.6 106C528.133 104.933 521.067 101.733 498 87.4667C466.4 67.8667 428.533 51.4667 406.4 47.7334L397.467 46.1334L395.333 39.4667C386.133 10.9334 355.733 -5.59995 327.067 2.00005ZM352.267 24.8C366.267 29.4667 374.667 41.6 374.667 56.6667C374.667 67.0667 372.667 72.5334 366 79.7334C350.267 97.3334 319.067 92.0001 310.133 70.4C307.067 63.0667 307.333 49.3334 310.8 42C318 26.8 336.133 19.2 352.267 24.8ZM353.067 363.733L352.667 614H341.333H330L329.6 363.733L329.333 113.467H341.333H353.333L353.067 363.733ZM179.2 259.6C202.4 316.267 221.333 362.8 221.333 363.2C221.333 363.6 183.2 364 136.667 364C90.1334 364 52.0001 363.467 52.0001 362.933C52.0001 362.133 105.067 231.733 135.6 157.6C136 156.667 136.533 156 136.667 156.267C136.933 156.533 156.133 202.933 179.2 259.6ZM589.333 260.667C612 316.267 630.667 362.267 630.667 362.8C630.667 363.467 592.533 364 545.867 364C465.6 364 461.067 363.867 461.867 361.6C462.4 360.4 481.467 313.6 504.267 257.6C530.533 193.6 546.267 156.533 546.933 157.733C547.467 158.8 566.533 205.067 589.333 260.667ZM249.333 388.933C249.2 394.933 244.8 409.6 240 419.6C227.733 444.8 207.333 462.8 180.4 472.4C168.933 476.533 168 476.667 140.667 477.067C118.533 477.467 110.8 477.067 103.6 475.467C68.9334 467.333 41.0668 443.2 29.2001 410.667C27.2001 404.933 25.0668 397.2 24.5334 393.467L23.6001 386.667H136.533C243.067 386.667 249.333 386.8 249.333 388.933ZM658.133 393.2C655.333 414 640.667 439.467 622.933 454C612 463.067 595.733 471.333 581.6 474.8C571.733 477.2 567.333 477.467 542.267 477.067C514.667 476.667 513.733 476.533 502.267 472.4C475.2 462.8 454.267 444.133 442.533 419.2C437.867 409.333 433.467 394.667 433.333 388.933C433.333 386.8 439.6 386.667 546.133 386.667H659.067L658.133 393.2ZM398.667 648.667V660H341.333H284V648.667V637.333H341.333H398.667V648.667Z" fill="url(#paint0_linear_167_400)"/>
<defs>
<linearGradient id="paint0_linear_167_400" x1="-53.9127" y1="341.411" x2="682.59" y2="341.411" gradientUnits="userSpaceOnUse">
<stop stop-color="#5BB9CA"/>
<stop offset="1" stop-color="#1D7483"/>
</linearGradient>
</defs>
</svg>
