<svg width="15" height="6" viewBox="0 0 15 6" fill="currentColor" xmlns="http://www.w3.org/2000/svg">
<path d="M12.8545 1.90735e-06C13.7904 1.90735e-06 14.4407 0.266523 14.8053 0.799567C15.17 1.33261 15.0223 1.80522 14.3623 2.21739L8.95493 5.6087C8.74696 5.73913 8.52165 5.83696 8.27901 5.90217C8.03637 5.96739 7.77639 6 7.49909 6C7.22179 6 6.96182 5.96739 6.71918 5.90217C6.47654 5.83696 6.25123 5.73913 6.04325 5.6087L0.635838 2.21739C-0.0227575 1.80435 -0.169728 1.33131 0.194925 0.798263C0.55958 0.26522 1.20916 -0.000867367 2.14367 1.90735e-06L12.8545 1.90735e-06Z" fill="currentColor"/>
</svg>
