<svg width="914" height="596" viewBox="0 0 914 596" fill="none" xmlns="http://www.w3.org/2000/svg">
<g clip-path="url(#clip0_134_400)">
<path d="M744.417 594.437H729.658C727.802 594.435 726.023 593.696 724.71 592.384C723.398 591.072 722.66 589.293 722.658 587.437V464.423C722.66 462.567 723.398 460.788 724.71 459.476C726.023 458.163 727.802 457.425 729.658 457.423H744.417C746.273 457.425 748.052 458.163 749.364 459.476C750.677 460.788 751.415 462.567 751.417 464.423V587.437C751.415 589.293 750.677 591.072 749.364 592.384C748.052 593.696 746.273 594.435 744.417 594.437Z" fill="#0DBB7E"/>
<path d="M775.609 594.437H760.85C758.994 594.435 757.215 593.696 755.902 592.384C754.59 591.072 753.852 589.293 753.85 587.437V464.423C753.852 462.567 754.59 460.788 755.902 459.476C757.215 458.163 758.994 457.425 760.85 457.423H775.609C777.465 457.425 779.244 458.163 780.557 459.476C781.869 460.788 782.607 462.567 782.609 464.423V587.437C782.607 589.293 781.869 591.072 780.557 592.384C779.244 593.696 777.465 594.435 775.609 594.437Z" fill="#0DBB7E"/>
<path d="M780.614 503.341H723.614C721.36 503.338 719.2 502.442 717.606 500.849C716.013 499.255 715.116 497.095 715.114 494.841V478.841C715.116 476.588 716.013 474.427 717.606 472.833C719.2 471.24 721.36 470.344 723.614 470.341H780.614C782.867 470.344 785.028 471.24 786.621 472.833C788.215 474.427 789.111 476.588 789.114 478.841V494.841C789.111 497.095 788.215 499.255 786.621 500.849C785.028 502.442 782.867 503.338 780.614 503.341Z" fill="#084049"/>
<path d="M757.46 205.065C759.201 187.706 770.61 171.106 788.026 166.588C796.525 164.331 805.547 165.15 813.501 168.899C820.702 172.531 826.362 178.622 829.457 186.069C832.511 193.436 833.68 201.448 832.859 209.381C831.929 218.05 829.162 226.421 824.742 233.937C820.017 242.265 813.874 249.711 807.427 256.752C800.857 263.925 793.424 270.525 787.896 278.578C782.993 285.721 779.051 295.421 783.883 303.642C785.776 306.656 788.498 309.06 791.723 310.567C794.948 312.073 798.539 312.618 802.066 312.135C803.796 311.873 805.469 311.318 807.012 310.493C808.715 309.584 810.232 312.173 808.526 313.084C802.056 316.538 794.012 315.755 787.899 311.871C780.854 307.394 777.709 299.492 779.029 291.323C780.535 282.01 787.029 274.013 793.264 267.31C799.778 260.307 806.6 253.621 812.633 246.181C818.592 238.833 823.913 230.722 827.102 221.764C829.782 214.278 830.675 206.269 829.713 198.376C828.762 190.839 825.831 183.371 820.573 177.794C817.666 174.799 814.186 172.419 810.341 170.796C806.495 169.173 802.362 168.341 798.188 168.348C789.525 168.238 781.126 171.326 774.598 177.022C768.161 182.779 763.619 190.351 761.57 198.741C761.046 200.819 760.675 202.932 760.46 205.065C760.269 206.967 757.267 206.987 757.46 205.065Z" fill="#084049"/>
<path d="M767.005 204.376L752.761 199.673C752.075 199.447 751.44 199.088 750.893 198.616C750.346 198.144 749.897 197.57 749.572 196.924C749.247 196.279 749.052 195.576 748.999 194.856C748.946 194.135 749.035 193.412 749.261 192.726C749.488 192.04 749.847 191.405 750.319 190.858C750.791 190.311 751.366 189.862 752.011 189.537C752.656 189.213 753.359 189.018 754.08 188.965C754.8 188.912 755.524 189.002 756.21 189.229L770.454 193.932C771.14 194.157 771.776 194.516 772.324 194.988C772.872 195.459 773.321 196.034 773.647 196.679C773.972 197.325 774.168 198.028 774.221 198.749C774.275 199.47 774.185 200.194 773.959 200.881C773.732 201.567 773.372 202.202 772.9 202.749C772.428 203.296 771.852 203.745 771.207 204.07C770.561 204.395 769.857 204.589 769.136 204.641C768.415 204.694 767.691 204.604 767.005 204.376Z" fill="#084049"/>
<path d="M913.307 593.272H589.274V595.513H913.307V593.272Z" fill="#084049"/>
<path d="M484.976 390.041C476.321 390.04 467.694 389.058 459.259 387.115C454.922 386.11 450.647 384.85 446.458 383.341L446.283 383.282C440.9 381.33 435.673 378.976 430.645 376.239C429.353 375.544 428.047 374.799 426.768 374.028C425.887 373.507 425.02 372.973 424.152 372.428C407.397 361.842 393.691 347.07 384.386 329.571C375.081 312.072 370.499 292.449 371.092 272.638C371.684 252.828 377.431 233.514 387.765 216.602C398.099 199.69 412.664 185.765 430.022 176.199C447.38 166.633 466.932 161.758 486.749 162.053C506.566 162.349 525.964 167.806 543.028 177.886C560.093 187.965 574.235 202.32 584.06 219.532C593.885 236.745 599.053 256.222 599.054 276.041V276.04C599.001 295.599 593.942 314.82 584.358 331.87C574.774 348.92 560.985 363.233 544.303 373.446C542.345 374.64 540.326 375.784 538.131 376.945C535.147 378.525 532.098 379.962 529.059 381.224L528.496 381.465C527.444 381.9 526.393 382.315 525.332 382.708C524.849 382.896 524.341 383.088 523.833 383.272C511.408 387.757 498.298 390.048 485.088 390.041H484.976ZM446.807 381.344L446.974 381.401C451.14 382.909 455.393 384.167 459.709 385.166C467.996 387.076 476.473 388.04 484.977 388.041C485.013 388.041 485.05 388.043 485.087 388.041C498.066 388.048 510.947 385.797 523.155 381.391C523.646 381.213 524.139 381.027 524.622 380.838C525.463 380.526 526.29 380.204 527.114 379.87V379.869L527.736 379.606C530.901 378.314 534.083 376.824 537.196 375.177C539.354 374.035 541.339 372.91 543.263 371.738C559.652 361.704 573.199 347.643 582.615 330.892C592.031 314.141 597.002 295.258 597.054 276.042C597.053 256.571 591.976 237.435 582.323 220.524C572.671 203.613 558.777 189.511 542.012 179.608C525.247 169.705 506.189 164.344 486.72 164.053C467.251 163.762 448.042 168.552 430.988 177.95C413.935 187.348 399.626 201.029 389.473 217.644C379.32 234.258 373.673 253.233 373.091 272.696C372.508 292.159 377.009 311.437 386.151 328.63C395.292 345.822 408.757 360.335 425.218 370.736C426.068 371.27 426.92 371.794 427.793 372.311C429.052 373.07 430.329 373.798 431.597 374.48C436.489 377.143 441.573 379.438 446.807 381.344Z" fill="#075765"/>
<mask id="path-8-inside-1_134_400" fill="white">
<path d="M278.976 228.041C270.321 228.04 261.693 227.059 253.259 225.116C248.922 224.11 244.647 222.85 240.458 221.341L240.283 221.282C234.9 219.33 229.673 216.976 224.645 214.239C223.353 213.544 222.047 212.799 220.767 212.028C219.887 211.507 219.019 210.973 218.152 210.428C201.397 199.842 187.691 185.07 178.386 167.571C169.081 150.072 164.499 130.449 165.092 110.638C165.684 90.8279 171.431 71.5142 181.765 54.6023C192.099 37.6904 206.664 23.7647 224.022 14.1988C241.38 4.63301 260.932 -0.242466 280.749 0.0533521C300.566 0.34917 319.964 5.80607 337.028 15.8857C354.093 25.9654 368.235 40.3196 378.06 57.5324C387.885 74.7453 393.053 94.222 393.054 114.041V114.04C393.001 133.599 387.942 152.82 378.358 169.87C368.774 186.92 354.985 201.233 338.303 211.446C336.345 212.64 334.326 213.784 332.131 214.945C329.147 216.525 326.098 217.962 323.059 219.224L322.495 219.465C321.444 219.9 320.393 220.315 319.332 220.708C318.849 220.896 318.341 221.088 317.833 221.272C305.408 225.757 292.298 228.048 279.088 228.041C279.051 228.04 279.014 228.041 278.976 228.041ZM240.807 219.344L240.974 219.401C245.14 220.909 249.393 222.167 253.709 223.166C261.996 225.076 270.473 226.04 278.977 226.041C279.014 226.041 279.05 226.042 279.087 226.041C292.066 226.048 304.947 223.797 317.155 219.391C317.646 219.213 318.139 219.027 318.621 218.838C319.463 218.526 320.29 218.204 321.114 217.87V217.869L321.736 217.606C324.901 216.314 328.083 214.824 331.196 213.177C333.354 212.035 335.339 210.91 337.263 209.738C353.652 199.704 367.199 185.643 376.615 168.892C386.031 152.141 391.001 133.258 391.054 114.042C391.053 94.5707 385.976 75.4348 376.323 58.5241C366.671 41.6133 352.777 27.511 336.012 17.6081C319.247 7.70519 300.189 2.34393 280.72 2.05312C261.251 1.76232 242.042 6.55203 224.988 15.9498C207.935 25.3475 193.626 39.0286 183.473 55.6436C173.32 72.2585 167.673 91.2332 167.091 110.696C166.508 130.159 171.009 149.437 180.151 166.63C189.292 183.822 202.757 198.335 219.218 208.736C220.068 209.27 220.92 209.794 221.793 210.311C223.052 211.07 224.329 211.798 225.597 212.48C230.489 215.143 235.573 217.438 240.807 219.344Z"/>
</mask>
<path d="M278.976 228.041C270.321 228.04 261.693 227.059 253.259 225.116C248.922 224.11 244.647 222.85 240.458 221.341L240.283 221.282C234.9 219.33 229.673 216.976 224.645 214.239C223.353 213.544 222.047 212.799 220.767 212.028C219.887 211.507 219.019 210.973 218.152 210.428C201.397 199.842 187.691 185.07 178.386 167.571C169.081 150.072 164.499 130.449 165.092 110.638C165.684 90.8279 171.431 71.5142 181.765 54.6023C192.099 37.6904 206.664 23.7647 224.022 14.1988C241.38 4.63301 260.932 -0.242466 280.749 0.0533521C300.566 0.34917 319.964 5.80607 337.028 15.8857C354.093 25.9654 368.235 40.3196 378.06 57.5324C387.885 74.7453 393.053 94.222 393.054 114.041V114.04C393.001 133.599 387.942 152.82 378.358 169.87C368.774 186.92 354.985 201.233 338.303 211.446C336.345 212.64 334.326 213.784 332.131 214.945C329.147 216.525 326.098 217.962 323.059 219.224L322.495 219.465C321.444 219.9 320.393 220.315 319.332 220.708C318.849 220.896 318.341 221.088 317.833 221.272C305.408 225.757 292.298 228.048 279.088 228.041C279.051 228.04 279.014 228.041 278.976 228.041ZM240.807 219.344L240.974 219.401C245.14 220.909 249.393 222.167 253.709 223.166C261.996 225.076 270.473 226.04 278.977 226.041C279.014 226.041 279.05 226.042 279.087 226.041C292.066 226.048 304.947 223.797 317.155 219.391C317.646 219.213 318.139 219.027 318.621 218.838C319.463 218.526 320.29 218.204 321.114 217.87V217.869L321.736 217.606C324.901 216.314 328.083 214.824 331.196 213.177C333.354 212.035 335.339 210.91 337.263 209.738C353.652 199.704 367.199 185.643 376.615 168.892C386.031 152.141 391.001 133.258 391.054 114.042C391.053 94.5707 385.976 75.4348 376.323 58.5241C366.671 41.6133 352.777 27.511 336.012 17.6081C319.247 7.70519 300.189 2.34393 280.72 2.05312C261.251 1.76232 242.042 6.55203 224.988 15.9498C207.935 25.3475 193.626 39.0286 183.473 55.6436C173.32 72.2585 167.673 91.2332 167.091 110.696C166.508 130.159 171.009 149.437 180.151 166.63C189.292 183.822 202.757 198.335 219.218 208.736C220.068 209.27 220.92 209.794 221.793 210.311C223.052 211.07 224.329 211.798 225.597 212.48C230.489 215.143 235.573 217.438 240.807 219.344Z" fill="#075765"/>
<path d="M278.976 228.041L278.976 231.041H278.976V228.041ZM253.259 225.116L252.582 228.038L252.586 228.039L253.259 225.116ZM240.458 221.341L241.475 218.519L241.448 218.509L241.421 218.5L240.458 221.341ZM240.283 221.282L239.26 224.102L239.29 224.113L239.32 224.123L240.283 221.282ZM224.645 214.239L226.079 211.604L226.072 211.6L226.065 211.596L224.645 214.239ZM220.767 212.028L222.317 209.459L222.306 209.452L222.294 209.445L220.767 212.028ZM218.152 210.428L216.549 212.964L216.556 212.969L218.152 210.428ZM393.054 114.041L390.054 114.041L396.054 114.041H393.054ZM393.054 114.04H396.054L390.054 114.032L393.054 114.04ZM338.303 211.446L339.865 214.007L339.869 214.004L338.303 211.446ZM332.131 214.945L330.729 212.292L330.727 212.293L332.131 214.945ZM323.059 219.224L321.909 216.453L321.893 216.459L321.878 216.466L323.059 219.224ZM322.495 219.465L323.642 222.238L323.659 222.23L323.676 222.223L322.495 219.465ZM319.332 220.708L318.289 217.895L318.268 217.903L318.247 217.911L319.332 220.708ZM317.833 221.272L318.852 224.093L318.854 224.093L317.833 221.272ZM279.088 228.041L279.011 231.04L279.049 231.041L279.086 231.041L279.088 228.041ZM240.807 219.344L239.78 222.163L239.812 222.174L239.843 222.185L240.807 219.344ZM240.974 219.401L241.995 216.58L241.967 216.569L241.938 216.56L240.974 219.401ZM253.709 223.166L253.032 226.089L253.036 226.09L253.709 223.166ZM278.977 226.041L278.977 229.041H278.977L278.977 226.041ZM279.087 226.041L279.088 223.041L279.047 223.041L279.006 223.042L279.087 226.041ZM317.155 219.391L318.173 222.213L318.174 222.212L317.155 219.391ZM318.621 218.838L317.577 216.026L317.554 216.034L317.531 216.043L318.621 218.838ZM321.114 217.87L322.241 220.651L324.114 219.891V217.87H321.114ZM321.114 217.869L319.943 215.107L318.114 215.883V217.869H321.114ZM321.736 217.606L320.602 214.828L320.583 214.836L320.565 214.844L321.736 217.606ZM331.196 213.177L329.793 210.525L329.792 210.526L331.196 213.177ZM337.263 209.738L338.824 212.299L338.83 212.296L337.263 209.738ZM391.054 114.042L394.054 114.05L394.054 114.042L391.054 114.042ZM219.218 208.736L217.615 211.272L217.622 211.276L219.218 208.736ZM221.793 210.311L223.342 207.741L223.331 207.735L223.321 207.729L221.793 210.311ZM225.597 212.48L227.032 209.845L227.025 209.841L227.017 209.837L225.597 212.48ZM278.976 225.041C270.548 225.04 262.146 224.084 253.933 222.192L252.586 228.039C261.241 230.033 270.094 231.04 278.976 231.041L278.976 225.041ZM253.936 222.193C249.714 221.214 245.553 219.988 241.475 218.519L239.442 224.164C243.742 225.713 248.129 227.006 252.582 228.038L253.936 222.193ZM241.421 218.5L241.245 218.44L239.32 224.123L239.496 224.182L241.421 218.5ZM241.305 218.461C236.065 216.561 230.975 214.269 226.079 211.604L223.21 216.873C228.371 219.683 233.736 222.099 239.26 224.102L241.305 218.461ZM226.065 211.596C224.818 210.926 223.555 210.205 222.317 209.459L219.218 214.597C220.539 215.393 221.888 216.163 223.225 216.881L226.065 211.596ZM222.294 209.445C221.444 208.943 220.601 208.423 219.747 207.887L216.556 212.969C217.438 213.523 218.33 214.072 219.241 214.61L222.294 209.445ZM219.754 207.892C203.44 197.584 190.095 183.201 181.035 166.163L175.737 168.979C185.287 186.939 199.353 202.099 216.549 212.964L219.754 207.892ZM181.035 166.163C171.975 149.124 167.513 130.017 168.09 110.728L162.093 110.549C161.485 130.88 166.187 151.02 175.737 168.979L181.035 166.163ZM168.09 110.728C168.667 91.4389 174.263 72.6334 184.325 56.1665L179.205 53.038C168.599 70.3949 162.701 90.2169 162.093 110.549L168.09 110.728ZM184.325 56.1665C194.387 39.6997 208.568 26.1404 225.47 16.8263L222.574 11.5714C204.759 21.389 189.811 35.6811 179.205 53.038L184.325 56.1665ZM225.47 16.8263C242.371 7.51217 261.408 2.76498 280.704 3.05302L280.793 -2.94631C260.455 -3.24992 240.388 1.75385 222.574 11.5714L225.47 16.8263ZM280.704 3.05302C300 3.34105 318.887 8.65436 335.503 18.4688L338.554 13.3027C321.04 2.95779 301.132 -2.64271 280.793 -2.94631L280.704 3.05302ZM335.503 18.4688C352.118 28.2832 365.888 42.2597 375.455 59.0196L380.666 56.0453C370.582 38.3796 356.068 23.6476 338.554 13.3027L335.503 18.4688ZM375.455 59.0196C385.021 75.7795 390.053 94.7436 390.054 114.041L396.054 114.041C396.053 93.7003 390.749 73.711 380.666 56.0453L375.455 59.0196ZM396.054 114.041V114.04H390.054V114.041H396.054ZM390.054 114.032C390.002 133.079 385.076 151.796 375.743 168.4L380.973 171.34C390.808 153.843 395.999 134.12 396.054 114.048L390.054 114.032ZM375.743 168.4C366.41 185.004 352.981 198.942 336.737 208.887L339.869 214.004C356.988 203.524 371.138 188.837 380.973 171.34L375.743 168.4ZM336.741 208.884C334.839 210.044 332.874 211.158 330.729 212.292L333.533 217.597C335.777 216.41 337.85 215.236 339.865 214.007L336.741 208.884ZM330.727 212.293C327.824 213.83 324.859 215.228 321.909 216.453L324.209 221.994C327.336 220.696 330.47 219.219 333.535 217.596L330.727 212.293ZM321.878 216.466L321.315 216.707L323.676 222.223L324.24 221.982L321.878 216.466ZM321.349 216.693C320.327 217.115 319.311 217.516 318.289 217.895L320.375 223.521C321.475 223.113 322.561 222.684 323.642 222.238L321.349 216.693ZM318.247 217.911C317.778 218.093 317.293 218.277 316.813 218.451L318.854 224.093C319.389 223.899 319.919 223.698 320.417 223.505L318.247 217.911ZM316.815 218.45C304.717 222.817 291.951 225.048 279.089 225.041L279.086 231.041C292.644 231.048 306.1 228.697 318.852 224.093L316.815 218.45ZM279.165 225.042C279.096 225.04 279.039 225.041 279.011 225.041C279 225.041 278.98 225.041 278.979 225.041C278.972 225.041 278.973 225.041 278.976 225.041V231.041C278.998 231.041 279.017 231.041 279.03 231.041C279.036 231.041 279.042 231.041 279.046 231.041C279.05 231.041 279.052 231.041 279.054 231.041C279.057 231.041 279.054 231.041 279.047 231.041C279.04 231.041 279.028 231.041 279.011 231.04L279.165 225.042ZM239.843 222.185L240.01 222.242L241.938 216.56L241.771 216.503L239.843 222.185ZM239.953 222.221C244.231 223.771 248.599 225.062 253.032 226.089L254.386 220.244C250.186 219.271 246.049 218.047 241.995 216.58L239.953 222.221ZM253.036 226.09C261.543 228.05 270.246 229.04 278.977 229.041L278.977 223.041C270.7 223.04 262.449 222.102 254.383 220.243L253.036 226.09ZM278.977 229.041C278.973 229.041 278.972 229.041 278.979 229.041C278.98 229.041 278.999 229.042 279.011 229.042C279.041 229.042 279.098 229.042 279.168 229.04L279.006 223.042C279.023 223.042 279.036 223.042 279.044 223.042C279.051 223.042 279.055 223.042 279.052 223.042C279.051 223.042 279.049 223.042 279.045 223.042C279.042 223.042 279.035 223.042 279.03 223.042C279.018 223.041 278.999 223.041 278.977 223.041V229.041ZM279.085 229.041C292.412 229.048 305.638 226.737 318.173 222.213L316.136 216.569C304.255 220.858 291.719 223.048 279.088 223.041L279.085 229.041ZM318.174 222.212C318.695 222.024 319.211 221.828 319.712 221.633L317.531 216.043C317.066 216.225 316.598 216.402 316.135 216.57L318.174 222.212ZM319.666 221.651C320.536 221.328 321.39 220.996 322.241 220.651L319.986 215.09C319.19 215.413 318.391 215.724 317.577 216.026L319.666 221.651ZM324.114 217.87V217.869H318.114V217.87H324.114ZM322.284 220.632L322.907 220.368L320.565 214.844L319.943 215.107L322.284 220.632ZM322.87 220.383C326.129 219.053 329.401 217.521 332.599 215.828L329.792 210.526C326.766 212.128 323.673 213.575 320.602 214.828L322.87 220.383ZM332.598 215.829C334.806 214.661 336.844 213.506 338.824 212.299L335.702 207.176C333.834 208.315 331.902 209.41 329.793 210.525L332.598 215.829ZM338.83 212.296C355.655 201.996 369.563 187.559 379.23 170.362L374 167.422C364.835 183.726 351.649 197.413 335.697 207.179L338.83 212.296ZM379.23 170.362C388.897 153.164 394 133.778 394.054 114.05L388.054 114.034C388.003 132.738 383.165 151.117 374 167.422L379.23 170.362ZM394.054 114.042C394.053 94.0491 388.84 74.4007 378.929 57.0369L373.718 60.0112C383.112 76.469 388.053 95.0924 388.054 114.042L394.054 114.042ZM378.929 57.0369C369.018 39.6733 354.752 25.1932 337.537 15.025L334.486 20.1911C350.802 29.8288 364.324 43.5534 373.718 60.0112L378.929 57.0369ZM337.537 15.025C320.323 4.85691 300.756 -0.64795 280.765 -0.946542L280.675 5.05279C299.623 5.3358 318.17 10.5535 334.486 20.1911L337.537 15.025ZM280.765 -0.946542C260.774 -1.24513 241.051 3.67286 223.54 13.3223L226.436 18.5772C243.033 9.43119 261.727 4.76977 280.675 5.05279L280.765 -0.946542ZM223.54 13.3223C206.03 22.9718 191.338 37.0193 180.913 54.0793L186.033 57.2079C195.914 41.038 209.839 27.7233 226.436 18.5772L223.54 13.3223ZM180.913 54.0793C170.488 71.1392 164.69 90.6222 164.092 110.606L170.089 110.786C170.656 91.8443 176.151 73.3778 186.033 57.2079L180.913 54.0793ZM164.092 110.606C163.494 130.59 168.116 150.385 177.502 168.038L182.799 165.221C173.903 148.489 169.522 129.727 170.089 110.786L164.092 110.606ZM177.502 168.038C186.888 185.691 200.713 200.592 217.615 211.272L220.82 206.199C204.8 196.077 191.696 181.953 182.799 165.221L177.502 168.038ZM217.622 211.276C218.488 211.82 219.363 212.359 220.264 212.892L223.321 207.729C222.478 207.23 221.649 206.72 220.813 206.195L217.622 211.276ZM220.244 212.88C221.544 213.664 222.864 214.417 224.177 215.122L227.017 209.837C225.794 209.18 224.56 208.476 223.342 207.741L220.244 212.88ZM224.162 215.114C229.186 217.85 234.406 220.206 239.78 222.163L241.834 216.525C236.74 214.67 231.792 212.437 227.032 209.845L224.162 215.114Z" fill="black" mask="url(#path-8-inside-1_134_400)"/>
<path d="M113.976 458.041C105.321 458.04 96.6935 457.058 88.2592 455.115C83.9217 454.11 79.6474 452.85 75.4584 451.341L75.2826 451.282C69.9004 449.33 64.673 446.976 59.6449 444.239C58.3529 443.544 57.0468 442.799 55.7675 442.028C54.8871 441.507 54.0195 440.973 53.1518 440.428C36.3966 429.842 22.6906 415.07 13.3858 397.571C4.08101 380.072 -0.501087 360.449 0.09151 340.638C0.684107 320.828 6.43091 301.514 16.765 284.602C27.0992 267.69 41.6636 253.765 59.0216 244.199C76.3797 234.633 95.9316 229.758 115.749 230.053C135.566 230.349 154.964 235.806 172.028 245.886C189.093 255.965 203.235 270.32 213.06 287.532C222.885 304.745 228.053 324.222 228.054 344.041V344.04C228.001 363.599 222.942 382.819 213.358 399.87C203.774 416.92 189.985 431.233 173.303 441.446C171.345 442.64 169.326 443.784 167.131 444.945C164.147 446.525 161.098 447.962 158.059 449.224L157.496 449.465C156.444 449.9 155.393 450.315 154.332 450.708C153.849 450.896 153.341 451.088 152.833 451.272C140.408 455.757 127.298 458.048 114.088 458.041C114.051 458.042 114.014 458.041 113.976 458.041ZM75.807 449.344L75.974 449.401C80.1401 450.909 84.3929 452.167 88.7094 453.166C96.9963 455.076 105.473 456.04 113.977 456.041C114.013 456.043 114.048 456.042 114.087 456.041C127.066 456.048 139.947 453.797 152.155 449.391C152.646 449.213 153.139 449.027 153.621 448.838C154.463 448.526 155.29 448.204 156.114 447.87V447.869L156.736 447.606C159.901 446.314 163.083 444.824 166.196 443.177C168.354 442.035 170.339 440.91 172.263 439.738C188.652 429.704 202.199 415.643 211.615 398.892C221.031 382.141 226.002 363.258 226.054 344.042C226.053 324.571 220.976 305.435 211.323 288.524C201.671 271.613 187.777 257.511 171.012 247.608C154.247 237.705 135.189 232.344 115.72 232.053C96.2506 231.762 77.0418 236.552 59.9882 245.95C42.9347 255.348 28.6257 269.029 18.4727 285.644C8.31962 302.258 2.67333 321.233 2.09076 340.696C1.50819 360.159 6.00947 379.437 15.1506 396.63C24.2917 413.822 37.7568 428.335 54.2177 438.736C55.0683 439.27 55.9203 439.794 56.7929 440.311C58.0517 441.07 59.329 441.798 60.5971 442.48C65.4891 445.143 70.5732 447.438 75.807 449.344Z" fill="#075765"/>
<path d="M176.275 263.876C185.022 263.876 192.114 256.785 192.114 248.038C192.114 239.291 185.022 232.199 176.275 232.199C167.528 232.199 160.437 239.291 160.437 248.038C160.437 256.785 167.528 263.876 176.275 263.876Z" fill="#075765"/>
<path d="M348.275 42.8765C357.022 42.8765 364.114 35.7853 364.114 27.0379C364.114 18.2906 357.022 11.1994 348.275 11.1994C339.528 11.1994 332.437 18.2906 332.437 27.0379C332.437 35.7853 339.528 42.8765 348.275 42.8765Z" fill="#075765"/>
<path d="M572.275 225.876C581.022 225.876 588.114 218.785 588.114 210.038C588.114 201.291 581.022 194.199 572.275 194.199C563.528 194.199 556.437 201.291 556.437 210.038C556.437 218.785 563.528 225.876 572.275 225.876Z" fill="#075765"/>
<path d="M752.85 312.11C782.408 312.11 806.369 288.149 806.369 258.591C806.369 229.033 782.408 205.072 752.85 205.072C723.292 205.072 699.331 229.033 699.331 258.591C699.331 288.149 723.292 312.11 752.85 312.11Z" fill="#0DBB7E"/>
<path d="M613.433 426.863C612.701 426.862 611.973 426.747 611.276 426.521C610.4 426.241 609.588 425.79 608.887 425.193C608.187 424.597 607.612 423.868 607.195 423.048L600.47 409.91C600.051 409.091 599.798 408.198 599.724 407.282C599.65 406.366 599.758 405.444 600.041 404.569C600.323 403.695 600.775 402.884 601.371 402.184C601.967 401.484 602.695 400.908 603.513 400.49L713.016 344.442C714.669 343.596 716.59 343.442 718.357 344.012C720.124 344.583 721.592 345.832 722.438 347.485L729.162 360.623C730.008 362.276 730.162 364.197 729.592 365.963C729.022 367.73 727.773 369.197 726.121 370.043L616.616 426.091C615.632 426.599 614.541 426.863 613.433 426.863Z" fill="#0DBB7E"/>
<path d="M798.614 480.341H707.614C705.36 480.338 703.2 479.442 701.606 477.849C700.013 476.255 699.116 474.095 699.114 471.841V376.341C699.114 362.019 704.803 348.284 714.93 338.157C725.057 328.03 738.792 322.341 753.114 322.341C767.435 322.341 781.171 328.03 791.298 338.157C801.425 348.284 807.114 362.019 807.114 376.341V471.841C807.111 474.095 806.215 476.255 804.621 477.849C803.028 479.442 800.867 480.338 798.614 480.341Z" fill="#075765"/>
<path d="M763.777 469.962C763.708 469.962 763.638 469.961 763.568 469.959L748.814 469.533C746.959 469.478 745.201 468.689 743.927 467.339C742.653 465.989 741.967 464.188 742.02 462.332L745.581 339.369C745.606 338.45 745.812 337.545 746.189 336.706C746.565 335.867 747.104 335.111 747.774 334.482C747.91 334.353 748.051 334.231 748.195 334.116C749.492 333.072 751.119 332.526 752.783 332.576L767.535 333.002C769.39 333.059 771.147 333.849 772.421 335.198C773.695 336.548 774.381 338.348 774.33 340.203L770.769 463.166C770.714 464.985 769.953 466.711 768.648 467.98C767.344 469.248 765.597 469.959 763.777 469.962Z" fill="#0DBB7E"/>
<path d="M749.507 329.887C750.71 328.915 752.222 328.407 753.768 328.457L768.52 328.884C770.243 328.936 771.875 329.669 773.057 330.923C774.24 332.176 774.878 333.847 774.83 335.57L778.268 392.533C778.217 394.255 777.484 395.887 776.23 397.07C774.977 398.252 773.305 398.889 771.583 398.841L743.829 398.414C742.976 398.389 742.136 398.197 741.357 397.847C740.578 397.498 739.876 396.999 739.29 396.378C738.704 395.757 738.246 395.027 737.943 394.229C737.639 393.431 737.496 392.582 737.52 391.728L743.614 335.841C743.664 334.106 747.855 331.419 749.117 330.227C749.243 330.107 749.374 329.995 749.507 329.887Z" fill="#075765"/>
<path d="M728.757 340.054C730.186 340.645 731.355 341.73 732.051 343.111L738.733 356.27C739.512 357.808 739.649 359.591 739.114 361.23C738.579 362.868 737.416 364.227 735.88 365.009L687.503 395.278C685.965 396.056 684.182 396.193 682.544 395.658C680.905 395.123 679.546 393.96 678.765 392.425L665.864 367.848C665.477 367.087 665.244 366.257 665.179 365.406C665.113 364.555 665.215 363.699 665.48 362.888C665.745 362.076 666.167 361.325 666.723 360.677C667.278 360.029 667.956 359.496 668.717 359.11L723.313 340.257C724.073 339.869 724.903 339.635 725.755 339.569C726.606 339.503 727.462 339.607 728.273 339.874C728.438 339.927 728.599 339.988 728.757 340.054Z" fill="#075765"/>
<path d="M734.97 271.668C731.664 271.575 727.549 271.46 724.38 269.145C723.436 268.427 722.661 267.512 722.108 266.463C721.555 265.415 721.238 264.258 721.18 263.073C721.122 262.232 721.26 261.388 721.583 260.608C721.906 259.829 722.404 259.134 723.04 258.579C724.696 257.18 727.113 256.853 729.719 257.618L727.019 237.892L729.001 237.62L732.174 260.811L730.52 260.052C728.601 259.171 725.967 258.724 724.331 260.107C723.929 260.468 723.616 260.918 723.416 261.42C723.217 261.922 723.135 262.463 723.179 263.002C723.227 263.884 723.465 264.744 723.876 265.525C724.286 266.307 724.861 266.99 725.56 267.53C728.026 269.331 731.306 269.565 735.025 269.668L734.97 271.668Z" fill="#084049"/>
<path d="M717.22 239.594H706.448V241.594H717.22V239.594Z" fill="#084049"/>
<path d="M751.22 239.594H740.448V241.594H751.22V239.594Z" fill="#084049"/>
<path d="M481.266 337.924C510.824 337.924 534.785 313.962 534.785 284.405C534.785 254.847 510.824 230.885 481.266 230.885C451.708 230.885 427.747 254.847 427.747 284.405C427.747 313.962 451.708 337.924 481.266 337.924Z" fill="#0DBB7E"/>
<path d="M456.986 255.588C450.739 254.114 443.995 252.132 439.539 247.214C435.746 243.027 433.967 236.566 437.328 231.602C440.397 227.07 446.451 225.407 451.546 224.557C457.468 223.569 463.555 223.425 469.112 220.904C471.84 219.67 474.221 217.781 476.044 215.405C477.735 213.029 479.204 210.503 480.43 207.857C481.592 205.278 483.144 202.894 485.032 200.788C487.179 198.685 489.948 197.333 492.926 196.933C499.631 195.914 505.996 199.013 511.272 202.861C516.38 206.66 521.015 211.058 525.076 215.961C534.299 226.952 540.648 240.061 543.552 254.113C543.942 256.002 546.835 255.202 546.445 253.315C543.668 240.018 537.899 227.527 529.577 216.791C525.455 211.438 520.72 206.586 515.469 202.335C510.033 197.956 503.757 194.139 496.607 193.777C493.301 193.585 490 194.24 487.018 195.681C484.278 197.126 481.972 199.274 480.336 201.904C476.968 207.014 475.342 213.616 469.907 217.072C464.402 220.573 457.509 220.607 451.264 221.581C445.709 222.448 439.525 224.278 435.765 228.738C431.606 233.673 431.762 240.397 434.869 245.839C438.321 251.885 444.734 255.185 451.175 257.152C452.829 257.657 454.505 258.084 456.188 258.481C458.066 258.924 458.867 256.032 456.986 255.588Z" fill="#084049"/>
<path d="M478.981 302.274L478.925 300.274C482.646 300.17 485.926 299.937 488.391 298.136C489.09 297.596 489.664 296.913 490.075 296.131C490.486 295.35 490.724 294.489 490.772 293.608C490.816 293.069 490.734 292.528 490.534 292.026C490.334 291.524 490.021 291.075 489.62 290.713C487.983 289.331 485.351 289.779 483.432 290.658L481.777 291.417L484.95 268.227L486.932 268.498L484.232 288.225C486.84 287.458 489.256 287.788 490.911 289.186C491.546 289.74 492.045 290.435 492.367 291.214C492.69 291.993 492.828 292.836 492.771 293.678C492.713 294.862 492.396 296.02 491.843 297.069C491.29 298.118 490.515 299.033 489.571 299.751C486.404 302.066 482.288 302.181 478.981 302.274Z" fill="#084049"/>
<path d="M507.502 270.199H496.731V272.199H507.502V270.199Z" fill="#084049"/>
<path d="M473.502 270.199H462.731V272.199H473.502V270.199Z" fill="#084049"/>
<path d="M112.266 405.924C141.824 405.924 165.785 381.962 165.785 352.405C165.785 322.847 141.824 298.885 112.266 298.885C82.7079 298.885 58.7466 322.847 58.7466 352.405C58.7466 381.962 82.7079 405.924 112.266 405.924Z" fill="#0DBB7E"/>
<path d="M109.981 370.274L109.925 368.274C113.646 368.17 116.926 367.937 119.391 366.136C120.09 365.596 120.664 364.913 121.075 364.131C121.486 363.35 121.724 362.489 121.772 361.608C121.816 361.069 121.734 360.528 121.534 360.026C121.334 359.524 121.021 359.075 120.62 358.713C118.983 357.331 116.351 357.779 114.432 358.658L112.777 359.417L115.95 336.227L117.932 336.498L115.232 356.225C117.84 355.458 120.256 355.788 121.911 357.186C122.546 357.74 123.045 358.435 123.367 359.214C123.69 359.993 123.828 360.836 123.771 361.678C123.713 362.862 123.396 364.02 122.843 365.069C122.29 366.118 121.515 367.033 120.571 367.751C117.404 370.066 113.288 370.181 109.981 370.274Z" fill="#084049"/>
<path d="M138.502 338.199H127.731V340.199H138.502V338.199Z" fill="#084049"/>
<path d="M104.502 338.199H93.731V340.199H104.502V338.199Z" fill="#084049"/>
<path d="M280.265 174.376C309.823 174.376 333.784 150.414 333.784 120.857C333.784 91.2987 309.823 67.3374 280.265 67.3374C250.707 67.3374 226.746 91.2987 226.746 120.857C226.746 150.414 250.707 174.376 280.265 174.376Z" fill="#075765"/>
<path d="M318.091 140.649L318.035 138.649C321.756 138.545 325.036 138.312 327.501 136.511C328.2 135.972 328.774 135.288 329.185 134.506C329.596 133.725 329.834 132.864 329.882 131.983C329.926 131.444 329.844 130.903 329.644 130.401C329.444 129.899 329.131 129.45 328.729 129.088C327.094 127.705 324.461 128.153 322.541 129.034L320.887 129.792L324.06 106.602L326.041 106.873L323.342 126.6C325.95 125.833 328.366 126.162 330.021 127.561C330.656 128.116 331.154 128.81 331.477 129.589C331.8 130.368 331.938 131.212 331.881 132.053C331.822 133.238 331.506 134.395 330.953 135.444C330.4 136.493 329.625 137.409 328.681 138.126C325.514 140.441 321.398 140.556 318.091 140.649Z" fill="white"/>
<path d="M312.612 108.575H301.841V110.575H312.612V108.575Z" fill="white"/>
<path d="M311.9 64.1836C309.901 52.2678 302.353 42.0244 292.641 35.1094C283.121 28.4503 271.739 24.9706 260.122 25.1674C237.629 25.4149 215.635 38.0131 203.576 56.9174C190.216 77.8607 189.952 105.21 198.984 127.854C201.293 133.687 204.22 139.256 207.716 144.465C211.593 150.21 216.29 155.278 220.858 160.466C229.371 170.136 239.132 183.583 233.427 197.075C231.32 202.058 226.874 206.589 221.218 206.946C216.442 207.247 211.148 204.963 209.03 200.475C206.658 195.446 209.943 189.494 214.795 187.436C219.884 185.277 225.173 188.462 227.053 193.36C227.987 195.615 228.019 198.143 227.142 200.421C226.955 200.768 226.906 201.172 227.006 201.553C227.106 201.934 227.347 202.263 227.68 202.473C228.024 202.672 228.432 202.727 228.817 202.626C229.201 202.525 229.53 202.277 229.732 201.935C230.742 199.411 230.961 196.64 230.361 193.988C229.76 191.337 228.369 188.93 226.37 187.087C224.342 185.144 221.69 183.983 218.887 183.809C216.083 183.636 213.309 184.462 211.057 186.14C206.301 189.614 203.786 195.832 206.196 201.443C208.283 206.301 213.332 209.235 218.431 209.854C221.244 210.131 224.08 209.676 226.665 208.531C229.249 207.387 231.493 205.593 233.179 203.324C236.939 198.4 238.644 192.209 237.932 186.054C236.263 170.7 223.996 160.203 214.788 148.966C206.599 138.898 200.829 127.086 197.919 114.438C194.942 102.007 195.053 89.0359 198.243 76.6573C201.336 64.9204 207.694 54.3011 216.579 46.0316C225.106 38.1289 235.52 32.5487 246.823 29.826C257.998 27.044 269.758 27.7596 280.513 31.8761C291.787 36.3483 301.791 45.1971 306.559 56.4648C307.704 59.1983 308.526 62.0565 309.007 64.9811C309.326 66.8809 312.217 66.0751 311.9 64.1836Z" fill="#084049"/>
<path d="M311.834 64.6354C316.843 59.8097 325.008 59.1139 331.043 62.3826C337.286 65.7636 339.791 73.0453 338.19 79.7835C337.368 83.5473 335.193 86.8785 332.078 89.1454C330.505 90.2408 332.003 92.8425 333.592 91.7359C340.345 87.0352 343.188 77.9764 340.884 70.1401C338.477 61.9581 330.486 57.0735 322.139 57.3994C317.51 57.5222 313.088 59.3425 309.713 62.5141C308.32 63.8561 310.443 65.9759 311.834 64.6354Z" fill="#084049"/>
<path d="M125.895 318.592C132.35 317.992 137.755 313.717 140.62 307.997C142.084 305.036 142.852 301.78 142.866 298.477C142.879 295.174 142.139 291.912 140.7 288.939C137.658 282.705 132.583 277.694 126.311 274.732C119.016 271.198 110.777 270.22 102.753 270.544C87.6313 271.155 70.9716 275.4 61.676 288.294C57.3032 294.141 55.403 301.472 56.3847 308.707C57.561 316.3 62.1824 322.876 67.1166 328.544C72.288 334.485 78.2556 339.835 82.3428 346.641C85.8794 352.529 87.7818 359.945 85.4161 366.627C84.8521 368.211 84.0147 369.684 82.942 370.978C81.7188 372.454 83.8298 374.588 85.0633 373.1C89.3192 367.964 90.1796 361.184 88.8395 354.794C87.364 347.759 83.1078 341.811 78.4537 336.498C69.3977 326.159 55.9106 314.87 59.717 299.425C61.5042 292.73 65.5712 286.869 71.2167 282.852C77.2699 278.463 84.457 276.048 91.7601 274.737C105.735 272.228 122.659 272.49 133.218 283.379C137.606 287.904 140.625 294.228 139.816 300.645C139.087 306.432 135.392 312.108 129.99 314.522C128.692 315.099 127.309 315.46 125.895 315.592C123.989 315.769 123.97 318.771 125.895 318.592Z" fill="#084049"/>
</g>
<defs>
<clipPath id="clip0_134_400">
<rect width="913.307" height="595.513" fill="white"/>
</clipPath>
</defs>
</svg>
