<svg width="320" height="224" viewBox="0 0 320 224" fill="none" xmlns="http://www.w3.org/2000/svg">
<g clip-path="url(#clip0_15_445)">
<path d="M194.038 67.5005C194.436 67.5173 194.83 67.4212 195.167 67.2252C195.503 67.0291 195.766 66.7427 195.92 66.4046C196.074 66.0665 196.111 65.6932 196.026 65.3351C195.941 64.9771 195.739 64.6516 195.446 64.4028C195.397 64.2237 195.362 64.0951 195.313 63.916C195.331 63.877 195.348 63.8381 195.366 63.7991C197.156 59.8758 203.22 59.9029 204.995 63.832C206.57 67.3193 208.575 70.8126 209.068 74.4998C209.286 76.1297 209.194 77.7819 208.797 79.3829C212.496 71.9644 214.417 63.9015 214.429 55.7407C214.43 53.6928 214.306 51.6465 214.058 49.6114C213.854 47.943 213.57 46.2864 213.206 44.6418C211.224 35.7181 206.967 27.3541 200.786 20.2366C197.795 18.7358 195.376 16.428 193.855 13.6241C193.303 12.6162 192.914 11.5402 192.698 10.4297C193.036 10.4704 193.971 5.745 193.716 5.45508C194.186 4.79893 195.028 4.47277 195.542 3.8325C198.096 0.648203 201.616 1.2042 203.453 5.53141C207.378 7.35269 207.416 10.3732 205.008 13.2782C203.475 15.1264 203.265 17.6272 201.921 19.6058C202.059 19.7686 202.203 19.9263 202.341 20.0891C204.869 23.0782 207.073 26.2879 208.92 29.6722C208.397 25.9187 209.169 21.3967 210.485 18.4817C211.982 15.1605 214.789 12.3633 217.26 9.49209C220.229 6.04331 226.317 7.54843 226.84 11.9203C226.845 11.9626 226.85 12.0049 226.855 12.0472C226.487 12.2377 226.128 12.4398 225.776 12.6536C225.335 12.9249 224.992 13.3126 224.794 13.7659C224.597 14.2191 224.552 14.7168 224.667 15.1936C224.782 15.6705 225.051 16.1043 225.438 16.4383C225.826 16.7722 226.314 16.9907 226.839 17.0651L226.893 17.0727C226.762 18.2892 226.531 19.4948 226.202 20.6791C229.372 31.9532 222.527 36.0595 212.753 36.2439C212.537 36.3457 212.327 36.4474 212.111 36.5441C213.967 41.3799 215.131 46.4171 215.574 51.529C215.825 54.5448 215.81 57.5744 215.53 60.5881L215.547 60.4813C216.255 57.1301 218.199 54.1064 221.051 51.9206C225.287 48.7212 231.272 47.543 235.842 44.9713C238.042 43.7333 240.861 45.3331 240.477 47.6781C240.471 47.7155 240.465 47.7529 240.458 47.7904C239.777 48.0455 239.114 48.3394 238.472 48.6703C238.105 48.8608 237.746 49.0629 237.394 49.2767C236.952 49.548 236.61 49.9357 236.412 50.3889C236.214 50.8422 236.17 51.3399 236.285 51.8167C236.4 52.2936 236.669 52.7274 237.056 53.0614C237.444 53.3953 237.932 53.6138 238.457 53.6882L238.511 53.6958C238.55 53.7009 238.583 53.706 238.622 53.7112C237.458 56.2665 235.824 58.6186 233.792 60.6644C231.809 70.5063 223.294 71.44 214.186 68.574H214.18C213.181 72.5669 211.733 76.4536 209.859 80.1713H194.424C194.369 80.0136 194.319 79.8508 194.269 79.6931C195.698 79.7757 197.132 79.6972 198.54 79.4592C197.395 78.1672 196.25 76.865 195.105 75.5731C195.079 75.5489 195.055 75.5234 195.033 75.4967C194.452 74.8355 193.866 74.1794 193.285 73.5181L193.284 73.5173C193.253 71.4904 193.506 69.4682 194.037 67.5007L194.038 67.5005Z" fill="#66DFF4"/>
<path d="M243.594 31.1815C240.724 21.5609 263.872 13.3111 269.951 21.0585C270.796 19.9571 273.92 19.288 275.353 19.6259C276.786 19.9638 277.991 20.8085 279.167 21.6262C280.784 22.7682 282.46 23.9508 283.452 25.5929C284.452 27.2282 284.606 29.4583 283.261 30.8774C282.195 32.0059 279.05 32.7357 277.447 33.0331C276.33 33.2425 275.39 33.4115 274.581 33.5331C273.847 32.5603 273.508 31.3808 273.626 30.2016C273.081 30.5391 272.625 30.9832 272.29 31.5019C271.954 32.0207 271.748 32.6012 271.685 33.202C271.663 33.452 280.718 64.0843 280.718 64.0843C279.63 64.6536 278.486 65.1265 277.3 65.4967C274.956 62.2016 273.16 58.6029 271.972 54.8196C271.699 57.3494 271.733 59.8992 272.075 62.422C272.256 63.8366 272.516 65.2417 272.854 66.6319C262.094 68.7674 245.91 68.0646 238.868 58.9823C238.867 58.9448 238.866 58.9072 238.865 58.8695C238.859 58.5111 238.718 58.1655 238.466 57.892C238.214 57.6185 237.866 57.4341 237.483 57.3704C237.099 57.3067 236.703 57.3677 236.363 57.5428C236.023 57.718 235.759 57.9965 235.618 58.3306C235.447 58.7313 235.29 59.0781 235.149 59.354C233.099 52.6099 235.752 44.8048 243.594 31.1815Z" fill="#075765"/>
<path d="M225.283 192.474V192.789C225.271 192.684 225.271 192.578 225.283 192.474Z" fill="#075765"/>
<path d="M235.821 138.028C236.095 137.96 236.373 137.91 236.655 137.879C236.332 137.927 236.054 137.977 235.821 138.028Z" fill="#075765"/>
<path d="M235.578 138.085C235.652 138.066 235.734 138.047 235.821 138.028C235.74 138.047 235.661 138.062 235.578 138.085Z" fill="#075765"/>
<path d="M313.428 223.999H273.987C273.425 223.586 273.034 223.007 272.88 222.361C272.726 221.714 272.819 221.039 273.143 220.447C274.22 218.175 272.109 216.099 272.109 216.099C271.392 215.327 270.894 214.404 270.658 213.413C270.422 212.421 270.456 211.391 270.757 210.415C271.802 207.059 267.707 197.587 267.707 197.587C267.707 197.587 265.499 209.818 262.794 223.999H225.284C224.656 223.015 224.324 221.894 224.324 220.753C224.324 219.612 224.656 218.491 225.284 217.507C227.47 214.099 225.284 213.446 225.284 213.446C225.284 213.446 223.098 209.632 225.284 206.863C227.47 204.095 225.284 192.789 225.284 192.789C225.366 193.289 225.989 192.38 226.948 190.474C228.408 187.575 230.638 182.361 232.892 176.308C234.503 171.988 236.128 167.235 237.485 162.587H237.489C237.845 161.367 238.182 160.157 238.5 158.958C239.123 156.607 239.657 154.323 240.062 152.178C240.942 147.558 241.232 143.589 240.556 141.008C239.996 138.86 238.77 137.676 236.655 137.879C237.788 137.706 239.449 137.542 241.495 137.388C241.864 137.361 242.247 137.333 242.642 137.303C257.904 136.243 290.65 135.634 290.65 135.634L300.68 152.148L313.382 173.067C313.382 173.067 313.036 201.129 313.428 223.999Z" fill="#075765"/>
<path d="M271.331 64.258L248.223 59.7512L243.634 68.2425L228.184 76.467C228.184 76.467 238.143 113.908 238.086 119.174C237.942 132.544 214.676 162.514 232.25 160.208C249.823 157.902 253.393 148.245 259.035 149.772C264.123 151.149 270.335 157.276 274.494 152.894C278.654 148.512 280.119 153.572 282.749 153.747C283.998 153.83 283.246 148.214 286.39 153.921C289.535 159.629 306.211 151.946 300.559 146.75C291.146 138.095 289.233 74.2971 289.233 74.2971L278.754 71.3327L271.331 64.258Z" fill="#66DFF4"/>
<path d="M227.747 200.229C228.675 199.211 229.135 197.9 229.028 196.575C228.922 195.25 228.257 194.016 227.175 193.135C226.953 192.959 226.714 192.8 226.463 192.66L230.327 175.226L221.395 170.311L218.91 194.72C218.361 195.723 218.188 196.865 218.418 197.968C218.649 199.071 219.27 200.073 220.185 200.817C220.71 201.236 221.32 201.556 221.979 201.758C222.639 201.96 223.335 202.041 224.029 201.996C224.722 201.951 225.399 201.781 226.021 201.495C226.643 201.209 227.197 200.814 227.653 200.331C227.685 200.297 227.716 200.263 227.747 200.229Z" fill="#A0616A"/>
<path d="M255.479 108.332C255.423 107.771 254.646 107.517 253.568 107.166C252.486 106.859 251.458 106.411 250.514 105.836C248.128 104.251 249.067 102.594 250.366 100.304C250.619 99.8584 250.883 99.3949 251.13 98.9132C251.865 97.4863 250.695 91.5999 247.647 81.4147C246.708 78.2792 246.712 76.0646 246.062 74.5953C245.417 73.126 244.122 72.4019 240.593 72.2504C236.327 72.0525 232.15 73.4175 228.978 76.0464C228.892 76.1161 228.803 76.1918 228.718 76.2645C228.556 76.4039 228.398 76.5463 228.243 76.6917C225.309 79.4055 223.63 83.0572 223.558 86.883L223.541 87.5343L222.813 118.653L220.767 145.961L217.946 183.579L220.035 183.673L228.372 184.055L229.383 184.1L231.782 174.848L234.668 163.714L235.729 159.625L239.021 146.937L240.557 141.008L241.496 137.388L241.878 135.91L243.743 128.724C243.786 128.572 248.076 113.009 253.021 110.407C254.867 109.438 255.532 108.874 255.479 108.332Z" fill="#66DFF4"/>
<path d="M310.971 200.043C309.929 199.123 309.319 197.865 309.27 196.537C309.221 195.21 309.738 193.917 310.71 192.934C310.911 192.737 311.13 192.556 311.363 192.392L305.485 175.44L313.791 169.672L319.113 193.694C319.776 194.637 320.082 195.755 319.981 196.875C319.881 197.994 319.38 199.052 318.557 199.882C318.084 200.35 317.515 200.728 316.883 200.994C316.251 201.261 315.569 201.41 314.874 201.433C314.179 201.457 313.486 201.354 312.835 201.132C312.183 200.909 311.585 200.571 311.076 200.136C311.04 200.105 311.005 200.074 310.971 200.043Z" fill="#A0616A"/>
<path d="M315.034 163.26C315.034 163.26 308.556 142.304 310.532 140.035C312.507 137.766 306.673 137.323 309.187 133.098C311.701 128.873 308.231 128.167 308.231 128.167L306.348 118.452L302.981 94.5914L302.879 93.8817L301.899 86.9398C301.626 84.9571 300.92 83.0454 299.825 81.319C298.729 79.5927 297.267 78.0872 295.524 76.8926C295.435 76.8299 295.344 76.7698 295.253 76.7096C294.839 76.4352 294.415 76.181 293.983 75.947C290.751 74.194 286.956 73.5312 283.25 74.0726C276.267 75.0725 278.44 77.4666 277.308 83.8805C275.468 94.3091 274.99 100.275 275.887 101.624C276.19 102.077 276.507 102.512 276.81 102.929C278.369 105.081 279.496 106.633 277.308 108.447C276.436 109.11 275.466 109.656 274.427 110.068C273.399 110.526 272.655 110.854 272.665 111.417C272.676 111.962 273.403 112.455 275.35 113.235C277.708 114.184 280.242 117.773 282.317 121.438C283.963 124.393 285.431 127.428 286.715 130.531L304.55 176.65L307.459 184.171L308.462 184.025L316.703 182.824L318.769 182.523L315.034 163.26Z" fill="#66DFF4"/>
<path d="M261.581 59.4327C271.993 59.4327 280.434 51.6722 280.434 42.0991C280.434 32.526 271.993 24.7654 261.581 24.7654C251.169 24.7654 242.729 32.526 242.729 42.0991C242.729 51.6722 251.169 59.4327 261.581 59.4327Z" fill="#A0616A"/>
<path d="M233.305 32.533C230.435 22.9124 253.583 14.6626 259.661 22.4101C260.506 21.3086 263.63 20.6396 265.063 20.9775C266.496 21.3153 267.702 22.16 268.878 22.9777C270.495 24.1198 272.17 25.3023 273.163 26.9444C274.162 28.5798 274.317 30.8098 272.972 32.2289C271.906 33.3574 268.76 34.0873 267.158 34.3846C266.041 34.5941 265.1 34.763 264.291 34.8846C263.557 33.9119 263.219 32.7324 263.336 31.5531C262.792 31.8906 262.336 32.3347 262 32.8534C261.665 33.3722 261.458 33.9528 261.396 34.5535C261.374 34.8036 270.429 65.4359 270.429 65.4359C269.341 66.0052 268.196 66.4781 267.011 66.8482C264.666 63.5532 262.87 59.9544 261.682 56.1712C261.409 58.7009 261.444 61.2508 261.785 63.7735C261.967 65.1881 262.227 66.5933 262.564 67.9835C251.804 70.1189 235.62 69.4161 228.579 60.3339C228.578 60.2963 228.576 60.2587 228.575 60.2211C228.57 59.8626 228.429 59.517 228.177 59.2435C227.925 58.97 227.577 58.7856 227.193 58.722C226.809 58.6583 226.414 58.7192 226.073 58.8944C225.733 59.0696 225.47 59.348 225.328 59.6821C225.157 60.0828 225 60.4297 224.86 60.7056C222.809 53.9614 225.463 46.1564 233.305 32.533Z" fill="#075765"/>
<path d="M139.807 92.4282C139.409 92.445 139.015 92.3489 138.678 92.1529C138.342 91.9569 138.079 91.6704 137.925 91.3324C137.771 90.9943 137.734 90.6209 137.819 90.2629C137.904 89.9048 138.106 89.5793 138.399 89.3306C138.448 89.1515 138.483 89.0229 138.532 88.8437C138.514 88.8048 138.497 88.7658 138.479 88.7269C136.689 84.8036 130.625 84.8306 128.85 88.7598C127.275 92.2471 125.27 95.7403 124.777 99.4276C124.559 101.057 124.651 102.71 125.048 104.311C121.349 96.8922 119.428 88.8292 119.416 80.6684C119.415 78.6206 119.539 76.5743 119.787 74.5392C119.991 72.8707 120.275 71.2142 120.639 69.5696C122.621 60.6459 126.878 52.2819 133.059 45.1644C136.05 43.6636 138.469 41.3558 139.99 38.5519C140.541 37.544 140.931 36.468 141.147 35.3575C140.809 35.3982 139.874 30.6728 140.129 30.3829C139.658 29.7267 138.817 29.4006 138.303 28.7603C135.749 25.576 132.229 26.132 130.392 30.4592C126.467 32.2805 126.429 35.301 128.837 38.206C130.37 40.0542 130.58 42.555 131.924 44.5336C131.786 44.6964 131.642 44.8541 131.504 45.0169C128.976 48.006 126.772 51.2157 124.925 54.6C125.447 50.8465 124.676 46.3245 123.36 43.4095C121.863 40.0883 119.056 37.2911 116.585 34.4199C113.616 30.9711 107.528 32.4762 107.005 36.8481C107 36.8904 106.995 36.9327 106.99 36.975C107.358 37.1654 107.717 37.3676 108.069 37.5814C108.51 37.8527 108.852 38.2404 109.05 38.6936C109.248 39.1469 109.293 39.6445 109.178 40.1214C109.063 40.5983 108.794 41.0321 108.407 41.366C108.019 41.7 107.531 41.9185 107.005 41.9929L106.952 42.0005C107.083 43.217 107.314 44.4226 107.643 45.6069C104.473 56.881 111.318 60.9873 121.092 61.1717C121.308 61.2734 121.518 61.3751 121.734 61.4718C119.878 66.3077 118.714 71.3449 118.271 76.4568C118.02 79.4726 118.035 82.5022 118.315 85.5159L118.298 85.4091C117.59 82.0579 115.646 79.0342 112.794 76.8484C108.558 73.649 102.573 72.4708 98.0028 69.8991C95.803 68.6611 92.984 70.2609 93.3679 72.6059C93.374 72.6433 93.3803 72.6807 93.3866 72.7182C94.0679 72.9733 94.7312 73.2672 95.3727 73.5981C95.7398 73.7886 96.0991 73.9907 96.4507 74.2044C96.8925 74.4758 97.2347 74.8635 97.4327 75.3167C97.6306 75.77 97.6751 76.2676 97.5602 76.7445C97.4453 77.2214 97.1764 77.6552 96.7887 77.9891C96.4011 78.3231 95.9127 78.5416 95.3877 78.616L95.3339 78.6236C95.2952 78.6287 95.262 78.6338 95.2233 78.6389C96.3873 81.1943 98.0211 83.5464 100.053 85.5922C102.036 95.434 110.551 96.3678 119.659 93.5018H119.665C120.664 97.4947 122.112 101.381 123.986 105.099H139.421C139.476 104.941 139.526 104.779 139.576 104.621C138.147 104.703 136.713 104.625 135.305 104.387C136.45 103.095 137.595 101.793 138.74 100.501C138.766 100.477 138.79 100.451 138.812 100.425C139.393 99.7633 139.979 99.1071 140.56 98.4459L140.561 98.4451C140.592 96.4182 140.339 94.396 139.808 92.4285L139.807 92.4282Z" fill="#66DFF4"/>
<path d="M67.7867 21.0589C67.4364 21.8095 56.6348 21.7291 56.1401 22.3974C52.3258 27.5575 66.0755 49.5124 62.2612 54.6791L61.7299 55.2614C62.9742 54.7341 64.1696 54.1141 65.3039 53.4075C65.4058 51.2926 65.5078 49.171 65.6169 47.0562C66.7594 48.3999 67.6815 49.8904 68.3539 51.48C69.242 50.9044 69.9705 49.8375 73.7769 47.7388C75.3179 46.1824 77.0944 44.8378 79.0518 43.7465L67.7867 21.0589Z" fill="#075765"/>
<path d="M75.6302 63.3486C74.4383 62.6347 73.0783 62.1924 71.6632 62.0585C70.248 61.9245 68.8186 62.1028 67.4934 62.5785C66.1683 63.0543 64.9856 63.8137 64.0435 64.7938C63.1015 65.7739 62.4273 66.9464 62.0768 68.2141L45.6621 107.538L17.4472 92.8102C17.3233 91.1174 16.6195 89.5041 15.4368 88.2017C14.254 86.8994 12.653 85.9749 10.8634 85.5608C9.07387 85.1468 7.18765 85.2645 5.47532 85.897C3.76298 86.5295 2.3125 87.6444 1.33191 89.0817C0.351322 90.519 -0.109003 92.2049 0.0169625 93.8976C0.142928 95.5904 0.848712 97.2029 2.03309 98.504C3.21746 99.8052 4.81957 100.728 6.60965 101.14C8.39973 101.552 10.2858 101.433 11.9974 100.798C17.9392 106.629 43.6991 130.535 54.3635 121.194C63.3275 113.343 76.2636 82.9148 79.3775 72.4072C79.8764 70.727 79.7823 68.9446 79.1089 67.3166C78.4354 65.6887 77.2174 64.2993 75.6302 63.3486Z" fill="#FFB6B6"/>
<path d="M44.8081 122.842L49.9881 144.369L87.8657 147.519L91.3467 128.775L44.8081 122.842Z" fill="#FFB6B6"/>
<path d="M102.667 178.044C102.649 178.352 102.629 178.658 102.604 178.966C102.241 183.427 101.826 188.571 101.376 194.208C100.667 203.154 99.8743 213.341 99.075 223.999H19.6265L35.0347 181.417C35.0347 181.417 41.2562 178.268 38.0887 172.977C34.9213 167.687 41.1537 171.903 41.2116 164.347C41.2696 156.791 46.8544 148.753 46.8544 148.753L47.7714 137.313L48.2938 137.322L89.6392 137.955L90.3935 137.968L91.6634 147.789C99.3738 156.225 103.307 167.04 102.667 178.044Z" fill="#075765"/>
<path d="M68.4486 52.9163L87.302 52.0233L96.059 64.7455C96.059 64.7455 112.535 67.2782 111.393 85.1293C110.251 102.98 91.3464 118.645 91.3464 118.645L92.1546 116.098L90.7511 119.785L90.931 121.855L92.8457 124.048L93.0428 126.315L91.3465 129.903C91.567 130.228 91.6841 130.603 91.6844 130.987C91.6846 131.37 91.5681 131.745 91.348 132.071C91.1279 132.396 90.813 132.658 90.439 132.827C90.0651 132.997 89.6471 133.066 89.2324 133.028L61.9905 130.518C61.3703 128.949 60.8727 127.072 58.3866 130.197L55.8203 129.968L45.1525 129.018L44.5246 126.915C44.1678 125.72 44.1122 124.466 44.362 123.248C44.6119 122.03 45.1605 120.881 45.9662 119.888C45.0396 117.22 45.2823 114.325 46.6426 111.819L46.6936 111.725L47.8265 110.857C47.8265 110.857 35.4325 93.737 49.6604 80.8425L55.3708 71.9169L61.7603 64.7496L68.4486 52.9163Z" fill="#FFFFF0"/>
<path d="M73.141 45.4063C83.0149 45.4063 91.0193 38.0469 91.0193 28.9685C91.0193 19.8901 83.0149 12.5306 73.141 12.5306C63.2671 12.5306 55.2627 19.8901 55.2627 28.9685C55.2627 38.0469 63.2671 45.4063 73.141 45.4063Z" fill="#FFB6B6"/>
<path d="M86.7199 52.6484C85.264 51.5299 84.2507 50.0006 83.8373 48.2982C83.5067 50.3652 83.593 52.4706 84.0921 54.5089C83.124 55.1782 82.185 55.814 81.2969 56.3896C80.6245 54.8 79.7024 53.3095 78.5599 51.9657C78.4508 54.0806 78.3488 56.2022 78.2469 58.3171C77.1126 59.0237 75.9172 59.6437 74.6729 60.171L75.2042 59.5887C79.0185 54.422 69.148 44.9117 72.9622 39.7516C74.0323 38.3059 69.1989 26.8815 65.5157 26.3662C62.24 25.9111 62.3783 26.7811 59.2046 27.417C58.875 26.1532 58.3634 24.9355 57.6833 23.7962C57.8643 25.0657 57.8225 26.3537 57.5595 27.611C56.4313 27.6512 55.5436 26.9902 54.3422 26.8213C46.6772 25.7438 47.456 18.1208 49.5888 15.7047C51.7289 13.2954 58.8334 12.5726 62.109 11.7895C62.4075 11.5218 63.0844 11.6891 63.3829 11.4348C69.6604 6.15258 78.0563 5.2778 85.6117 7.619C93.669 10.1157 98.6926 14.948 101.271 22.3974L102.01 28.3589C102.674 30.2757 101.839 39.1945 101.271 41.137C99.0617 48.6877 94.3567 44.9183 86.7199 52.6484Z" fill="#075765"/>
<path d="M112.788 130.527L112.084 80.1261C112.047 77.9908 111.099 75.9545 109.444 74.4565C107.789 72.9584 105.559 72.1188 103.236 72.1188C102.035 72.1188 100.846 72.3438 99.742 72.7801C98.6381 73.2163 97.6424 73.8547 96.8156 74.6563C95.9888 75.458 95.3483 76.406 94.933 77.4427C94.5177 78.4793 94.3364 79.5829 94.4001 80.6861L96.8768 133.019L96.9239 164.877C95.4641 165.447 94.2303 166.415 93.3901 167.652C92.5499 168.888 92.144 170.332 92.2275 171.788C92.3111 173.244 92.8801 174.641 93.8572 175.789C94.8343 176.937 96.1721 177.781 97.6889 178.205C99.2057 178.63 100.828 178.615 102.335 178.163C103.843 177.71 105.162 176.842 106.114 175.676C107.066 174.51 107.604 173.103 107.656 171.646C107.708 170.189 107.271 168.753 106.404 167.532L112.788 130.527Z" fill="#FFB6B6"/>
<path d="M205.06 195.733C205.06 195.733 203.971 213.734 203.471 224H165.995C165.224 214.657 164.964 207.793 164.964 207.793L162.914 224H125.033L122.685 193.985L134.033 168.12C134.033 168.12 195.536 164.198 201.241 169.173C206.942 174.144 205.06 195.733 205.06 195.733Z" fill="#075765"/>
<path d="M171.92 44.3102C183.226 44.3102 192.391 35.8837 192.391 25.4891C192.391 15.0945 183.226 6.66795 171.92 6.66795C160.615 6.66795 151.45 15.0945 151.45 25.4891C151.45 35.8837 160.615 44.3102 171.92 44.3102Z" fill="#FFB6B6"/>
<path d="M195.781 19.3732C193.678 20.2546 192.316 26.6389 190.663 25.1547C189.011 23.6705 189.121 21.739 186.893 21.1913C185.094 20.7471 183.157 21.2547 181.516 22.0554C181.223 22.1967 180.939 22.3503 180.662 22.5031C180.479 22.3908 180.297 22.2852 180.102 22.1877C178.634 21.4654 176.921 21.2882 175.315 21.6926C176.584 22.0834 177.687 22.831 178.468 23.8298C177.919 24.1682 177.363 24.5075 176.794 24.8082C172.039 27.3307 165.274 21.8456 160.27 19.7849C163.405 25.1932 161.861 27.433 159.14 33.0263L159.046 33.3448C159.2 31.943 154.482 30.8982 154.756 32.8716C154.95 34.2727 156.269 37.387 157.007 38.624C151.746 33.0305 148.15 26.1855 148.909 19.1244C149.074 17.641 149.024 16.076 149.857 14.7885C150.69 13.5077 152.426 12.6089 153.963 13.0973C153.833 10.8454 154.368 8.60322 155.514 6.60903C156.659 4.61484 158.37 2.94321 160.466 1.77188C162.562 0.600551 164.964 -0.0267093 167.416 -0.0432142C169.869 -0.0597192 172.281 0.535152 174.395 1.67815C176.359 2.73806 178 4.2371 179.8 5.53015C181.601 6.82319 183.676 7.95029 185.96 8.05703C187.408 8.12126 188.984 7.79613 190.229 8.48588C191.67 9.28624 191.917 10.9619 192.133 12.5744C190.848 12.6909 189.629 13.1572 188.633 13.9138C189.963 13.789 191.303 14.0531 192.46 14.6685C192.482 14.6777 192.503 14.6886 192.523 14.7013C193.285 17.3661 193.207 17.9568 195.781 19.3732Z" fill="#075765"/>
<path d="M125.124 177.225C142.556 158.465 136.668 134.602 129.749 110.515L131.066 74.9299C131.131 73.1843 131.651 71.4787 132.583 69.957C133.516 68.4353 134.833 67.1422 136.423 66.1869L154.219 55.4975L161.146 46.2897L180.239 48.0452L190.827 58.34L202.546 66.5661C205.489 68.6315 207.728 71.4275 208.999 74.6242C210.271 77.821 210.521 81.2854 209.722 84.6089L198.507 131.242C198.507 131.242 203.198 155.416 200.336 158.086C197.473 160.756 190.098 158.088 195.947 161.085C202.965 164.681 209.347 164.018 205.795 167.283C202.243 170.549 206.739 175.089 206.739 175.089L125.124 177.225Z" fill="white"/>
<path d="M132.577 204.491L135.483 185.455L123.887 182.411L121.593 202.638C120.633 203.447 119.938 204.486 119.586 205.639C119.233 206.791 119.237 208.011 119.597 209.162C119.958 210.312 120.66 211.347 121.625 212.151C122.59 212.954 123.779 213.495 125.06 213.711C126.341 213.927 127.662 213.81 128.874 213.374C130.086 212.938 131.143 212.199 131.924 211.241C132.705 210.283 133.179 209.144 133.295 207.952C133.41 206.759 133.162 205.561 132.577 204.491Z" fill="#FFB6B6"/>
<path d="M154.654 58.9291C154.654 58.9291 121.646 68.8064 120.859 76.0336C120.072 83.2607 120.333 87.6849 116.85 116.605L117.033 194.507C117.033 194.507 139.163 198.863 136.893 194.205C134.624 189.548 135.416 187.356 135.416 187.356C135.416 187.356 140.16 185.635 138.973 180.166C137.785 174.697 143.741 147.596 143.741 147.596L147.5 98.9906L154.654 58.9291Z" fill="#0DBB7E"/>
<path d="M195.353 203.483L193.806 184.313L205.594 181.972L206.445 202.294C207.345 203.159 207.965 204.238 208.234 205.409C208.504 206.58 208.414 207.797 207.972 208.923C207.531 210.05 206.757 211.041 205.737 211.784C204.717 212.528 203.491 212.996 202.198 213.135C200.905 213.273 199.595 213.077 198.416 212.569C197.237 212.061 196.236 211.261 195.525 210.258C194.814 209.255 194.421 208.09 194.39 206.893C194.36 205.696 194.693 204.515 195.353 203.483Z" fill="#FFB6B6"/>
<path d="M183.672 56.9055C183.672 56.9055 215.907 68.7454 216.178 76.0043C216.45 83.2633 215.875 87.6623 217.295 116.73L211.574 194.454C211.574 194.454 189.182 197.471 191.777 192.96C194.373 188.448 193.739 186.214 193.739 186.214C193.739 186.214 189.127 184.211 190.701 178.826C192.275 173.44 188.258 146.038 188.258 146.038L187.962 97.3112L183.672 56.9055Z" fill="#0DBB7E"/>
</g>
<defs>
<clipPath id="clip0_15_445">
<rect width="320" height="224" fill="white"/>
</clipPath>
</defs>
</svg>
