<svg width="320" height="224" viewBox="0 0 320 224" fill="none" xmlns="http://www.w3.org/2000/svg">
<g clip-path="url(#clip0_12_1993)">
<path d="M289.769 33.2363C289.72 40.1524 289.312 47.0573 288.547 53.9082C288.521 54.1488 288.492 54.3894 288.465 54.63L236.307 54.2681C236.154 54.0291 236.004 53.7873 235.857 53.5426C235.371 52.7328 234.914 51.9 234.495 51.0384C232.481 46.8878 231.56 42.0282 232.483 38.6754L232.5 38.6233C232.699 37.8891 233.014 37.2111 233.425 36.6281C235.531 33.6838 239.79 34.1746 243.654 36.5511C240.188 31.8392 237.428 25.8936 237.218 20.5864C237.013 15.4098 239.192 11.7118 241.556 8.56912C241.634 8.46523 241.712 8.36423 241.789 8.26324C241.827 8.21129 241.867 8.16223 241.904 8.11028C243.749 5.71535 245.899 3.35444 249.012 3.64003C252.426 3.9538 256.211 7.50463 258.864 11.6423C261.518 15.7771 263.282 20.4742 265.069 25.0584C266.859 29.6398 268.796 34.3381 271.668 38.254C267.778 32.1438 264.641 25.1918 263.483 18.4305C262.324 11.6692 263.344 5.17539 266.811 1.99107C267.863 1.05414 269.081 0.443886 270.362 0.211368C270.512 0.1805 270.664 0.155439 270.818 0.133301C274.028 -0.320166 277.86 1.05822 281.12 4.35304C284.71 7.98087 287.2 13.359 288.438 18.4644C289.677 23.5699 289.809 28.4849 289.769 33.2363Z" fill="#F2F2F2"/>
<path d="M255.644 54.4022L254.647 54.3953C254.33 54.1495 254.012 53.9065 253.692 53.6664C253.495 53.5113 253.294 53.3619 253.094 53.2097C249.786 50.7007 246.457 48.294 243.107 45.9897C239.761 43.6835 236.397 41.4835 233.017 39.3898C232.928 39.3414 232.855 39.2555 232.811 39.1471C232.767 39.0386 232.755 38.9145 232.777 38.7964C232.781 38.7809 232.786 38.7662 232.794 38.753C232.841 38.6431 232.946 38.5974 233.1 38.6913C233.515 38.9494 233.932 39.2076 234.346 39.4715C237.736 41.6011 241.11 43.8369 244.471 46.179C247.829 48.5201 251.168 50.9646 254.487 53.5124C254.557 53.5651 254.627 53.6206 254.697 53.6733C255.013 53.9163 255.328 54.1593 255.644 54.4022Z" fill="white"/>
<path d="M268.504 54.4915L267.887 54.4872C267.748 54.2455 267.611 54.0037 267.472 53.762C264.204 48.071 260.937 42.38 257.67 36.689C252.32 27.3719 246.972 18.0549 241.626 8.73786C241.594 8.6877 241.57 8.6304 241.556 8.56911C241.511 8.36282 241.633 8.24183 241.789 8.26322C241.855 8.27492 241.918 8.30394 241.974 8.34835C242.031 8.39276 242.078 8.45154 242.115 8.52077C245.114 13.7458 248.113 18.9688 251.111 24.19C256.432 33.4604 261.753 42.7299 267.074 51.9984C267.412 52.5867 267.751 53.1779 268.089 53.7663C268.228 54.008 268.367 54.2498 268.504 54.4915Z" fill="white"/>
<path d="M282.243 50.044C282.212 51.3347 282.143 52.6048 282.053 53.8632C282.036 54.1038 282.018 54.3445 282.001 54.5851L281.354 54.5806C281.374 54.34 281.393 54.0993 281.411 53.8587C281.548 52.0408 281.645 50.2023 281.658 48.3139C281.675 43.0784 281.264 37.8542 280.431 32.7218C279.546 27.1956 278.276 21.7755 276.633 16.523C274.91 10.9833 272.832 5.62384 270.419 0.496049C270.374 0.412476 270.354 0.311662 270.362 0.211381C270.389 -0.0176144 270.635 -0.0855199 270.818 0.133307C270.854 0.176241 270.886 0.225282 270.911 0.278992C271.209 0.916356 271.502 1.55563 271.79 2.19679C274.114 7.35305 276.102 12.7311 277.738 18.28C279.295 23.5497 280.48 28.9779 281.278 34.5031C282.026 39.6289 282.35 44.8364 282.243 50.044Z" fill="white"/>
<path d="M86.1333 98.7782C86.0844 105.694 85.6765 112.599 84.912 119.45C84.8852 119.691 84.8561 119.931 84.8292 120.172L32.6719 119.81C32.5188 119.571 32.368 119.329 32.222 119.085C31.735 118.275 31.2787 117.442 30.8597 116.58C28.846 112.43 27.9241 107.57 28.8479 104.217L28.8645 104.165C29.0639 103.431 29.3781 102.753 29.7891 102.17C31.8955 99.2257 36.1542 99.7165 40.019 102.093C36.5525 97.3812 33.7924 91.4355 33.5826 86.1283C33.377 80.9517 35.5568 77.2537 37.921 74.111C37.9986 74.0072 38.0761 73.9062 38.1537 73.8052C38.1913 73.7532 38.2312 73.7042 38.2688 73.6522C40.1133 71.2573 42.2638 68.8964 45.3765 69.182C48.7903 69.4957 52.5751 73.0466 55.2289 77.1842C57.8827 81.319 59.6462 86.0162 61.4338 90.6004C63.2236 95.1817 65.16 99.8801 68.0321 103.796C64.1421 97.6857 61.0057 90.7338 59.8471 83.9724C58.6885 77.2111 59.7081 70.7173 63.1751 67.533C64.2276 66.5961 65.4455 65.9858 66.7269 65.7533C66.8765 65.7224 67.0284 65.6974 67.1827 65.6752C70.3922 65.2218 74.2241 66.6002 77.4844 69.895C81.0749 73.5228 83.5642 78.9009 84.8028 84.0064C86.0413 89.1118 86.1733 94.0268 86.1333 98.7782Z" fill="#F2F2F2"/>
<path d="M52.0088 119.944L51.0114 119.937C50.6947 119.691 50.3766 119.448 50.0569 119.208C49.859 119.053 49.6588 118.904 49.4585 118.752C46.1503 116.243 42.8214 113.836 39.4718 111.532C36.1253 109.225 32.7619 107.025 29.3818 104.932C29.2922 104.883 29.2191 104.797 29.1752 104.689C29.1313 104.581 29.1193 104.456 29.1415 104.338C29.1451 104.323 29.1507 104.308 29.1581 104.295C29.2052 104.185 29.3106 104.139 29.4644 104.233C29.879 104.491 30.296 104.75 30.7106 105.013C34.1 107.143 37.4749 109.379 40.8352 111.721C44.1932 114.062 47.5321 116.507 50.8518 119.054C50.9216 119.107 50.9915 119.163 51.0613 119.215C51.3779 119.458 51.6922 119.701 52.0088 119.944Z" fill="white"/>
<path d="M64.8683 120.033L64.2516 120.029C64.1125 119.787 63.9758 119.546 63.8367 119.304C60.5686 113.613 57.3012 107.922 54.0344 102.231C48.6848 92.9139 43.3367 83.5968 37.9902 74.2798C37.9585 74.2296 37.935 74.1723 37.9208 74.111C37.8751 73.9048 37.9972 73.7838 38.1535 73.8052C38.2195 73.8169 38.2826 73.8459 38.3388 73.8903C38.395 73.9347 38.443 73.9935 38.4794 74.0627C41.4787 79.2877 44.4773 84.5108 47.4751 89.7319C52.7969 99.0023 58.118 108.272 63.4383 117.54C63.7767 118.129 64.115 118.72 64.4534 119.308C64.5925 119.55 64.7316 119.792 64.8683 120.033Z" fill="white"/>
<path d="M78.6078 115.586C78.5764 116.877 78.5076 118.147 78.4177 119.405C78.4003 119.646 78.3829 119.886 78.3654 120.127L77.7184 120.123C77.7382 119.882 77.758 119.641 77.7753 119.401C77.9121 117.583 78.0091 115.744 78.0223 113.856C78.0395 108.62 77.6286 103.396 76.796 98.2638C75.9109 92.7375 74.6401 87.3175 72.998 82.065C71.2744 76.5252 69.1964 71.1658 66.7839 66.038C66.7384 65.9544 66.7182 65.8536 66.7268 65.7533C66.7535 65.5243 66.999 65.4564 67.1826 65.6752C67.2188 65.7182 67.2501 65.7672 67.2754 65.8209C67.5738 66.4583 67.8669 67.0976 68.1545 67.7387C70.4781 72.895 72.4669 78.2731 74.1021 83.8219C75.6596 89.0916 76.8443 94.5199 77.6429 100.045C78.3908 105.171 78.7142 110.378 78.6078 115.586Z" fill="white"/>
<path d="M111.937 147.781C111.442 147.782 110.955 147.617 110.529 147.304C110.103 146.991 109.752 146.541 109.514 146.002L106.722 139.67C106.371 138.874 106.29 137.937 106.495 137.066C106.7 136.194 107.175 135.46 107.816 135.023L150.314 106.124C150.956 105.689 151.71 105.588 152.411 105.843C153.113 106.097 153.705 106.687 154.057 107.483L156.849 113.815C157.199 114.612 157.281 115.548 157.076 116.42C156.87 117.291 156.395 118.025 155.755 118.462L113.257 147.361C112.852 147.637 112.398 147.781 111.937 147.781Z" fill="#0DBB7E"/>
<path d="M171.071 114.3C170.784 114.3 170.499 114.245 170.226 114.136C169.881 114 169.561 113.781 169.284 113.491C169.008 113.201 168.78 112.845 168.615 112.445L165.951 106.028C165.617 105.221 165.554 104.282 165.776 103.418C165.999 102.553 166.489 101.833 167.138 101.416L210.204 73.8441C210.854 73.429 211.61 73.3511 212.306 73.6275C213.002 73.9039 213.582 74.512 213.918 75.3184L216.582 81.7347C216.916 82.5419 216.979 83.4809 216.756 84.3456C216.534 85.2102 216.044 85.9299 215.394 86.3467L172.329 113.919C171.94 114.169 171.509 114.3 171.071 114.3Z" fill="#0DBB7E"/>
<path d="M170.294 115.853C169.782 115.853 169.28 115.676 168.844 115.342C168.407 115.008 168.055 114.53 167.824 113.962L165.216 107.51C164.922 106.783 164.846 105.948 165.003 105.158C165.02 105.07 165.04 104.983 165.063 104.896C165.116 104.699 165.173 104.392 165.239 104.036C165.451 102.901 165.714 101.489 166.25 101.155L185.173 86.9115C185.497 86.7066 185.85 86.5832 186.212 86.5485C186.574 86.5137 186.939 86.5683 187.284 86.7091C187.629 86.8498 187.949 87.074 188.224 87.3686C188.499 87.6633 188.725 88.0226 188.888 88.426L193.661 100.644C193.987 101.455 194.041 102.394 193.811 103.255C193.581 104.116 193.085 104.829 192.433 105.237L171.509 115.495C171.132 115.73 170.716 115.853 170.294 115.853Z" fill="#075765"/>
<path d="M161.651 83.2092C173.294 83.2092 182.731 71.4893 182.731 57.032C182.731 42.5747 173.294 30.8548 161.651 30.8548C150.009 30.8548 140.571 42.5747 140.571 57.032C140.571 71.4893 150.009 83.2092 161.651 83.2092Z" fill="#0DBB7E"/>
<path d="M158.33 223.257H152.516C151.785 223.256 151.085 222.895 150.568 222.253C150.051 221.611 149.76 220.741 149.759 219.833V159.665C149.76 158.757 150.051 157.887 150.568 157.245C151.085 156.603 151.785 156.242 152.516 156.241H158.33C159.061 156.242 159.762 156.603 160.278 157.245C160.795 157.887 161.086 158.757 161.087 159.665V219.833C161.086 220.741 160.795 221.611 160.278 222.253C159.762 222.895 159.061 223.256 158.33 223.257Z" fill="#0DBB7E"/>
<path d="M183.378 195.776C182.939 195.777 182.505 195.648 182.115 195.399C181.724 195.15 181.387 194.789 181.131 194.345L152.95 145.401C152.525 144.662 152.354 143.744 152.474 142.848C152.594 141.953 152.995 141.153 153.589 140.624L158.318 136.425C158.913 135.898 159.652 135.686 160.373 135.834C161.095 135.983 161.739 136.481 162.164 137.219L190.346 186.163C190.77 186.902 190.941 187.82 190.822 188.716C190.702 189.611 190.301 190.411 189.707 190.94L184.978 195.139C184.511 195.554 183.952 195.777 183.378 195.776Z" fill="#0DBB7E"/>
<path d="M175.901 223.326C175.322 223.314 174.752 223.137 174.236 222.809L169.032 219.592C167.671 218.75 166.921 217.174 167.36 216.079L180.773 182.624C181.212 181.528 182.677 181.321 184.038 182.163L189.242 185.38C189.849 185.737 190.365 186.294 190.734 186.991C190.894 187.261 190.995 187.579 191.027 187.912C191.058 188.246 191.019 188.584 190.914 188.893L177.501 222.348C177.244 222.99 176.635 223.326 175.901 223.326Z" fill="#0DBB7E"/>
<path d="M142.046 129.959C141.523 129.958 141.012 129.772 140.57 129.424C140.129 129.076 139.776 128.58 139.552 127.993L134.764 115.791C134.609 115.384 134.521 114.944 134.503 114.494C134.486 114.045 134.54 113.596 134.663 113.172C134.785 112.749 134.974 112.36 135.218 112.027C135.461 111.694 135.756 111.424 136.083 111.233L156.82 101.532C157.348 101.221 158.405 101.838 159.254 102.332C159.521 102.487 159.751 102.621 159.908 102.691C159.977 102.722 160.045 102.756 160.111 102.793C160.709 103.129 161.19 103.718 161.469 104.455L163.945 110.987C164.255 111.808 164.291 112.75 164.043 113.604C163.795 114.458 163.285 115.155 162.624 115.543L143.236 129.623C142.865 129.843 142.458 129.958 142.046 129.959Z" fill="#075765"/>
<path d="M158.845 66.7341L158.823 65.7559C160.289 65.7053 161.581 65.5911 162.552 64.7103C162.827 64.4464 163.053 64.112 163.215 63.7298C163.377 63.3476 163.47 62.9266 163.49 62.4954C163.507 62.232 163.475 61.9672 163.396 61.7216C163.317 61.4761 163.194 61.2564 163.036 61.0797C162.391 60.4038 161.354 60.6225 160.598 61.0529L159.946 61.424L161.196 50.0812L161.977 50.214L160.914 59.8626C161.941 59.4876 162.892 59.6491 163.544 60.3326C163.794 60.6039 163.991 60.9434 164.118 61.3246C164.245 61.7057 164.299 62.1182 164.277 62.5298C164.254 63.1091 164.129 63.6752 163.911 64.1883C163.694 64.7015 163.388 65.1493 163.016 65.5004C161.769 66.6324 160.148 66.6888 158.845 66.7341Z" fill="#2F2E41"/>
<path d="M170.079 51.046H165.836V52.0243H170.079V51.046Z" fill="#2F2E41"/>
<path d="M156.687 51.046H152.445V52.0243H156.687V51.046Z" fill="#2F2E41"/>
<path d="M195.437 167.018H129.863C129.413 167.02 128.971 166.874 128.581 166.596C128.19 166.317 127.866 165.915 127.641 165.431C127.416 164.947 127.298 164.398 127.299 163.839C127.3 163.28 127.42 162.732 127.646 162.249L160.433 91.7291C160.655 91.2436 160.978 90.8404 161.368 90.5611C161.758 90.2817 162.2 90.1362 162.65 90.1395C163.1 90.1362 163.543 90.2817 163.932 90.5611C164.322 90.8404 164.645 91.2436 164.867 91.7291L197.654 162.249C197.879 162.732 197.997 163.28 197.997 163.838C197.997 164.396 197.879 164.945 197.654 165.428C197.429 165.911 197.106 166.313 196.717 166.592C196.328 166.871 195.886 167.018 195.437 167.018Z" fill="#075765"/>
<path d="M236.521 224H86.4532C86.3487 224 86.2486 223.948 86.1747 223.857C86.1008 223.765 86.0593 223.641 86.0593 223.511C86.0593 223.381 86.1008 223.257 86.1747 223.165C86.2486 223.073 86.3487 223.022 86.4532 223.022H236.521C236.626 223.022 236.726 223.073 236.8 223.165C236.874 223.257 236.915 223.381 236.915 223.511C236.915 223.641 236.874 223.765 236.8 223.857C236.726 223.948 236.626 224 236.521 224Z" fill="#3F3D56"/>
<path d="M163.244 30.5326C160.907 18.8968 151.846 9.96266 142.137 10.1849C137.33 10.3524 132.695 12.4395 128.919 16.1366C127.015 17.9763 125.377 20.2031 124.072 22.7223C122.608 25.5583 121.69 28.7595 120.972 31.9907C119.523 38.5193 118.84 45.907 115.162 51.2386C113.636 53.3968 111.756 55.1233 109.647 56.3014C107.538 57.4794 105.25 58.0816 102.938 58.0672C100.609 58.0222 98.3189 57.3079 96.2487 55.9805C94.1785 54.653 92.3839 52.7484 91.0055 50.4158C88.2368 45.8319 86.8737 39.4924 88.4732 33.9602C89.2581 31.2454 90.9459 28.681 93.3598 28.2285C94.4607 28.0434 95.5811 28.2622 96.5832 28.8578C97.5852 29.4534 98.4251 30.3998 98.9995 31.5806C100.085 33.946 99.7379 37.1022 98.3779 39.1886C96.9454 41.3862 94.5515 41.9946 92.4401 41.1117C91.4478 40.6928 90.5751 39.924 89.9289 38.8993C89.4567 38.1589 88.6199 39.1969 89.0872 39.9297C89.836 41.045 90.803 41.9028 91.8953 42.4211C92.9877 42.9394 94.1689 43.1007 95.3259 42.8896C96.4804 42.6727 97.5647 42.0663 98.4608 41.1366C99.3568 40.2068 100.03 38.9894 100.407 37.6171C100.82 36.2565 100.929 34.7821 100.721 33.351C100.513 31.9199 99.9961 30.5857 99.2258 29.4904C98.4231 28.4065 97.4099 27.5966 96.2831 27.1382C95.1563 26.6798 93.9535 26.5882 92.79 26.8721C90.2975 27.5274 88.4874 30.0731 87.548 32.8939C86.6224 35.8245 86.3782 39.019 86.8432 42.1135C87.2724 45.0996 88.2032 47.94 89.575 50.4497C90.9468 52.9595 92.7289 55.0823 94.8053 56.68C99.0074 59.8841 104.252 60.3249 108.862 58.2668C111.166 57.255 113.269 55.6463 115.034 53.5476C116.93 51.159 118.381 48.283 119.285 45.1224C121.363 38.3646 121.668 30.8027 124.609 24.4505C127.174 19.0569 131.22 14.9936 136.004 13.0072C140.76 10.9667 145.966 11.277 150.543 13.8739C155.093 16.4911 158.759 21.0107 160.899 26.6431C161.409 28.0155 161.812 29.4451 162.103 30.9125C162.287 31.8304 163.429 31.4496 163.244 30.5326Z" fill="#2F2E41"/>
<path d="M308.252 122.752H215.691C213.915 122.75 212.213 121.873 210.958 120.314C209.703 118.755 208.997 116.642 208.995 114.437V62.5907C208.997 60.3862 209.703 58.2727 210.958 56.7139C212.213 55.1551 213.915 54.2782 215.691 54.2757H308.252C310.027 54.2782 311.729 55.1551 312.985 56.7139C314.24 58.2727 314.946 60.3862 314.948 62.5907V114.437C314.946 116.642 314.24 118.755 312.985 120.314C311.729 121.873 310.027 122.75 308.252 122.752ZM215.691 55.254C214.124 55.2562 212.622 56.0299 211.515 57.4053C210.407 58.7807 209.784 60.6456 209.782 62.5907V114.437C209.784 116.383 210.407 118.247 211.515 119.623C212.622 120.998 214.124 121.772 215.691 121.774H308.252C309.819 121.772 311.32 120.998 312.428 119.623C313.536 118.247 314.159 116.383 314.16 114.437V62.5907C314.159 60.6456 313.536 58.7807 312.428 57.4053C311.32 56.0299 309.819 55.2562 308.252 55.254H215.691Z" fill="#3F3D56"/>
<path d="M234.353 89.4299C239.084 89.4299 242.919 84.6674 242.919 78.7926C242.919 72.9177 239.084 68.1552 234.353 68.1552C229.622 68.1552 225.787 72.9177 225.787 78.7926C225.787 84.6674 229.622 89.4299 234.353 89.4299Z" fill="#CCCCCC"/>
<path d="M252.955 71.7011C252.581 71.7088 252.224 71.899 251.961 72.2306C251.698 72.5622 251.551 73.0087 251.551 73.4739C251.551 73.939 251.698 74.3855 251.961 74.7172C252.224 75.0488 252.581 75.239 252.955 75.2467H296.628C297.006 75.2532 297.37 75.0733 297.642 74.7464C297.913 74.4195 298.069 73.9723 298.075 73.5029C298.081 73.0335 297.937 72.5802 297.675 72.2424C297.412 71.9047 297.053 71.71 296.675 71.7011C296.659 71.7008 296.643 71.7008 296.628 71.7011H252.955Z" fill="#CCCCCC"/>
<path d="M252.955 82.3384C252.581 82.3462 252.224 82.5363 251.961 82.868C251.698 83.1996 251.551 83.6461 251.551 84.1112C251.551 84.5764 251.698 85.0229 251.961 85.3545C252.224 85.6861 252.581 85.8763 252.955 85.884H296.628C297.006 85.8906 297.37 85.7106 297.642 85.3837C297.913 85.0569 298.069 84.6097 298.075 84.1403C298.081 83.6709 297.937 83.2176 297.675 82.8798C297.412 82.542 297.053 82.3473 296.675 82.3384C296.659 82.3381 296.643 82.3381 296.628 82.3384H252.955Z" fill="#CCCCCC"/>
<path d="M227.114 94.6897C226.739 94.6974 226.382 94.8876 226.119 95.2192C225.857 95.5508 225.709 95.9973 225.709 96.4625C225.709 96.9276 225.857 97.3741 226.119 97.7058C226.382 98.0374 226.739 98.2276 227.114 98.2353H296.782C296.97 98.2397 297.157 98.1981 297.331 98.1128C297.506 98.0275 297.666 97.9002 297.801 97.7383C297.936 97.5763 298.044 97.3828 298.119 97.1689C298.194 96.955 298.234 96.7248 298.237 96.4917C298.24 96.2585 298.206 96.0268 298.137 95.81C298.068 95.5931 297.965 95.3953 297.834 95.2279C297.703 95.0606 297.547 94.9268 297.375 94.8345C297.202 94.7421 297.017 94.6929 296.829 94.6897C296.813 94.6893 296.798 94.6893 296.782 94.6897H227.114Z" fill="#CCCCCC"/>
<path d="M227.114 105.327C226.739 105.335 226.382 105.525 226.119 105.857C225.857 106.188 225.709 106.635 225.709 107.1C225.709 107.565 225.857 108.011 226.119 108.343C226.382 108.675 226.739 108.865 227.114 108.873H296.782C296.97 108.877 297.157 108.835 297.331 108.75C297.506 108.665 297.666 108.538 297.801 108.376C297.936 108.214 298.044 108.02 298.119 107.806C298.194 107.592 298.234 107.362 298.237 107.129C298.24 106.896 298.206 106.664 298.137 106.447C298.068 106.23 297.965 106.033 297.834 105.865C297.703 105.698 297.547 105.564 297.375 105.472C297.202 105.379 297.017 105.33 296.829 105.327C296.813 105.327 296.798 105.327 296.782 105.327H227.114Z" fill="#CCCCCC"/>
<path d="M312.234 109.85C322.589 110.07 322.588 129.197 312.234 129.415C301.879 129.196 301.881 110.068 312.234 109.85Z" fill="#0DA1BB"/>
<path d="M312.234 124.959C312.088 124.959 311.947 124.887 311.843 124.758C311.739 124.629 311.681 124.454 311.681 124.272V120.627C311.681 120.546 311.655 120.468 311.608 120.41C311.562 120.353 311.5 120.32 311.434 120.32H308.499C308.352 120.32 308.211 120.248 308.107 120.119C308.003 119.99 307.945 119.815 307.945 119.633C307.945 119.45 308.003 119.275 308.107 119.147C308.211 119.018 308.352 118.945 308.499 118.945H311.434C311.5 118.945 311.562 118.913 311.608 118.855C311.655 118.798 311.681 118.72 311.681 118.639V114.994C311.681 114.811 311.739 114.636 311.843 114.507C311.947 114.379 312.088 114.306 312.234 114.306C312.381 114.306 312.522 114.379 312.626 114.507C312.73 114.636 312.788 114.811 312.788 114.994V118.639C312.788 118.72 312.814 118.798 312.86 118.855C312.907 118.913 312.969 118.945 313.035 118.945H315.97C316.117 118.945 316.258 119.018 316.362 119.147C316.465 119.275 316.524 119.45 316.524 119.633C316.524 119.815 316.465 119.99 316.362 120.119C316.258 120.248 316.117 120.32 315.97 120.32H313.035C312.969 120.32 312.907 120.353 312.86 120.41C312.814 120.468 312.788 120.546 312.788 120.627V124.272C312.788 124.454 312.729 124.629 312.626 124.758C312.522 124.887 312.381 124.959 312.234 124.959Z" fill="white"/>
<path d="M104.617 188.294H12.0551C10.2798 188.292 8.57783 187.415 7.32253 185.856C6.06723 184.297 5.36113 182.184 5.35913 179.979V128.133C5.36113 125.928 6.06723 123.815 7.32253 122.256C8.57784 120.697 10.2798 119.82 12.0551 119.818H104.617C106.392 119.82 108.094 120.697 109.349 122.256C110.605 123.815 111.311 125.928 111.313 128.133V179.979C111.311 182.184 110.605 184.297 109.349 185.856C108.094 187.415 106.392 188.292 104.617 188.294ZM12.0551 120.796C10.4887 120.798 8.98693 121.572 7.87931 122.947C6.7717 124.323 6.14866 126.188 6.14689 128.133V179.979C6.14866 181.924 6.7717 183.789 7.87931 185.165C8.98693 186.54 10.4887 187.314 12.0551 187.316H104.617C106.183 187.314 107.685 186.54 108.792 185.165C109.9 183.789 110.523 181.924 110.525 179.979V128.133C110.523 126.188 109.9 124.323 108.792 122.947C107.685 121.572 106.183 120.798 104.617 120.796H12.0551Z" fill="#3F3D56"/>
<path d="M23.4781 141.584C23.1036 141.592 22.7465 141.782 22.4838 142.114C22.2212 142.445 22.074 142.892 22.074 143.357C22.074 143.822 22.2212 144.269 22.4838 144.6C22.7465 144.932 23.1036 145.122 23.4781 145.13H93.1466C93.3344 145.134 93.521 145.093 93.6958 145.007C93.8706 144.922 94.0302 144.795 94.1653 144.633C94.3004 144.471 94.4085 144.277 94.4833 144.063C94.5581 143.849 94.5982 143.619 94.6013 143.386C94.6044 143.153 94.5704 142.921 94.5013 142.704C94.4322 142.488 94.3293 142.29 94.1985 142.122C94.0677 141.955 93.9116 141.821 93.7392 141.729C93.5667 141.637 93.3813 141.587 93.1935 141.584C93.1779 141.584 93.1623 141.584 93.1466 141.584H23.4781Z" fill="#CCCCCC"/>
<path d="M23.4781 152.222C23.1036 152.229 22.7465 152.419 22.4838 152.751C22.2212 153.083 22.074 153.529 22.074 153.994C22.074 154.459 22.2212 154.906 22.4838 155.238C22.7465 155.569 23.1036 155.759 23.4781 155.767H93.1466C93.3344 155.772 93.521 155.73 93.6958 155.645C93.8706 155.559 94.0302 155.432 94.1653 155.27C94.3004 155.108 94.4085 154.915 94.4833 154.701C94.5581 154.487 94.5982 154.257 94.6013 154.024C94.6044 153.79 94.5704 153.559 94.5013 153.342C94.4322 153.125 94.3293 152.927 94.1985 152.76C94.0677 152.592 93.9116 152.459 93.7392 152.366C93.5667 152.274 93.3813 152.225 93.1935 152.222C93.1779 152.221 93.1623 152.221 93.1466 152.222H23.4781Z" fill="#CCCCCC"/>
<path d="M23.4781 162.982C23.1036 162.99 22.7465 163.18 22.4838 163.512C22.2212 163.843 22.074 164.29 22.074 164.755C22.074 165.22 22.2212 165.667 22.4838 165.998C22.7465 166.33 23.1036 166.52 23.4781 166.528H93.1466C93.3344 166.532 93.521 166.491 93.6958 166.405C93.8706 166.32 94.0302 166.193 94.1653 166.031C94.3004 165.869 94.4085 165.675 94.4833 165.461C94.5581 165.247 94.5982 165.017 94.6013 164.784C94.6044 164.551 94.5704 164.319 94.5013 164.102C94.4322 163.886 94.3293 163.688 94.1985 163.52C94.0677 163.353 93.9116 163.219 93.7392 163.127C93.5667 163.035 93.3813 162.985 93.1935 162.982C93.1779 162.982 93.1623 162.982 93.1466 162.982H23.4781Z" fill="#CCCCCC"/>
<path d="M7.76574 175.392C18.1208 175.612 18.1192 194.739 7.76541 194.957C-2.58933 194.738 -2.58772 175.61 7.76574 175.392Z" fill="#0DA1BB"/>
<path d="M7.76589 190.501C7.61912 190.501 7.4784 190.429 7.37462 190.3C7.27083 190.171 7.21245 189.996 7.21227 189.814V186.169C7.21221 186.087 7.1862 186.01 7.13995 185.952C7.0937 185.895 7.03099 185.862 6.96557 185.862H4.03026C3.88341 185.862 3.74257 185.79 3.63873 185.661C3.53489 185.532 3.47656 185.357 3.47656 185.175C3.47656 184.992 3.53489 184.817 3.63873 184.688C3.74257 184.56 3.88341 184.487 4.03026 184.487H6.9656C7.031 184.487 7.0937 184.455 7.13995 184.397C7.1862 184.34 7.21222 184.262 7.21229 184.181V180.536C7.21268 180.354 7.27118 180.179 7.37495 180.051C7.47873 179.922 7.61931 179.85 7.76588 179.85C7.91244 179.85 8.05303 179.922 8.1568 180.051C8.26058 180.179 8.31908 180.354 8.31947 180.536V184.181C8.31954 184.262 8.34555 184.34 8.39181 184.397C8.43806 184.455 8.50077 184.487 8.56617 184.487H11.5015C11.6483 184.487 11.7892 184.56 11.893 184.688C11.9969 184.817 12.0552 184.992 12.0552 185.175C12.0552 185.357 11.9969 185.532 11.893 185.661C11.7892 185.79 11.6483 185.862 11.5015 185.862H8.56617C8.50075 185.862 8.43804 185.895 8.39179 185.952C8.34554 186.01 8.31953 186.087 8.31947 186.169V189.814C8.3193 189.996 8.26092 190.171 8.15715 190.3C8.05337 190.429 7.91266 190.501 7.76589 190.501Z" fill="white"/>
</g>
<defs>
<clipPath id="clip0_12_1993">
<rect width="320" height="224" fill="white"/>
</clipPath>
</defs>
</svg>
