<svg width="36" height="36" viewBox="0 0 36 36" fill="currentColor" xmlns="http://www.w3.org/2000/svg">
<circle cx="18" cy="18" r="18" fill="currentColor"/>
<path d="M12.116 15.866H7.74804V17.798C7.93471 17.5927 8.19604 17.4247 8.53204 17.294C8.86804 17.1633 9.23204 17.098 9.62404 17.098C10.324 17.098 10.9027 17.2567 11.36 17.574C11.8267 17.8913 12.1674 18.302 12.382 18.806C12.5967 19.31 12.704 19.856 12.704 20.444C12.704 21.536 12.396 22.404 11.78 23.048C11.164 23.6827 10.296 24 9.17604 24C8.42937 24 7.78071 23.874 7.23004 23.622C6.67937 23.3607 6.25471 23.0013 5.95604 22.544C5.65737 22.0867 5.49404 21.5593 5.46604 20.962H7.80404C7.86004 21.2513 7.99537 21.494 8.21004 21.69C8.42471 21.8767 8.71871 21.97 9.09204 21.97C9.53071 21.97 9.85737 21.83 10.072 21.55C10.2867 21.27 10.394 20.8967 10.394 20.43C10.394 19.9727 10.282 19.6227 10.058 19.38C9.83404 19.1373 9.50737 19.016 9.07804 19.016C8.76071 19.016 8.49937 19.0953 8.29404 19.254C8.08871 19.4033 7.95337 19.604 7.88804 19.856H5.57804V13.766H12.116V15.866ZM14.0255 18.75C14.0255 17.1447 14.3335 15.88 14.9495 14.956C15.5748 14.032 16.5782 13.57 17.9595 13.57C19.3408 13.57 20.3395 14.032 20.9555 14.956C21.5808 15.88 21.8935 17.1447 21.8935 18.75C21.8935 20.374 21.5808 21.648 20.9555 22.572C20.3395 23.496 19.3408 23.958 17.9595 23.958C16.5782 23.958 15.5748 23.496 14.9495 22.572C14.3335 21.648 14.0255 20.374 14.0255 18.75ZM19.5415 18.75C19.5415 17.8073 19.4388 17.084 19.2335 16.58C19.0282 16.0667 18.6035 15.81 17.9595 15.81C17.3155 15.81 16.8908 16.0667 16.6855 16.58C16.4802 17.084 16.3775 17.8073 16.3775 18.75C16.3775 19.3847 16.4148 19.912 16.4895 20.332C16.5642 20.7427 16.7135 21.0787 16.9375 21.34C17.1708 21.592 17.5115 21.718 17.9595 21.718C18.4075 21.718 18.7435 21.592 18.9675 21.34C19.2008 21.0787 19.3548 20.7427 19.4295 20.332C19.5042 19.912 19.5415 19.3847 19.5415 18.75ZM22.9623 16.356C22.9623 15.6 23.177 15.0167 23.6063 14.606C24.045 14.1953 24.6097 13.99 25.3003 13.99C25.991 13.99 26.551 14.1953 26.9803 14.606C27.4097 15.0167 27.6243 15.6 27.6243 16.356C27.6243 17.112 27.4097 17.6953 26.9803 18.106C26.551 18.5167 25.991 18.722 25.3003 18.722C24.6097 18.722 24.045 18.5167 23.6063 18.106C23.177 17.6953 22.9623 17.112 22.9623 16.356ZM32.4683 14.144L27.0783 24H24.7683L30.1583 14.144H32.4683ZM25.2863 15.39C24.8383 15.39 24.6143 15.712 24.6143 16.356C24.6143 16.9907 24.8383 17.308 25.2863 17.308C25.501 17.308 25.669 17.2287 25.7903 17.07C25.9117 16.9113 25.9723 16.6733 25.9723 16.356C25.9723 15.712 25.7437 15.39 25.2863 15.39ZM29.6263 21.788C29.6263 21.032 29.841 20.4487 30.2703 20.038C30.6997 19.6273 31.2597 19.422 31.9503 19.422C32.641 19.422 33.201 19.6273 33.6303 20.038C34.0597 20.4487 34.2743 21.032 34.2743 21.788C34.2743 22.544 34.0597 23.1273 33.6303 23.538C33.201 23.9487 32.641 24.154 31.9503 24.154C31.2597 24.154 30.6997 23.9487 30.2703 23.538C29.841 23.1273 29.6263 22.544 29.6263 21.788ZM31.9363 20.822C31.7217 20.822 31.5537 20.9013 31.4323 21.06C31.3203 21.2187 31.2643 21.4613 31.2643 21.788C31.2643 22.4227 31.4883 22.74 31.9363 22.74C32.151 22.74 32.319 22.6607 32.4403 22.502C32.5617 22.3433 32.6223 22.1053 32.6223 21.788C32.6223 21.4707 32.5617 21.2327 32.4403 21.074C32.319 20.906 32.151 20.822 31.9363 20.822Z" fill="white"/>
</svg>
