<svg width="320" height="224" viewBox="0 0 320 224" fill="none" xmlns="http://www.w3.org/2000/svg">
<g clip-path="url(#clip0_22_604)">
<path d="M280.415 206.819C290.706 195.607 290.706 177.427 280.415 166.215C270.124 155.002 253.44 155.002 243.149 166.215C232.858 177.427 232.858 195.607 243.149 206.819C253.44 218.032 270.124 218.032 280.415 206.819Z" fill="#0DBB7E"/>
<path d="M261.635 189.158C266.492 187.987 269.557 182.748 268.482 177.456C267.407 172.165 262.599 168.825 257.742 169.996C252.886 171.168 249.821 176.407 250.896 181.698C251.971 186.989 256.779 190.329 261.635 189.158Z" fill="white"/>
<path d="M256.69 180.237C258.308 179.846 259.33 178.1 258.972 176.336C258.614 174.572 257.011 173.459 255.392 173.849C253.773 174.24 252.751 175.986 253.11 177.75C253.468 179.514 255.071 180.627 256.69 180.237Z" fill="#3F3D56"/>
<path d="M260.741 167.107C249.964 167.085 242.399 164.988 242.417 154.349C242.435 143.711 251.186 135.105 261.963 135.127C272.739 135.148 281.461 143.79 281.443 154.428C281.425 165.066 271.518 167.128 260.741 167.107Z" fill="#075765"/>
<path d="M303.083 191.316C299.992 203.001 290.966 211.18 281.551 218.128C280.237 219.098 278.922 220.046 277.606 220.972C277.597 220.976 277.588 220.985 277.579 220.989C277.516 221.034 277.452 221.078 277.393 221.123C277.122 221.313 276.85 221.504 276.581 221.693L276.729 221.765C276.729 221.765 276.874 221.849 276.715 221.779C276.668 221.757 276.618 221.738 276.571 221.716C271.102 219.312 265.535 216.732 261.343 212.229C256.995 207.553 254.454 200.22 256.809 194.077C257.118 193.272 257.509 192.508 257.974 191.798C258.165 191.5 258.371 191.215 258.585 190.935C259.884 189.208 261.581 187.889 263.503 187.114C265.425 186.339 267.501 186.135 269.519 186.524C271.537 186.913 273.423 187.88 274.984 189.327C276.545 190.774 277.724 192.647 278.4 194.755C279.092 187.738 273.781 181.86 268.671 177.523C263.558 173.188 257.749 168.467 256.76 161.489C256.208 157.607 257.447 153.844 259.705 150.824C259.774 150.732 259.844 150.64 259.916 150.551C262.664 147.033 266.529 144.774 270.738 144.225C278.578 143.337 286.193 147.859 291.889 153.798C301.055 163.354 306.597 178.031 303.083 191.316Z" fill="#E6E6E6"/>
<path d="M288.347 176.033C289.852 178.584 291.007 181.36 291.776 184.274C292.427 186.878 292.716 189.574 292.635 192.272C292.425 197.823 290.995 203.238 288.465 208.062C286.559 211.721 284.236 215.103 281.551 218.128C280.237 219.098 278.921 220.046 277.606 220.972C277.597 220.976 277.588 220.985 277.579 220.989C277.516 221.034 277.452 221.078 277.393 221.123C277.122 221.313 276.85 221.504 276.581 221.693C276.581 221.693 276.874 221.849 276.715 221.779C276.668 221.757 276.618 221.738 276.571 221.716C277.061 217.337 276.581 212.893 275.171 208.758C273.76 204.623 271.461 200.916 268.465 197.949C265.462 195.026 261.867 192.919 257.974 191.798C258.165 191.5 258.371 191.215 258.585 190.935C260.088 191.395 261.552 191.998 262.958 192.738C267.983 195.368 272.099 199.691 274.694 205.067C277.023 209.949 278.026 215.454 277.584 220.935C277.808 220.713 278.033 220.486 278.252 220.262C282.408 216.04 286.099 211.193 288.598 205.6C290.765 200.864 291.831 195.619 291.7 190.329C291.496 184.56 289.386 179.216 286.332 174.565C282.984 169.602 279.03 165.161 274.578 161.366C270.092 157.45 265.182 154.148 259.959 151.532C259.842 151.472 259.75 151.365 259.702 151.233C259.655 151.101 259.655 150.955 259.705 150.824C259.739 150.706 259.815 150.608 259.916 150.551C259.968 150.526 260.024 150.515 260.081 150.518C260.137 150.52 260.192 150.537 260.242 150.566C260.887 150.889 261.527 151.217 262.162 151.559C267.453 154.409 272.399 157.963 276.885 162.141C281.219 166.167 285.299 170.766 288.347 176.033Z" fill="white"/>
<path d="M45.1023 223.699C48.7867 223.699 51.7734 222.479 51.7734 220.974C51.7734 219.468 48.7867 218.248 45.1023 218.248C41.4179 218.248 38.4312 219.468 38.4312 220.974C38.4312 222.479 41.4179 223.699 45.1023 223.699Z" fill="#0DBB7E"/>
<path d="M61.113 223.336C64.7974 223.336 67.7842 222.116 67.7842 220.61C67.7842 219.105 64.7974 217.884 61.113 217.884C57.4287 217.884 54.4419 219.105 54.4419 220.61C54.4419 222.116 57.4287 223.336 61.113 223.336Z" fill="#0DBB7E"/>
<path d="M82.3679 177.521C88.672 173.561 92.8576 168.603 91.7167 166.446C90.5759 164.29 84.5405 165.752 78.2364 169.712C71.9323 173.672 67.7466 178.63 68.8875 180.786C70.0284 182.942 76.0638 181.48 82.3679 177.521Z" fill="#0DBB7E"/>
<path d="M76.4499 187.23C78.7811 171.578 69.0255 156.83 54.6602 154.29C40.2948 151.75 26.7596 162.38 24.4285 178.032C22.0973 193.684 31.8529 208.432 46.2182 210.972C60.5836 213.512 74.1187 202.882 76.4499 187.23Z" fill="#0DBB7E"/>
<path d="M46.4365 205.164H38.4312V220.792H46.4365V205.164Z" fill="#0DBB7E"/>
<path d="M62.4472 205.164H54.4419V220.792H62.4472V205.164Z" fill="#0DBB7E"/>
<path d="M51.1061 185.175C56.08 185.175 60.1122 180.782 60.1122 175.362C60.1122 169.943 56.08 165.549 51.1061 165.549C46.1322 165.549 42.1001 169.943 42.1001 175.362C42.1001 180.782 46.1322 185.175 51.1061 185.175Z" fill="white"/>
<path d="M51.1065 178.633C52.7645 178.633 54.1085 177.169 54.1085 175.362C54.1085 173.556 52.7645 172.091 51.1065 172.091C49.4485 172.091 48.1045 173.556 48.1045 175.362C48.1045 177.169 49.4485 178.633 51.1065 178.633Z" fill="#3F3D56"/>
<path d="M24.8778 155.93C22.7501 145.547 29.5516 135.056 40.0694 132.497C50.5871 129.938 60.8383 136.281 62.966 146.663C65.0937 157.046 58.1232 160.875 47.6054 163.434C37.0877 165.993 27.0056 166.313 24.8778 155.93Z" fill="#E6E6E6"/>
<path d="M32.6638 175.46C33.6427 173.212 29.1065 168.634 22.5319 165.237C15.9572 161.839 9.8339 160.908 8.85499 163.157C7.87608 165.406 12.4123 169.983 18.9869 173.381C25.5615 176.778 31.6849 177.709 32.6638 175.46Z" fill="#0DBB7E"/>
<path d="M37.4956 192.989C37.4956 195.799 44.1362 201.348 51.5049 201.348C58.8737 201.348 65.7827 193.437 65.7827 190.627C65.7827 187.816 58.8736 191.172 51.5049 191.172C44.1362 191.172 37.4956 190.179 37.4956 192.989Z" fill="white"/>
<path d="M142.323 223.699C146.007 223.699 148.994 222.479 148.994 220.974C148.994 219.468 146.007 218.248 142.323 218.248C138.639 218.248 135.652 219.468 135.652 220.974C135.652 222.479 138.639 223.699 142.323 223.699Z" fill="#0DBB7E"/>
<path d="M126.312 223.336C129.997 223.336 132.983 222.116 132.983 220.61C132.983 219.105 129.997 217.884 126.312 217.884C122.628 217.884 119.641 219.105 119.641 220.61C119.641 222.116 122.628 223.336 126.312 223.336Z" fill="#0DBB7E"/>
<path d="M118.538 180.786C119.678 178.63 115.493 173.672 109.189 169.712C102.885 165.752 96.8492 164.29 95.7083 166.446C94.5674 168.603 98.7531 173.561 105.057 177.521C111.361 181.48 117.397 182.942 118.538 180.786Z" fill="#0DBB7E"/>
<path d="M136.986 211.342C151.539 211.342 163.337 198.488 163.337 182.631C163.337 166.774 151.539 153.919 136.986 153.919C122.432 153.919 110.635 166.774 110.635 182.631C110.635 198.488 122.432 211.342 136.986 211.342Z" fill="#0DBB7E"/>
<path d="M148.994 205.164H140.989V220.792H148.994V205.164Z" fill="#0DBB7E"/>
<path d="M132.983 205.164H124.978V220.792H132.983V205.164Z" fill="#0DBB7E"/>
<path d="M130.812 185.175C135.786 185.175 139.818 180.782 139.818 175.362C139.818 169.943 135.786 165.549 130.812 165.549C125.838 165.549 121.806 169.943 121.806 175.362C121.806 180.782 125.838 185.175 130.812 185.175Z" fill="white"/>
<path d="M128.642 176.333C129.818 175.053 129.826 172.983 128.659 171.71C127.492 170.438 125.592 170.444 124.416 171.724C123.24 173.005 123.232 175.075 124.399 176.347C125.566 177.62 127.466 177.614 128.642 176.333Z" fill="#3F3D56"/>
<path d="M139.82 163.434C129.302 160.875 122.332 157.046 124.459 146.663C126.587 136.281 136.838 129.938 147.356 132.497C157.874 135.056 164.675 145.547 162.547 155.93C160.42 166.312 150.338 165.993 139.82 163.434Z" fill="#075765"/>
<path d="M164.541 204.517C166.749 203.878 167.025 197.148 165.157 189.485C163.289 181.822 159.985 176.128 157.777 176.767C155.569 177.406 155.294 184.136 157.162 191.799C159.029 199.462 162.333 205.156 164.541 204.517Z" fill="#0DBB7E"/>
<path d="M131.016 191.172C126.179 191.172 121.643 187.817 121.643 190.627C121.643 193.437 126.178 201.348 131.016 201.348C135.854 201.348 140.214 195.799 140.214 192.989C140.214 190.179 135.854 191.172 131.016 191.172Z" fill="white"/>
<path d="M96.9614 135.026H94.6213C92.5249 135.023 90.5152 134.115 89.0328 132.5C87.5505 130.885 86.7167 128.695 86.7144 126.411V124.27C86.7144 118.968 87.6363 114.529 89.4549 111.075C91.6587 107.058 94.2297 103.294 97.1287 99.8408C99.0533 97.732 100.8 95.4386 102.347 92.9883C103.456 91.0847 104.029 88.8682 103.994 86.6133C103.994 81.2946 100.814 78.709 94.2717 78.709C90.6425 78.7537 87.0363 79.3434 83.555 80.4616C82.2124 80.8792 80.7992 80.9515 79.4266 80.6729C78.054 80.3944 76.7595 79.7725 75.6449 78.8563C74.5304 77.9401 73.6262 76.7545 73.0035 75.3929C72.3809 74.0312 72.0568 72.5307 72.0567 71.0094V66.6761C72.049 64.8107 72.5381 62.9828 73.4648 61.4142C74.3914 59.8456 75.7157 58.6035 77.2772 57.8385C83.4256 54.9796 90.0562 53.5583 96.7403 53.6667C103.743 53.6667 110.064 54.9482 115.529 57.4753C121.003 60.0081 125.329 63.5797 128.384 68.0911C131.431 72.5706 133.05 78.0123 132.995 83.5872C132.995 89.5739 131.495 94.7881 128.537 99.085C125.611 103.338 121.416 107.994 116.07 112.925C113.253 115.478 110.583 118.218 108.077 121.13C106.458 123.03 105.314 125.351 104.754 127.87C104.442 129.875 103.488 131.694 102.061 133.004C100.634 134.314 98.8273 135.031 96.9614 135.026Z" fill="#075765"/>
<path d="M95.6603 175.54H95.3517C91.4667 175.538 87.7417 173.854 84.9954 170.86C82.2492 167.866 80.7065 163.806 80.7065 159.573C80.7065 155.34 82.2492 151.28 84.9954 148.286C87.7417 145.292 91.4667 143.608 95.3517 143.605H95.6603C97.5856 143.604 99.4922 144.016 101.271 144.818C103.05 145.62 104.667 146.796 106.029 148.279C107.391 149.761 108.471 151.522 109.208 153.46C109.945 155.398 110.324 157.475 110.324 159.573C110.324 161.671 109.945 163.748 109.208 165.686C108.471 167.624 107.391 169.384 106.029 170.867C104.667 172.35 103.05 173.526 101.271 174.328C99.4922 175.13 97.5856 175.542 95.6603 175.54Z" fill="#075765"/>
<path d="M190.899 224H0.611855C0.449581 224 0.293962 223.93 0.179217 223.805C0.0644719 223.68 0 223.51 0 223.333C0 223.157 0.0644719 222.987 0.179217 222.862C0.293962 222.737 0.449581 222.667 0.611855 222.667H190.899C191.061 222.667 191.217 222.737 191.331 222.862C191.446 222.987 191.511 223.157 191.511 223.333C191.511 223.51 191.446 223.68 191.331 223.805C191.217 223.93 191.061 224 190.899 224Z" fill="#CCCCCC"/>
<path d="M319.388 224H217.82C217.658 224 217.502 223.93 217.388 223.805C217.273 223.68 217.208 223.51 217.208 223.333C217.208 223.157 217.273 222.987 217.388 222.862C217.502 222.737 217.658 222.667 217.82 222.667H319.388C319.55 222.667 319.706 222.737 319.821 222.862C319.936 222.987 320 223.157 320 223.333C320 223.51 319.936 223.68 319.821 223.805C319.706 223.93 319.55 224 319.388 224Z" fill="#CCCCCC"/>
<path d="M256.349 204.527C263.625 204.372 269.486 202.229 269.441 199.74C269.397 197.252 263.463 195.36 256.188 195.515C248.912 195.67 243.051 197.813 243.096 200.302C243.14 202.79 249.074 204.682 256.349 204.527Z" fill="#0DBB7E"/>
<path d="M249.736 99.3333H233.827C233.016 99.3323 232.239 98.9808 231.665 98.3559C231.092 97.731 230.769 96.8837 230.768 96V78.6667C230.769 77.7829 231.092 76.9357 231.665 76.3108C232.239 75.6859 233.016 75.3343 233.827 75.3333H249.736C250.547 75.3343 251.324 75.6859 251.898 76.3108C252.471 76.9357 252.794 77.7829 252.795 78.6667V96C252.794 96.8837 252.471 97.731 251.898 98.3559C251.324 98.9808 250.547 99.3323 249.736 99.3333ZM233.827 76.6667C233.341 76.6672 232.874 76.8781 232.53 77.2531C232.186 77.628 231.992 78.1364 231.992 78.6667V96C231.992 96.5303 232.186 97.0386 232.53 97.4136C232.874 97.7885 233.341 97.9994 233.827 98H249.736C250.222 97.9994 250.689 97.7885 251.033 97.4136C251.377 97.0386 251.571 96.5303 251.571 96V78.6667C251.571 78.1364 251.377 77.628 251.033 77.2531C250.689 76.8781 250.222 76.6672 249.736 76.6667H233.827Z" fill="#F2F2F2"/>
<path d="M257.078 88H241.17C240.359 87.999 239.581 87.6475 239.007 87.0226C238.434 86.3977 238.111 85.5504 238.11 84.6667V67.3333C238.111 66.4496 238.434 65.6023 239.007 64.9774C239.581 64.3525 240.359 64.001 241.17 64H257.078C257.889 64.001 258.667 64.3525 259.24 64.9774C259.814 65.6023 260.136 66.4496 260.137 67.3333V84.6667C260.136 85.5504 259.814 86.3977 259.24 87.0226C258.667 87.6475 257.889 87.999 257.078 88ZM241.17 65.3333C240.683 65.3339 240.216 65.5448 239.872 65.9198C239.528 66.2947 239.335 66.8031 239.334 67.3333V84.6667C239.335 85.1969 239.528 85.7053 239.872 86.0802C240.216 86.4552 240.683 86.6661 241.17 86.6667H257.078C257.565 86.6661 258.031 86.4552 258.375 86.0802C258.719 85.7053 258.913 85.1969 258.913 84.6667V67.3333C258.913 66.8031 258.719 66.2947 258.375 65.9198C258.031 65.5448 257.565 65.3339 257.078 65.3333H241.17Z" fill="#F2F2F2"/>
<path d="M131.648 32.6667H115.739C114.928 32.6657 114.151 32.3141 113.577 31.6892C113.004 31.0643 112.681 30.2171 112.68 29.3333V12C112.681 11.1163 113.004 10.269 113.577 9.64411C114.151 9.01921 114.928 8.66768 115.739 8.66667H131.648C132.459 8.66768 133.236 9.01921 133.81 9.64411C134.383 10.269 134.706 11.1163 134.707 12V29.3333C134.706 30.2171 134.383 31.0643 133.81 31.6892C133.236 32.3141 132.459 32.6657 131.648 32.6667ZM115.739 10C115.253 10.0006 114.786 10.2115 114.442 10.5864C114.098 10.9614 113.904 11.4698 113.904 12V29.3333C113.904 29.8636 114.098 30.372 114.442 30.7469C114.786 31.1219 115.253 31.3328 115.739 31.3333H131.648C132.134 31.3328 132.601 31.1219 132.945 30.7469C133.289 30.372 133.483 29.8636 133.483 29.3333V12C133.483 11.4698 133.289 10.9614 132.945 10.5864C132.601 10.2115 132.134 10.0006 131.648 10H115.739Z" fill="#F2F2F2"/>
<path d="M121.858 24H105.949C105.138 23.999 104.361 23.6475 103.787 23.0226C103.214 22.3977 102.891 21.5504 102.89 20.6667V3.33333C102.891 2.44959 103.214 1.60234 103.787 0.977437C104.361 0.352535 105.138 0.00101103 105.949 0H121.858C122.669 0.00101103 123.446 0.352535 124.02 0.977437C124.593 1.60234 124.916 2.44959 124.917 3.33333V20.6667C124.916 21.5504 124.593 22.3977 124.02 23.0226C123.446 23.6475 122.669 23.999 121.858 24ZM105.949 1.33333C105.463 1.33391 104.996 1.54481 104.652 1.91976C104.308 2.29471 104.114 2.80308 104.114 3.33333V20.6667C104.114 21.1969 104.308 21.7053 104.652 22.0802C104.996 22.4552 105.463 22.6661 105.949 22.6667H121.858C122.344 22.6661 122.811 22.4552 123.155 22.0802C123.499 21.7053 123.693 21.1969 123.693 20.6667V3.33333C123.693 2.80308 123.499 2.29471 123.155 1.91976C122.811 1.54481 122.344 1.33391 121.858 1.33333H105.949Z" fill="#F2F2F2"/>
<path d="M196.54 126.425C198.726 126.425 200.497 124.494 200.497 122.113C200.497 119.732 198.726 117.802 196.54 117.802C194.355 117.802 192.583 119.732 192.583 122.113C192.583 124.494 194.355 126.425 196.54 126.425Z" fill="#F2F2F2"/>
<path d="M37.4583 111.091C39.6435 111.091 41.4151 109.161 41.4151 106.78C41.4151 104.399 39.6435 102.469 37.4583 102.469C35.273 102.469 33.5015 104.399 33.5015 106.78C33.5015 109.161 35.273 111.091 37.4583 111.091Z" fill="#F2F2F2"/>
<path d="M304.227 148.425C306.412 148.425 308.184 146.494 308.184 144.113C308.184 141.732 306.412 139.802 304.227 139.802C302.042 139.802 300.27 141.732 300.27 144.113C300.27 146.494 302.042 148.425 304.227 148.425Z" fill="#F2F2F2"/>
</g>
<defs>
<clipPath id="clip0_22_604">
<rect width="320" height="224" fill="white"/>
</clipPath>
</defs>
</svg>
