<svg width="302" height="260" viewBox="0 0 302 260" fill="none" xmlns="http://www.w3.org/2000/svg">
<circle cx="135" cy="130" r="130" fill="#E9F5F3"/>
<path d="M148.391 182.586C148.012 182.781 147.64 182.98 147.268 183.186C143.056 191.771 140.463 200.936 139.598 210.299C139.495 211.381 139.419 212.463 139.37 213.545C138.98 221.652 139.927 229.767 142.18 237.621C142.299 238.034 142.421 238.446 142.546 238.857C142.636 239.151 142.727 239.449 142.827 239.741C142.941 239.893 143.053 240.043 143.165 240.192C143.173 240.199 143.18 240.21 143.188 240.217C143.233 240.277 143.278 240.338 143.319 240.397C143.512 240.653 143.709 240.908 143.903 241.164L143.73 241.168L143.297 241.178L143.299 241.18C143.444 241.183 143.592 241.184 143.739 241.182C143.792 241.184 143.85 241.187 143.904 241.185C143.953 241.186 144.004 241.185 144.052 241.186C150.29 241.259 156.679 241.208 162.45 239.104C168.491 236.901 173.756 231.854 173.759 225.956C173.757 225.184 173.662 224.414 173.475 223.66C173.396 223.345 173.301 223.036 173.199 222.726C172.573 220.831 171.402 219.121 169.805 217.772C168.209 216.422 166.244 215.483 164.114 215.049C161.984 214.616 159.764 214.704 157.684 215.305C155.604 215.907 153.738 216.999 152.279 218.47C154.246 212.476 161.684 209.65 168.342 208.009C175.006 206.369 182.497 204.673 186.099 199.339C188.11 196.37 188.311 192.835 187.23 189.524C187.197 189.425 187.163 189.323 187.125 189.223C185.751 185.324 182.805 182.038 178.873 180.021C171.501 176.376 162.31 177.236 154.472 179.968C152.375 180.7 150.342 181.575 148.391 182.586Z" fill="#F2F2F2"/>
<path d="M168.219 222.571C162.286 222.85 156.61 224.85 152.029 228.277C148.126 231.23 145.172 235.08 143.478 239.423C143.379 239.672 143.289 239.92 143.203 240.17C143.065 239.907 142.931 239.638 142.8 239.372C142.715 239.202 142.628 239.029 142.546 238.857C142.636 239.151 142.727 239.449 142.827 239.741C142.941 239.893 143.053 240.043 143.165 240.192C143.173 240.199 143.18 240.21 143.188 240.217C143.233 240.277 143.278 240.338 143.319 240.397C143.512 240.653 143.709 240.908 143.903 241.164L143.73 241.168L143.297 241.178L143.299 241.18C143.444 241.183 143.592 241.184 143.739 241.182C143.792 241.184 143.85 241.187 143.904 241.185C143.925 241.11 143.951 241.035 143.977 240.96C145.759 235.336 149.727 230.485 155.149 227.305C160.571 224.125 167.081 222.831 173.475 223.66C173.396 223.345 173.301 223.035 173.199 222.726C171.547 222.543 169.881 222.491 168.219 222.571Z" fill="white"/>
<path d="M149.565 199.463C147.123 200.987 144.939 202.827 143.083 204.923C142.115 206.041 141.264 207.238 140.541 208.499C140.199 209.084 139.884 209.688 139.598 210.299C139.495 211.381 139.419 212.463 139.37 213.545C139.626 212.735 139.929 211.939 140.279 211.158C140.462 210.73 140.663 210.31 140.874 209.896C143.25 205.258 147.341 201.676 152.097 199.012C157.193 196.162 162.888 194.09 168.633 192.604C174.52 191.072 180.593 190.201 186.715 190.009C186.853 190.003 186.984 189.95 187.08 189.86C187.176 189.77 187.23 189.649 187.23 189.524C187.24 189.415 187.202 189.307 187.125 189.223C187.084 189.183 187.033 189.153 186.976 189.134C186.92 189.116 186.859 189.11 186.8 189.116C186.044 189.14 185.291 189.167 184.536 189.212C178.26 189.569 172.057 190.632 166.071 192.376C160.292 194.053 154.547 196.291 149.565 199.463Z" fill="white"/>
<path d="M181.768 174.499C182.923 174.499 183.859 173.65 183.859 172.604C183.859 171.558 182.923 170.71 181.768 170.71C180.613 170.71 179.677 171.558 179.677 172.604C179.677 173.65 180.613 174.499 181.768 174.499Z" fill="#F2F2F2"/>
<path d="M136.551 242.986H11.2057C8.23481 242.983 5.38653 241.913 3.28578 240.01C1.18503 238.106 0.00335448 235.526 0 232.834V68.1519C0.00335448 65.4603 1.18503 62.88 3.28578 60.9768C5.38653 59.0736 8.23481 58.003 11.2057 58H136.551C139.521 58.003 142.37 59.0736 144.47 60.9768C146.571 62.88 147.753 65.4603 147.756 68.1519V232.834C147.753 235.526 146.571 238.106 144.47 240.01C142.37 241.913 139.521 242.983 136.551 242.986Z" fill="#3F3D56"/>
<path d="M136.771 236.509H10.9851C10.0693 236.508 9.19126 236.178 8.54368 235.592C7.89611 235.005 7.53184 234.209 7.53079 233.38V67.6065C7.53184 66.7769 7.89611 65.9814 8.54368 65.3947C9.19126 64.8081 10.0693 64.4781 10.9851 64.4771H136.771C137.687 64.4781 138.565 64.8081 139.213 65.3947C139.86 65.9814 140.224 66.7769 140.225 67.6065V233.38C140.224 234.209 139.86 235.005 139.213 235.592C138.565 236.178 137.687 236.508 136.771 236.509Z" fill="white"/>
<path d="M73.4015 61.9726C73.928 61.9726 74.3548 61.586 74.3548 61.109C74.3548 60.632 73.928 60.2454 73.4015 60.2454C72.875 60.2454 72.4482 60.632 72.4482 61.109C72.4482 61.586 72.875 61.9726 73.4015 61.9726Z" fill="white"/>
<path d="M130.632 186.887H17.124C16.6794 186.887 16.2532 186.727 15.9388 186.442C15.6245 186.157 15.4477 185.771 15.4471 185.368V93.5193C15.4477 93.1165 15.6245 92.7304 15.9388 92.4456C16.2532 92.1608 16.6794 92.0006 17.124 92.0001H130.632C131.077 92.0006 131.503 92.1608 131.817 92.4456C132.132 92.7304 132.309 93.1165 132.309 93.5193V185.368C132.309 185.771 132.132 186.157 131.817 186.442C131.503 186.727 131.077 186.887 130.632 186.887Z" fill="#F0F0F0"/>
<path d="M121.345 157.673H26.669C26.2244 157.673 25.7982 157.513 25.4838 157.228C25.1695 156.943 24.9927 156.557 24.9922 156.154V103.335C24.9927 102.932 25.1695 102.546 25.4838 102.261C25.7982 101.977 26.2244 101.817 26.669 101.816H121.345C121.79 101.817 122.216 101.977 122.53 102.261C122.845 102.546 123.022 102.932 123.022 103.335V156.154C123.022 156.557 122.845 156.943 122.53 157.228C122.216 157.513 121.79 157.673 121.345 157.673Z" fill="white"/>
<path d="M99.5465 178.707H28.3458C27.4564 178.707 26.6034 178.387 25.9744 177.817C25.3455 177.248 24.9922 176.475 24.9922 175.669C24.9922 174.863 25.3455 174.09 25.9744 173.521C26.6034 172.951 27.4564 172.631 28.3458 172.631H99.5465C100.436 172.631 101.289 172.951 101.918 173.521C102.547 174.09 102.9 174.863 102.9 175.669C102.9 176.475 102.547 177.248 101.918 177.817C101.289 178.387 100.436 178.707 99.5465 178.707Z" fill="white"/>
<path d="M76.5868 168.307H28.3458C27.4564 168.307 26.6034 167.987 25.9744 167.417C25.3455 166.847 24.9922 166.075 24.9922 165.269C24.9922 164.463 25.3455 163.69 25.9744 163.12C26.6034 162.551 27.4564 162.231 28.3458 162.231H76.5868C77.4763 162.231 78.3293 162.551 78.9582 163.12C79.5872 163.69 79.9405 164.463 79.9405 165.269C79.9405 166.075 79.5872 166.847 78.9582 167.417C78.3293 167.987 77.4763 168.307 76.5868 168.307Z" fill="white"/>
<path d="M81.5246 157.888C81.6407 157.855 81.7542 157.823 81.8703 157.79C86.5011 156.44 90.5175 153.755 93.307 150.144C96.0964 146.533 97.5059 142.195 97.3204 137.791C97.2334 135.677 96.7753 133.589 95.9634 131.605C94.6629 128.408 92.4895 125.561 89.646 123.331C86.8025 121.1 83.3817 119.559 79.7027 118.85C76.0237 118.141 72.2065 118.289 68.6074 119.278C65.0083 120.268 61.7445 122.067 59.1206 124.508C56.4968 126.95 54.5984 129.954 53.6027 133.24C52.607 136.525 52.5464 139.986 53.4265 143.299C54.3066 146.612 56.0988 149.669 58.6358 152.185C61.1728 154.7 64.3719 156.592 67.9346 157.685C68.0507 157.722 68.1693 157.757 68.2854 157.79H74.6703L81.5246 157.888Z" fill="#0D5D6C"/>
<path d="M68.6337 153.609L67.9343 157.685L67.9165 157.79H61.0725L61.6116 154.649L61.9779 152.518L68.6337 153.609Z" fill="#2F2E41"/>
<path d="M81.5244 157.888L81.5425 157.79L81.9426 155.792L75.2867 154.7L74.6703 157.79L81.5244 157.888Z" fill="#2F2E41"/>
<path d="M76.6308 140.54C80.8327 140.54 84.239 137.454 84.239 133.648C84.239 129.841 80.8327 126.755 76.6308 126.755C72.4289 126.755 69.0226 129.841 69.0226 133.648C69.0226 137.454 72.4289 140.54 76.6308 140.54Z" fill="white"/>
<path d="M79.7577 133.475C81.1584 133.475 82.2938 132.446 82.2938 131.177C82.2938 129.908 81.1584 128.879 79.7577 128.879C78.3571 128.879 77.2217 129.908 77.2217 131.177C77.2217 132.446 78.3571 133.475 79.7577 133.475Z" fill="#3F3D56"/>
<path d="M57.5114 116.641C57.1766 109.174 64.2795 102.85 73.3762 102.516C82.4728 102.181 90.1185 107.962 90.4533 115.428C90.788 122.895 84.4647 124.591 75.3681 124.926C66.2714 125.261 57.8462 124.107 57.5114 116.641Z" fill="#646470"/>
<path d="M96.4081 137.992C102.4 136.748 106.908 134.358 106.477 132.654C106.045 130.95 100.839 130.577 94.8467 131.821C88.8548 133.065 84.347 135.455 84.7782 137.16C85.2093 138.864 90.4162 139.236 96.4081 137.992Z" fill="#2F2E41"/>
<path d="M52.7103 144.576C58.7022 143.331 63.21 140.941 62.7789 139.237C62.3477 137.533 57.1408 137.16 51.149 138.404C45.1571 139.649 40.6493 142.039 41.0805 143.743C41.5116 145.447 46.7185 145.82 52.7103 144.576Z" fill="#2F2E41"/>
<path d="M68.9583 146.529C68.7175 147.728 69.0123 148.964 69.7779 149.966C70.5435 150.968 71.7171 151.654 73.0406 151.872C74.3641 152.09 75.729 151.823 76.8351 151.129C77.9412 150.436 78.6979 149.373 78.9387 148.174L78.9403 148.166C79.4393 145.668 77.3081 144.785 74.5517 144.333C71.7952 143.881 69.4573 144.031 68.9583 146.529Z" fill="white"/>
<path d="M119.215 173.098C119.012 172.913 118.771 172.766 118.506 172.666C118.241 172.565 117.956 172.513 117.669 172.513C117.381 172.512 117.097 172.563 116.831 172.662C116.565 172.761 116.323 172.906 116.119 173.09C115.916 173.273 115.754 173.492 115.643 173.732C115.533 173.972 115.476 174.23 115.475 174.491C115.474 174.751 115.53 175.009 115.64 175.25C115.75 175.491 115.91 175.709 116.113 175.894L116.121 175.901L119.215 178.704L122.308 175.901C122.717 175.529 122.946 175.025 122.945 174.5C122.944 173.976 122.714 173.473 122.304 173.102C121.895 172.731 121.339 172.522 120.76 172.521C120.181 172.52 119.625 172.728 119.215 173.098Z" fill="#6C63FF"/>
<path d="M185.424 104.042C185.015 103.669 184.459 103.459 183.879 103.458C183.299 103.456 182.742 103.664 182.331 104.035C181.919 104.406 181.687 104.909 181.686 105.435C181.685 105.961 181.914 106.465 182.323 106.838L182.331 106.845L185.424 109.647L188.518 106.845C188.927 106.473 189.155 105.969 189.155 105.444C189.154 104.92 188.923 104.417 188.514 104.046C188.104 103.675 187.549 103.466 186.97 103.465C186.391 103.464 185.835 103.672 185.424 104.042Z" fill="#6C63FF"/>
<path d="M189.607 91.5244C189.356 91.2369 189.037 91.0043 188.673 90.8441C188.309 90.684 187.909 90.6002 187.505 90.5992C187.1 90.5981 186.7 90.6798 186.335 90.8381C185.97 90.9965 185.649 91.2274 185.396 91.5136C184.83 92.1398 184.521 92.9235 184.519 93.7326C184.517 94.5417 184.823 95.3266 185.386 95.9549L185.396 95.9657L189.607 100.407L193.819 95.9657C194.382 95.3374 194.688 94.5524 194.686 93.7433C194.684 92.9342 194.374 92.1505 193.808 91.5244C193.556 91.2392 193.236 91.0089 192.873 90.8507C192.509 90.6925 192.111 90.6104 191.708 90.6104C191.304 90.6104 190.906 90.6925 190.543 90.8507C190.179 91.0089 189.86 91.2392 189.607 91.5244Z" fill="#6C63FF"/>
<path d="M250.441 239.559H246.539L244.682 225.921L250.442 225.921L250.441 239.559Z" fill="#9E616A"/>
<path d="M251.437 242.986L238.853 242.986V242.842C238.853 241.665 239.369 240.536 240.287 239.704C241.206 238.872 242.452 238.404 243.751 238.404L251.437 238.404L251.437 242.986Z" fill="#2F2E41"/>
<path d="M214.469 239.559H210.566L208.709 225.921L214.469 225.921L214.469 239.559Z" fill="#9E616A"/>
<path d="M215.464 242.986L202.88 242.986V242.842C202.88 241.665 203.396 240.536 204.314 239.704C205.233 238.872 206.479 238.404 207.778 238.404L215.464 238.404L215.464 242.986Z" fill="#2F2E41"/>
<path d="M219.181 129.994L216.634 144.702L240.828 144.991L237.645 130.859L219.181 129.994Z" fill="#9E616A"/>
<path d="M217.336 141.111L209.631 159.7L208.676 236.733H215.202L230.801 174.841L245.126 235.118H251.493L247.036 167.342C247.036 167.342 248.35 153.739 241.624 145.712L239.987 141.427L217.336 141.111Z" fill="#456EB8"/>
<path d="M250.39 155.602C249.716 155.436 249.091 155.137 248.558 154.729C248.025 154.32 247.598 153.81 247.306 153.235C247.015 152.661 246.865 152.035 246.869 151.402C246.873 150.77 247.031 150.146 247.33 149.574L237.037 119.174L244.608 117.814L254.021 147.613C255.048 148.132 255.829 148.974 256.216 149.979C256.603 150.985 256.57 152.084 256.122 153.069C255.675 154.053 254.844 154.855 253.787 155.322C252.731 155.789 251.522 155.888 250.39 155.602Z" fill="#9E616A"/>
<path d="M236.769 138.117L220.091 137.825C219.614 137.816 219.154 137.666 218.781 137.397C218.407 137.128 218.142 136.756 218.024 136.337C217.13 133.13 215.163 124.773 216.206 116.448C216.412 114.836 216.973 113.277 217.856 111.864C218.738 110.451 219.925 109.213 221.345 108.223C222.765 107.233 224.389 106.511 226.123 106.1C227.856 105.689 229.663 105.597 231.437 105.829C233.307 106.072 235.1 106.67 236.698 107.584C238.295 108.499 239.661 109.709 240.706 111.136C241.751 112.562 242.452 114.173 242.761 115.862C243.071 117.551 242.983 119.28 242.503 120.936C240.403 128.158 239.218 133.326 238.978 136.294C238.943 136.723 238.753 137.13 238.439 137.453C238.124 137.775 237.701 137.995 237.236 138.08C237.097 138.105 236.956 138.117 236.815 138.117C236.799 138.117 236.784 138.117 236.769 138.117Z" fill="#E4E4E4"/>
<path d="M190.221 111.414C190.321 111.617 190.403 111.828 190.467 112.043L211.342 118.469L215.376 115.277L221.49 120.162L214.955 126.443C214.427 126.95 213.732 127.289 212.974 127.408C212.215 127.526 211.435 127.419 210.749 127.102L188.411 116.765C187.603 117.214 186.664 117.429 185.717 117.383C184.771 117.336 183.863 117.029 183.114 116.504C182.364 115.978 181.81 115.258 181.523 114.44C181.236 113.622 181.231 112.744 181.509 111.923C181.786 111.102 182.333 110.377 183.077 109.844C183.82 109.312 184.725 108.997 185.671 108.942C186.616 108.887 187.558 109.093 188.371 109.535C189.184 109.977 189.829 110.632 190.221 111.414Z" fill="#9E616A"/>
<path d="M211.386 117.445C211.387 117.184 211.451 116.927 211.572 116.691C211.693 116.455 211.87 116.245 212.088 116.076L219.732 110.178C220.7 109.174 222.067 108.558 223.534 108.467C225.002 108.375 226.45 108.814 227.56 109.687C228.671 110.561 229.354 111.798 229.459 113.127C229.565 114.456 229.084 115.769 228.123 116.778L222.68 124.457C222.524 124.676 222.319 124.862 222.077 125.003C221.835 125.143 221.562 125.235 221.277 125.272C220.993 125.308 220.703 125.289 220.427 125.215C220.152 125.141 219.897 125.014 219.68 124.842L212.07 118.821C211.854 118.649 211.68 118.438 211.562 118.2C211.444 117.963 211.384 117.705 211.386 117.445Z" fill="#E4E4E4"/>
<path d="M236.576 126.874C236.321 126.753 236.099 126.583 235.923 126.377C235.748 126.171 235.623 125.933 235.559 125.679L233.299 116.816C232.761 115.575 232.787 114.192 233.373 112.97C233.958 111.747 235.055 110.785 236.423 110.294C237.79 109.803 239.317 109.824 240.668 110.351C242.019 110.878 243.084 111.87 243.629 113.107L248.647 121.021C248.79 121.247 248.878 121.498 248.905 121.757C248.931 122.016 248.895 122.278 248.8 122.524C248.705 122.769 248.552 122.994 248.353 123.181C248.153 123.369 247.911 123.515 247.644 123.61L238.239 126.957C237.972 127.053 237.685 127.095 237.398 127.08C237.111 127.066 236.83 126.996 236.576 126.874Z" fill="#E4E4E4"/>
<path d="M236.175 102.703C241.132 100.248 242.954 94.6173 240.244 90.1261C237.534 85.635 231.319 83.9844 226.361 86.4395C221.404 88.8946 219.582 94.5256 222.292 99.0168C225.002 103.508 231.217 105.158 236.175 102.703Z" fill="#9E616A"/>
<path d="M218.865 89.3364H235.108V82.9217C231.543 81.6385 228.054 80.5472 225.945 82.9217C224.067 82.9218 222.267 83.5976 220.939 84.8006C219.611 86.0035 218.865 87.6351 218.865 89.3364Z" fill="#2F2E41"/>
<path d="M236.008 81.7897C245.718 81.7897 248.437 92.817 248.437 99.0381C248.437 102.507 246.705 103.748 243.983 104.168L243.022 99.5243L240.771 104.368C240.006 104.372 239.203 104.358 238.371 104.344L237.607 102.92L235.905 104.319C229.089 104.328 223.579 105.228 223.579 99.0381C223.579 92.817 225.963 81.7897 236.008 81.7897Z" fill="#2F2E41"/>
<path d="M301.651 243H110.689C110.596 243 110.508 242.967 110.442 242.908C110.377 242.848 110.34 242.768 110.34 242.684C110.34 242.601 110.377 242.52 110.442 242.461C110.508 242.402 110.596 242.369 110.689 242.369H301.651C301.744 242.369 301.833 242.402 301.898 242.461C301.963 242.52 302 242.601 302 242.684C302 242.768 301.963 242.848 301.898 242.908C301.833 242.967 301.744 243 301.651 243Z" fill="#3F3D56"/>
</svg>
