<svg width="288" height="260" viewBox="0 0 288 260" fill="none" xmlns="http://www.w3.org/2000/svg">
<circle cx="130" cy="130" r="130" fill="#E9F5F3"/>
<path d="M222.414 128.911C221.832 129.249 221.26 129.591 220.69 129.945C215.191 143.352 212.399 157.442 212.429 171.629C212.427 173.27 212.469 174.906 212.556 176.538C213.163 188.781 215.933 200.879 220.775 212.432C221.03 213.04 221.29 213.646 221.555 214.249C221.745 214.681 221.938 215.118 222.145 215.546C222.352 215.762 222.556 215.974 222.76 216.186C222.774 216.195 222.787 216.211 222.801 216.22C222.883 216.305 222.965 216.391 223.04 216.475C223.392 216.838 223.749 217.199 224.101 217.562L223.823 217.588L223.124 217.653L223.127 217.657C223.362 217.644 223.602 217.628 223.838 217.608C223.925 217.605 224.019 217.603 224.106 217.593C224.185 217.589 224.268 217.582 224.346 217.578C234.442 216.959 244.764 216.138 253.775 212.3C263.205 208.281 270.947 200.075 270.052 191.202C269.931 190.04 269.659 188.893 269.241 187.781C269.067 187.316 268.866 186.861 268.652 186.407C267.352 183.629 265.197 181.193 262.41 179.349C259.622 177.505 256.303 176.321 252.792 175.917C249.282 175.514 245.707 175.905 242.436 177.052C239.164 178.199 236.314 180.06 234.179 182.443C236.445 173.196 248.038 168.078 258.554 164.833C269.078 161.589 280.93 158.164 285.94 149.718C288.739 145.018 288.524 139.676 286.271 134.821C286.202 134.676 286.13 134.527 286.054 134.38C283.238 128.674 277.972 124.074 271.308 121.499C258.832 116.874 244.103 119.239 231.847 124.264C228.568 125.61 225.415 127.163 222.414 128.911Z" fill="#F2F2F2"/>
<path d="M260.578 186.754C251.028 187.865 242.155 191.537 235.272 197.226C229.412 202.124 225.224 208.26 223.148 214.993C223.027 215.378 222.918 215.762 222.818 216.147C222.554 215.768 222.298 215.379 222.044 214.994C221.88 214.748 221.714 214.498 221.555 214.249C221.745 214.681 221.938 215.118 222.145 215.546C222.352 215.762 222.556 215.974 222.76 216.186C222.774 216.195 222.787 216.211 222.801 216.22C222.883 216.305 222.965 216.391 223.039 216.475C223.392 216.838 223.749 217.199 224.101 217.562L223.823 217.588L223.124 217.653L223.127 217.657C223.362 217.644 223.602 217.628 223.838 217.608C223.925 217.605 224.019 217.603 224.106 217.593C224.129 217.477 224.16 217.362 224.19 217.247C226.212 208.577 231.888 200.817 240.169 195.401C248.45 189.985 258.777 187.278 269.241 187.78C269.067 187.316 268.866 186.861 268.652 186.407C265.954 186.325 263.252 186.441 260.578 186.754Z" fill="white"/>
<path d="M226.89 154.165C223.173 156.743 219.923 159.764 217.243 163.134C215.848 164.929 214.655 166.83 213.679 168.812C213.215 169.731 212.798 170.676 212.429 171.629C212.427 173.27 212.469 174.906 212.556 176.538C212.846 175.291 213.215 174.057 213.661 172.843C213.891 172.176 214.152 171.522 214.431 170.874C217.563 163.619 223.631 157.753 230.914 153.191C238.718 148.309 247.61 144.528 256.671 141.622C265.957 138.632 275.642 136.613 285.511 135.61C285.734 135.586 285.937 135.491 286.078 135.344C286.22 135.197 286.289 135.009 286.27 134.821C286.269 134.656 286.191 134.498 286.054 134.38C285.981 134.325 285.894 134.286 285.8 134.264C285.706 134.243 285.607 134.241 285.512 134.257C284.294 134.381 283.08 134.509 281.867 134.665C271.774 135.934 261.907 138.257 252.495 141.579C243.407 144.776 234.461 148.812 226.89 154.165Z" fill="white"/>
<path d="M274.856 112.863C276.73 112.863 278.249 111.583 278.249 110.003C278.249 108.424 276.73 107.143 274.856 107.143C272.982 107.143 271.463 108.424 271.463 110.003C271.463 111.583 272.982 112.863 274.856 112.863Z" fill="#F2F2F2"/>
<path d="M208.465 255.381H124.815C119.8 255.376 114.992 253.695 111.446 250.706C107.899 247.716 105.905 243.663 105.899 239.436V60.9455C105.905 56.718 107.899 52.665 111.446 49.6756C114.992 46.6863 119.8 45.0048 124.815 45H208.465C213.48 45.0048 218.288 46.6863 221.834 49.6756C225.38 52.665 227.375 56.718 227.381 60.9455V239.436C227.375 243.663 225.38 247.716 221.834 250.706C218.288 253.695 213.48 255.376 208.465 255.381Z" fill="#3F3D56"/>
<path d="M207.529 49.9501H198.218C197.387 49.9508 196.59 50.2294 196.002 50.7248C195.415 51.2201 195.084 51.8918 195.083 52.5923C195.082 54.0245 194.406 55.3977 193.205 56.4105C192.003 57.4232 190.374 57.9928 188.675 57.9941H143.136C141.437 57.9928 139.808 57.4232 138.607 56.4105C137.405 55.3977 136.73 54.0245 136.728 52.5923C136.727 51.8918 136.397 51.2201 135.809 50.7248C135.222 50.2294 134.425 49.9508 133.594 49.9501H125.384C121.58 49.9542 117.934 51.2297 115.245 53.4969C112.555 55.764 111.042 58.8378 111.037 62.044V239.265C111.042 242.472 112.555 245.545 115.245 247.812C117.934 250.08 121.58 251.355 125.384 251.359H207.529C211.332 251.355 214.979 250.08 217.668 247.812C220.357 245.545 221.87 242.472 221.875 239.265V62.044C221.87 58.8378 220.357 55.764 217.668 53.4969C214.979 51.2297 211.332 49.9542 207.529 49.9501Z" fill="white"/>
<path d="M177.375 53.5081H151.684C151.441 53.5081 151.207 53.4266 151.035 53.2815C150.863 53.1365 150.766 52.9397 150.766 52.7346C150.766 52.5295 150.863 52.3327 151.035 52.1877C151.207 52.0426 151.441 51.9612 151.684 51.9612H177.375C177.618 51.9612 177.852 52.0426 178.024 52.1877C178.196 52.3327 178.292 52.5295 178.292 52.7346C178.292 52.9397 178.196 53.1365 178.024 53.2815C177.852 53.4266 177.618 53.5081 177.375 53.5081Z" fill="white"/>
<path d="M181.412 53.3534C181.818 53.3534 182.146 53.0763 182.146 52.7346C182.146 52.3929 181.818 52.1158 181.412 52.1158C181.007 52.1158 180.678 52.3929 180.678 52.7346C180.678 53.0763 181.007 53.3534 181.412 53.3534Z" fill="white"/>
<path d="M228.115 115.385C227.677 115.384 227.257 115.238 226.947 114.977C226.638 114.716 226.464 114.362 226.463 113.993V86.7669C226.463 86.3976 226.637 86.0435 226.947 85.7824C227.256 85.5213 227.677 85.3746 228.115 85.3746C228.553 85.3746 228.973 85.5213 229.282 85.7824C229.592 86.0435 229.766 86.3976 229.766 86.7669V113.993C229.766 114.362 229.591 114.716 229.282 114.977C228.972 115.238 228.552 115.384 228.115 115.385Z" fill="#3F3D56"/>
<path d="M105.899 95.2749C105.461 95.2745 105.041 95.1277 104.732 94.8667C104.422 94.6057 104.248 94.2518 104.248 93.8827V87.695C104.248 87.3258 104.422 86.9716 104.731 86.7106C105.041 86.4495 105.461 86.3028 105.899 86.3028C106.337 86.3028 106.757 86.4495 107.067 86.7106C107.377 86.9716 107.551 87.3258 107.551 87.695V93.8827C107.55 94.2518 107.376 94.6057 107.066 94.8667C106.757 95.1277 106.337 95.2745 105.899 95.2749Z" fill="#3F3D56"/>
<path d="M105.899 106.722C105.461 106.722 105.041 106.575 104.732 106.314C104.422 106.053 104.248 105.699 104.248 105.33V99.1422C104.248 98.773 104.422 98.4189 104.731 98.1578C105.041 97.8967 105.461 97.75 105.899 97.75C106.337 97.75 106.757 97.8967 107.067 98.1578C107.377 98.4189 107.551 98.773 107.551 99.1422V105.33C107.55 105.699 107.376 106.053 107.066 106.314C106.757 106.575 106.337 106.722 105.899 106.722Z" fill="#3F3D56"/>
<path d="M257.165 256H12.367C12.2697 256 12.1763 255.967 12.1075 255.909C12.0387 255.851 12 255.773 12 255.691C12 255.609 12.0387 255.53 12.1075 255.472C12.1763 255.414 12.2697 255.381 12.367 255.381H257.165C257.262 255.381 257.356 255.414 257.425 255.472C257.493 255.53 257.532 255.609 257.532 255.691C257.532 255.773 257.493 255.851 257.425 255.909C257.356 255.967 257.262 256 257.165 256Z" fill="#3F3D56"/>
<path d="M34.993 252.256H39.4926L41.6331 237.626H34.9923L34.993 252.256Z" fill="#FFB6B6"/>
<path d="M33.8452 251.018L42.7064 251.018H42.7068C44.2044 251.018 45.6407 251.519 46.6997 252.412C47.7587 253.305 48.3537 254.515 48.3538 255.778V255.932L33.8455 255.933L33.8452 251.018Z" fill="#2F2E41"/>
<path d="M76.4656 252.256H80.9652L83.1056 237.626H76.4648L76.4656 252.256Z" fill="#FFB6B6"/>
<path d="M75.3177 251.018L84.1789 251.018H84.1793C85.6769 251.018 87.1132 251.519 88.1722 252.412C89.2312 253.305 89.8262 254.515 89.8263 255.778V255.932L75.318 255.933L75.3177 251.018Z" fill="#2F2E41"/>
<path d="M71.0326 134.721L73.9687 150.5L46.0757 150.809L49.7458 135.65L71.0326 134.721Z" fill="#FFB6B6"/>
<path d="M75.07 146.478L82.0433 166.588L83.1443 249.225H75.6205L57.6369 182.831L41.1213 247.492H33.781L38.9192 174.787C38.9192 174.787 36.3501 156.842 45.1584 151.583V146.968L75.07 146.478Z" fill="#4B4B50"/>
<path d="M35.0529 162.192C35.8296 162.014 36.5504 161.694 37.1645 161.255C37.7787 160.817 38.2713 160.27 38.6076 159.653C38.944 159.037 39.1159 158.366 39.1112 157.687C39.1066 157.009 38.9255 156.339 38.5807 155.726L50.4468 123.114L41.7189 121.656L30.8661 153.622C29.6826 154.179 28.7823 155.082 28.3358 156.16C27.8894 157.239 27.9279 158.418 28.4439 159.475C28.96 160.531 29.9179 161.391 31.1359 161.892C32.354 162.393 33.7477 162.5 35.0529 162.192Z" fill="#FFB6B6"/>
<path d="M68.1597 102.18C73.0759 98.0357 73.0759 91.3166 68.1597 87.1723C63.2436 83.0281 55.2729 83.0281 50.3567 87.1723C45.4405 91.3166 45.4405 98.0357 50.3567 102.18C55.2729 106.324 63.2436 106.324 68.1597 102.18Z" fill="#FFB6B6"/>
<path d="M50.257 143.229C49.7627 143.147 49.3143 142.929 48.9805 142.611C48.6467 142.293 48.446 141.891 48.4092 141.467C48.1324 138.272 46.7632 132.719 44.3398 124.961C43.7937 123.208 43.6935 121.377 44.0458 119.589C44.3981 117.801 45.1949 116.096 46.384 114.585C47.5731 113.075 49.1275 111.793 50.9454 110.825C52.7632 109.857 54.8034 109.223 56.9321 108.967C58.95 108.72 61.006 108.818 62.9784 109.253C64.9508 109.689 66.7997 110.453 68.4155 111.501C70.0313 112.55 71.3813 113.86 72.3856 115.356C73.3899 116.852 74.0281 118.502 74.2625 120.21C75.4616 129.111 73.1997 138.054 72.1717 141.485C72.0471 141.898 71.7653 142.265 71.3694 142.53C70.9735 142.796 70.4854 142.944 69.9799 142.953L50.7526 143.266C50.5863 143.269 50.4201 143.257 50.257 143.229Z" fill="#E4E4E4"/>
<path d="M104.421 114.79C104.305 115.008 104.21 115.234 104.137 115.465L80.0697 122.359L75.4192 118.934L68.3706 124.175L75.9044 130.912C76.5131 131.456 77.3147 131.819 78.189 131.947C79.0634 132.075 79.9632 131.96 80.7534 131.619L106.507 120.53C107.438 121.012 108.521 121.243 109.612 121.193C110.703 121.143 111.75 120.814 112.614 120.25C113.478 119.686 114.118 118.914 114.448 118.036C114.779 117.158 114.784 116.216 114.464 115.336C114.144 114.455 113.514 113.677 112.657 113.106C111.8 112.535 110.757 112.197 109.666 112.138C108.576 112.079 107.49 112.301 106.553 112.774C105.616 113.248 104.872 113.951 104.421 114.79Z" fill="#FFB6B6"/>
<path d="M79.2307 122.735L70.4572 129.195C70.2075 129.379 69.9138 129.515 69.5961 129.595C69.2783 129.674 68.944 129.695 68.6159 129.656C68.2877 129.617 67.9734 129.518 67.6945 129.367C67.4155 129.216 67.1784 129.017 66.9993 128.782L60.7238 120.544C59.6156 119.462 59.0615 118.054 59.1831 116.628C59.3047 115.202 60.0921 113.875 61.3725 112.938C62.653 112.001 64.3221 111.53 66.0138 111.628C67.7055 111.727 69.2818 112.387 70.3972 113.464L79.2096 119.791C79.4618 119.973 79.6648 120.198 79.8046 120.451C79.9444 120.704 80.0178 120.98 80.0198 121.259C80.0218 121.539 79.9524 121.815 79.8162 122.07C79.68 122.325 79.4803 122.552 79.2307 122.735Z" fill="#E4E4E4"/>
<path d="M49.0607 131.464L38.2184 127.873C37.91 127.771 37.6312 127.614 37.4012 127.413C37.1712 127.212 36.9953 126.971 36.8855 126.708C36.7758 126.444 36.7347 126.164 36.7651 125.885C36.7955 125.607 36.8967 125.338 37.0618 125.096L42.8466 116.606C43.4752 115.278 44.703 114.215 46.2606 113.649C47.8183 113.083 49.5786 113.061 51.1555 113.588C52.7324 114.114 53.9971 115.147 54.6722 116.459C55.3473 117.77 55.3776 119.254 54.7566 120.585L52.1511 130.093C52.0764 130.365 51.933 130.62 51.7306 130.842C51.5283 131.063 51.2717 131.245 50.9784 131.375C50.6851 131.505 50.362 131.58 50.0311 131.596C49.7001 131.611 49.3692 131.566 49.0607 131.464Z" fill="#E4E4E4"/>
<path d="M65.0788 92.299C67.822 94.6605 71.5467 97.2391 75.2468 95.8308C77.6763 94.9061 78.9045 92.6472 78.5306 90.4222C77.8583 86.4212 73.9812 84.0613 70.2002 82.1172C65.2848 79.5899 59.8195 77.3194 54.0703 77.5804C48.3211 77.8415 42.4341 81.5 42.3198 86.3525C42.2278 90.2548 45.7083 94.0962 44.2171 97.7912C42.7163 101.51 37.1479 102.669 32.4888 102.6C27.8297 102.531 22.7442 101.909 18.8707 104.093C13.9294 106.878 13.4988 113.261 16.5168 117.578C19.5348 121.896 24.9999 124.537 30.4088 126.616C37.5751 129.37 45.5219 131.516 53.2473 130.224C60.9726 128.931 68.103 123.168 67.5099 116.547C67.2594 113.751 65.7279 111.167 64.2514 108.654C62.775 106.141 61.2969 103.524 61.1673 100.721C61.0592 98.3862 62.136 95.8757 64.2832 94.4963C64.6711 94.2569 64.959 93.92 65.1055 93.5341C65.2521 93.1481 65.2498 92.733 65.0989 92.3482L65.0788 92.299Z" fill="#2F2E41"/>
<path d="M219.051 137.779C215.081 139.787 208.007 142.302 200.778 139.717L196.106 138.046L205.469 129.198C197.997 122.252 193.863 113.209 193.875 103.833C193.886 94.457 198.042 85.421 205.531 78.4888C213.02 71.5565 223.305 67.2256 234.378 66.3414C245.451 65.4573 256.517 68.0832 265.417 73.7068C274.317 79.3304 280.412 87.5479 282.511 96.7555C284.611 105.963 282.565 115.5 276.773 123.504C270.98 131.508 261.857 137.406 251.185 140.045C240.512 142.685 229.055 141.877 219.051 137.779Z" fill="white"/>
<path d="M219.075 138.256C215.26 140.144 207.993 142.754 200.584 140.104L195.27 138.204L204.8 129.199C198.87 123.576 195.047 116.6 193.811 109.15C192.575 101.699 193.983 94.1067 197.856 87.3289C201.729 80.5512 207.894 74.891 215.576 71.0614C223.257 67.2317 232.112 65.4037 241.023 65.8076C249.935 66.2116 258.505 68.8294 265.655 73.3314C272.805 77.8334 278.215 84.0182 281.204 91.107C284.192 98.1958 284.626 105.872 282.449 113.168C280.273 120.464 275.584 127.054 268.974 132.108C262.335 137.214 254.035 140.529 245.142 141.624C236.249 142.72 227.171 141.547 219.075 138.256ZM271.351 78.8285C267.451 75.1997 262.74 72.2542 257.489 70.1604C252.238 68.0666 246.549 66.8655 240.747 66.6257C234.945 66.3859 229.143 67.112 223.674 68.7627C218.205 70.4134 213.176 72.9562 208.873 76.246C204.57 79.5357 201.078 83.5079 198.597 87.9355C196.116 92.3632 194.693 97.1596 194.412 102.051C194.13 106.942 194.994 111.832 196.955 116.441C198.916 121.051 201.935 125.289 205.839 128.915L206.141 129.195L196.942 137.888L200.973 139.33C208.129 141.889 215.21 139.23 218.794 137.418L219.026 137.301L219.269 137.401C228.508 141.185 239.022 142.14 249.005 140.102C258.989 138.063 267.819 133.159 273.98 126.23C280.14 119.301 283.248 110.781 282.768 102.131C282.289 93.4815 278.252 85.2425 271.351 78.8285Z" fill="#6C63FF"/>
<path opacity="0.1" d="M276.349 103.637C276.348 94.967 272.497 86.6115 265.553 80.2159C258.609 73.8203 249.076 69.8481 238.832 69.0814C240.031 68.9929 241.243 68.945 242.469 68.945C253.38 68.9498 263.843 72.6069 271.556 79.1123C279.269 85.6178 283.602 94.439 283.602 103.637C283.602 112.834 279.269 121.656 271.556 128.161C263.843 134.667 253.38 138.324 242.469 138.328C241.245 138.328 240.035 138.28 238.838 138.192C249.081 137.424 258.612 133.451 265.555 127.056C272.497 120.66 276.348 112.306 276.349 103.637Z" fill="black"/>
<path d="M244.402 96.7188H214.996V99.0208H244.402V96.7188Z" fill="#0D5D6C"/>
<path d="M266.249 104.682H214.996V106.984H266.249V104.682Z" fill="#0D5D6C"/>
<path d="M266.199 112.646H214.996V114.948H266.199V112.646Z" fill="#0D5D6C"/>
<path d="M126.396 196.449C122.217 193.254 119.256 189.086 117.887 184.472C116.518 179.858 116.802 175.006 118.705 170.529C120.607 166.052 124.042 162.15 128.574 159.319C133.107 156.487 138.534 154.852 144.169 154.62C149.804 154.388 155.394 155.57 160.232 158.017C165.07 160.463 168.938 164.064 171.349 168.364C173.759 172.663 174.603 177.469 173.773 182.173C172.944 186.877 170.478 191.268 166.688 194.791L172.661 200.435L169.68 201.501C165.069 203.15 160.557 201.545 158.025 200.265C152.903 202.363 147.154 203.12 141.517 202.44C135.88 201.76 130.614 199.673 126.396 196.449Z" fill="white"/>
<path d="M145.522 202.972C138.366 202.967 131.469 200.712 126.182 196.647C121.965 193.424 118.975 189.22 117.586 184.566C116.198 179.913 116.475 175.017 118.381 170.495C120.287 165.974 123.738 162.029 128.299 159.157C132.859 156.286 138.326 154.616 144.01 154.358C149.694 154.101 155.342 155.266 160.242 157.709C165.141 160.152 169.074 163.762 171.544 168.085C174.015 172.409 174.912 177.251 174.124 182.004C173.336 186.756 170.897 191.206 167.115 194.792L173.194 200.536L169.804 201.748C165.078 203.438 160.443 201.774 158.009 200.569C154.113 202.148 149.845 202.969 145.522 202.972ZM126.61 196.25C130.772 199.452 135.98 201.524 141.558 202.197C147.136 202.87 152.825 202.113 157.886 200.024L158.041 199.96L158.189 200.035C160.475 201.191 164.991 202.886 169.556 201.254L172.127 200.334L166.26 194.79L166.452 194.611C170.2 191.127 172.638 186.785 173.459 182.134C174.279 177.482 173.445 172.73 171.061 168.478C168.678 164.226 164.852 160.666 160.068 158.247C155.284 155.828 149.756 154.659 144.184 154.888C138.612 155.117 133.246 156.734 128.764 159.534C124.282 162.335 120.885 166.192 119.004 170.619C117.123 175.047 116.842 179.845 118.195 184.407C119.549 188.969 122.477 193.09 126.61 196.25Z" fill="#6C63FF"/>
<path opacity="0.1" d="M121.478 178.487C121.478 172.957 123.935 167.628 128.364 163.548C132.793 159.469 138.873 156.935 145.408 156.446C144.643 156.39 143.87 156.359 143.088 156.359C136.128 156.362 129.455 158.695 124.535 162.845C119.615 166.994 116.852 172.621 116.852 178.487C116.852 184.354 119.615 189.981 124.535 194.13C129.455 198.28 136.128 200.612 143.088 200.615C143.868 200.615 144.641 200.584 145.404 200.528C138.87 200.038 132.791 197.504 128.363 193.425C123.934 189.346 121.478 184.017 121.478 178.487Z" fill="black"/>
<path d="M160.612 174.075H141.855V175.543H160.612V174.075Z" fill="#0D5D6C"/>
<path d="M160.612 179.154H127.92V180.622H160.612V179.154Z" fill="#0D5D6C"/>
<path d="M160.612 184.234H127.952V185.702H160.612V184.234Z" fill="#0D5D6C"/>
<path d="M182.057 205.921C184.287 205.921 186.094 204.398 186.094 202.518C186.094 200.638 184.287 199.115 182.057 199.115C179.828 199.115 178.02 200.638 178.02 202.518C178.02 204.398 179.828 205.921 182.057 205.921Z" fill="#0D5D6C"/>
<path d="M187.93 143.116C190.565 143.116 192.701 141.316 192.701 139.094C192.701 136.873 190.565 135.072 187.93 135.072C185.294 135.072 183.158 136.873 183.158 139.094C183.158 141.316 185.294 143.116 187.93 143.116Z" fill="#0D5D6C"/>
</svg>
