<svg width="339" height="260" viewBox="0 0 339 260" fill="none" xmlns="http://www.w3.org/2000/svg">
<circle cx="153" cy="130" r="130" fill="#E9F5F3"/>
<path d="M49.212 259.551C75.9709 259.551 97.6633 257.151 97.6633 254.191C97.6633 251.23 75.9709 248.83 49.212 248.83C22.453 248.83 0.76062 251.23 0.76062 254.191C0.76062 257.151 22.453 259.551 49.212 259.551Z" fill="#E6E6E6"/>
<path d="M289.966 255.785C316.725 255.785 338.418 253.386 338.418 250.425C338.418 247.465 316.725 245.065 289.966 245.065C263.207 245.065 241.515 247.465 241.515 250.425C241.515 253.386 263.207 255.785 289.966 255.785Z" fill="#E6E6E6"/>
<path d="M160.826 86.5884C163.051 86.5884 164.854 84.8723 164.854 82.7555C164.854 80.6386 163.051 78.9225 160.826 78.9225C158.601 78.9225 156.797 80.6386 156.797 82.7555C156.797 84.8723 158.601 86.5884 160.826 86.5884Z" fill="#3F3D56"/>
<path d="M160.826 85.2195C162.256 85.2195 163.415 84.1163 163.415 82.7555C163.415 81.3946 162.256 80.2914 160.826 80.2914C159.395 80.2914 158.236 81.3946 158.236 82.7555C158.236 84.1163 159.395 85.2195 160.826 85.2195Z" fill="white"/>
<path d="M178.091 86.5884C180.316 86.5884 182.119 84.8723 182.119 82.7555C182.119 80.6386 180.316 78.9225 178.091 78.9225C175.866 78.9225 174.062 80.6386 174.062 82.7555C174.062 84.8723 175.866 86.5884 178.091 86.5884Z" fill="#3F3D56"/>
<path d="M178.091 85.2195C179.521 85.2195 180.681 84.1163 180.681 82.7555C180.681 81.3946 179.521 80.2914 178.091 80.2914C176.661 80.2914 175.501 81.3946 175.501 82.7555C175.501 84.1163 176.661 85.2195 178.091 85.2195Z" fill="white"/>
<path d="M160.373 83.0292C158.439 83.0232 156.573 83.7052 155.141 84.9414C153.708 86.1775 152.814 87.8785 152.632 89.7101L151.827 97.5652C151.731 98.4975 151.842 99.4385 152.151 100.328C152.461 101.217 152.962 102.035 153.624 102.729C154.286 103.422 155.092 103.977 155.992 104.356C156.893 104.736 157.866 104.932 158.851 104.932H180.066C181.05 104.932 182.024 104.736 182.924 104.356C183.824 103.977 184.631 103.422 185.293 102.729C185.954 102.035 186.456 101.217 186.765 100.328C187.075 99.4385 187.185 98.4975 187.09 97.5652L186.284 89.7101C186.103 87.8785 185.208 86.1775 183.776 84.9414C182.344 83.7052 180.478 83.0232 178.544 83.0292H160.373Z" fill="#A95F35"/>
<path d="M171.608 94.135C172.202 93.3758 173.089 92.8718 174.073 92.7333C175.057 92.5949 176.059 92.8334 176.859 93.3965C177.303 92.8288 177.561 92.1484 177.598 91.4414C177.636 90.7345 177.453 90.0327 177.071 89.4251C176.689 88.8174 176.127 88.3312 175.454 88.028C174.782 87.7247 174.03 87.6181 173.294 87.7216C172.558 87.8251 171.871 88.1341 171.32 88.6095C170.768 89.0848 170.378 89.7051 170.197 90.3918C170.017 91.0786 170.054 91.8008 170.305 92.4672C170.557 93.1335 171.01 93.714 171.608 94.135Z" fill="white"/>
<path d="M162.837 94.8253C163.431 94.0661 164.317 93.562 165.302 93.4236C166.286 93.2851 167.288 93.5236 168.088 94.0868C168.532 93.5191 168.789 92.8386 168.827 92.1317C168.865 91.4247 168.681 90.723 168.3 90.1153C167.918 89.5077 167.355 89.0214 166.683 88.7182C166.011 88.415 165.259 88.3083 164.523 88.4119C163.787 88.5154 163.1 88.8244 162.549 89.2997C161.997 89.775 161.607 90.3953 161.426 91.082C161.245 91.7688 161.283 92.491 161.534 93.1574C161.785 93.8237 162.239 94.4042 162.837 94.8253Z" fill="white"/>
<path d="M165.324 92.5694C166.089 92.5694 166.709 91.9795 166.709 91.2517C166.709 90.524 166.089 89.934 165.324 89.934C164.559 89.934 163.939 90.524 163.939 91.2517C163.939 91.9795 164.559 92.5694 165.324 92.5694Z" fill="#3F3D56"/>
<path d="M174.293 91.5654C175.058 91.5654 175.678 90.9755 175.678 90.2478C175.678 89.52 175.058 88.9301 174.293 88.9301C173.528 88.9301 172.908 89.52 172.908 90.2478C172.908 90.9755 173.528 91.5654 174.293 91.5654Z" fill="#3F3D56"/>
<path d="M169.548 97.2659C170.342 97.2659 170.987 96.653 170.987 95.897C170.987 95.1409 170.342 94.5281 169.548 94.5281C168.753 94.5281 168.109 95.1409 168.109 95.897C168.109 96.653 168.753 97.2659 169.548 97.2659Z" fill="white"/>
<path d="M163.806 98.0872C163.878 98.8351 164.242 99.5303 164.825 100.037C165.408 100.543 166.169 100.824 166.958 100.825H172.713C173.503 100.824 174.263 100.543 174.846 100.037C175.429 99.5302 175.793 98.8351 175.865 98.0872H163.806Z" fill="white"/>
<path d="M80.3461 86.7253C80.3466 87.2289 80.2428 87.7278 80.0406 88.1932C79.8384 88.6587 79.5417 89.0817 79.1676 89.438C78.7934 89.7943 78.3491 90.077 77.8601 90.2698C77.3711 90.4627 76.8469 90.5619 76.3176 90.5619C75.7882 90.5619 75.264 90.4627 74.775 90.2698C74.286 90.077 73.8417 89.7943 73.4676 89.438C73.0935 89.0817 72.7968 88.6587 72.5946 88.1932C72.3924 87.7278 72.2886 87.2289 72.2891 86.7253C72.2891 84.6084 74.0927 75.774 76.3176 75.774C78.5425 75.774 80.3461 84.6084 80.3461 86.7253Z" fill="#E6E6E6"/>
<path d="M78.805 84.1048C78.805 84.7583 78.5321 85.385 78.0464 85.8471C77.5608 86.3092 76.902 86.5688 76.2152 86.5688C75.5283 86.5688 74.8696 86.3092 74.384 85.8471C73.8983 85.385 73.6254 84.7583 73.6254 84.1048C73.6254 82.7439 74.7849 74.5224 76.2152 74.5224C77.6455 74.5224 78.805 82.7439 78.805 84.1048Z" fill="#3E3E3E"/>
<path d="M89.5541 86.7253C89.5541 87.7418 89.9786 88.7168 90.7341 89.4356C91.4896 90.1544 92.5142 90.5582 93.5827 90.5582C94.6511 90.5582 95.6758 90.1544 96.4313 89.4356C97.1868 88.7168 97.6112 87.7418 97.6112 86.7253C97.6112 84.6084 95.8076 74.9527 93.5827 74.9527C91.3578 74.9527 89.5541 84.6084 89.5541 86.7253Z" fill="#E6E6E6"/>
<path d="M90.527 84.2114C90.527 84.8649 90.7999 85.4917 91.2856 85.9537C91.7712 86.4158 92.43 86.6754 93.1168 86.6754C93.8037 86.6754 94.4624 86.4158 94.948 85.9537C95.4337 85.4917 95.7066 84.8649 95.7066 84.2114C95.7066 82.8506 94.5471 73.8077 93.1168 73.8077C91.6865 73.8077 90.527 82.8506 90.527 84.2114Z" fill="#3E3E3E"/>
<path d="M76.195 82.7417C74.2614 82.7356 72.3952 83.4177 70.963 84.6538C69.5309 85.89 68.6363 87.5909 68.4548 89.4226L67.6493 97.2776C67.5537 98.21 67.6642 99.151 67.9737 100.04C68.2832 100.93 68.7848 101.747 69.4464 102.441C70.1079 103.135 70.9147 103.689 71.8149 104.069C72.715 104.448 73.6887 104.644 74.6732 104.644H95.8882C96.8727 104.644 97.8464 104.448 98.7466 104.069C99.6468 103.689 100.454 103.135 101.115 102.441C101.777 101.747 102.278 100.93 102.588 100.04C102.897 99.151 103.008 98.21 102.912 97.2776L102.107 89.4226C101.925 87.5909 101.031 85.89 99.5984 84.6538C98.1662 83.4177 96.3001 82.7356 94.3664 82.7417H76.195Z" fill="#3960AC"/>
<path d="M87.4303 93.8475C88.0247 93.0883 88.9111 92.5842 89.8954 92.4458C90.8796 92.3074 91.8814 92.5459 92.6812 93.109C93.1257 92.5413 93.3831 91.8609 93.4208 91.1539C93.4586 90.4469 93.275 89.7452 92.8934 89.1375C92.5117 88.5299 91.9491 88.0437 91.2768 87.7404C90.6045 87.4372 89.8527 87.3306 89.1167 87.4341C88.3807 87.5376 87.6935 87.8466 87.1422 88.3219C86.5909 88.7973 86.2002 89.4176 86.0196 90.1043C85.8391 90.791 85.8767 91.5133 86.1278 92.1796C86.379 92.846 86.8323 93.4264 87.4303 93.8475Z" fill="white"/>
<path d="M78.6591 94.5377C79.2534 93.7785 80.1399 93.2744 81.1241 93.136C82.1084 92.9976 83.1102 93.236 83.91 93.7992C84.3544 93.2315 84.6118 92.5511 84.6496 91.8441C84.6874 91.1371 84.5038 90.4354 84.1221 89.8277C83.7404 89.2201 83.1778 88.7339 82.5055 88.4306C81.8333 88.1274 81.0815 88.0208 80.3455 88.1243C79.6095 88.2278 78.9223 88.5368 78.371 89.0121C77.8196 89.4875 77.429 90.1078 77.2484 90.7945C77.0678 91.4812 77.1055 92.2035 77.3566 92.8698C77.6077 93.5362 78.061 94.1166 78.6591 94.5377Z" fill="white"/>
<path d="M81.1464 94.4721C81.9113 94.4721 82.5313 93.8821 82.5313 93.1544C82.5313 92.4267 81.9113 91.8367 81.1464 91.8367C80.3815 91.8367 79.7615 92.4267 79.7615 93.1544C79.7615 93.8821 80.3815 94.4721 81.1464 94.4721Z" fill="black"/>
<path d="M90.4032 93.7419C91.1681 93.7419 91.7881 93.152 91.7881 92.4242C91.7881 91.6965 91.1681 91.1065 90.4032 91.1065C89.6383 91.1065 89.0182 91.6965 89.0182 92.4242C89.0182 93.152 89.6383 93.7419 90.4032 93.7419Z" fill="black"/>
<path d="M85.3702 96.9783C86.1648 96.9783 86.8089 96.3654 86.8089 95.6094C86.8089 94.8534 86.1648 94.2405 85.3702 94.2405C84.5755 94.2405 83.9314 94.8534 83.9314 95.6094C83.9314 96.3654 84.5755 96.9783 85.3702 96.9783Z" fill="white"/>
<path d="M88.3796 96.6074C88.8718 96.3637 89.4327 96.5266 89.9143 96.7147C90.4413 96.9205 90.9525 97.1538 91.4957 97.3216C92.5094 97.6589 93.5958 97.7489 94.6556 97.5833C96.5721 97.2424 98.1803 95.6126 97.7496 93.6797C97.6345 93.1629 96.8022 93.3816 96.9172 93.898C96.9886 94.2852 96.9551 94.6833 96.8197 95.0547C96.6843 95.4261 96.4516 95.7585 96.1436 96.0205C95.4398 96.5939 94.5333 96.8915 93.6075 96.8532C92.5848 96.8067 91.5828 96.5625 90.6626 96.1354C89.7835 95.7651 88.8613 95.444 87.9439 95.8982C87.451 96.1423 87.887 96.8514 88.3796 96.6074Z" fill="white"/>
<path d="M82.9052 95.8982C82.0113 95.4555 81.1068 95.7495 80.2456 96.1104C79.3076 96.5491 78.2856 96.8019 77.2417 96.8532C76.3346 96.8899 75.4454 96.6056 74.7458 96.0551C74.4254 95.7934 74.1819 95.457 74.0392 95.0789C73.8965 94.7007 73.8596 94.2938 73.9319 93.898C74.0468 93.3824 73.2148 93.162 73.0995 93.6796C72.6689 95.6125 74.277 97.2424 76.1936 97.5833C77.2533 97.7494 78.3399 97.6594 79.3535 97.3215C79.8965 97.153 80.4078 96.9207 80.9349 96.7147C81.4158 96.5267 81.9777 96.3638 82.4695 96.6074C82.9617 96.8511 83.3987 96.1426 82.9052 95.8982Z" fill="white"/>
<path d="M85.7123 100.401C86.9837 100.401 88.0143 99.9102 88.0143 99.3054C88.0143 98.7006 86.9837 98.2103 85.7123 98.2103C84.4409 98.2103 83.4103 98.7006 83.4103 99.3054C83.4103 99.9102 84.4409 100.401 85.7123 100.401Z" fill="white"/>
<path d="M239.435 93.806C243.923 93.806 247.562 90.3443 247.562 86.074C247.562 81.8037 243.923 78.3419 239.435 78.3419C234.947 78.3419 231.308 81.8037 231.308 86.074C231.308 90.3443 234.947 93.806 239.435 93.806Z" fill="#3F3D56"/>
<path d="M239.435 91.0446C242.32 91.0446 244.659 88.8192 244.659 86.074C244.659 83.3288 242.32 81.1033 239.435 81.1033C236.55 81.1033 234.211 83.3288 234.211 86.074C234.211 88.8192 236.55 91.0446 239.435 91.0446Z" fill="#08333A"/>
<path d="M268.498 93.806C272.986 93.806 276.624 90.3443 276.624 86.074C276.624 81.8037 272.986 78.3419 268.498 78.3419C264.01 78.3419 260.371 81.8037 260.371 86.074C260.371 90.3443 264.01 93.806 268.498 93.806Z" fill="#3F3D56"/>
<path d="M268.498 91.0446C271.383 91.0446 273.722 88.8192 273.722 86.074C273.722 83.3288 271.383 81.1033 268.498 81.1033C265.613 81.1033 263.274 83.3288 263.274 86.074C263.274 88.8192 265.613 91.0446 268.498 91.0446Z" fill="#08333A"/>
<path d="M245.025 83.6099C244.899 83.6099 244.774 83.6127 244.65 83.6183C239.967 83.8275 236.73 88.1885 237.871 92.5146L238.036 93.1412C238.624 95.3675 239.023 97.631 239.419 99.8952C239.692 101.464 240.541 102.891 241.816 103.919C243.091 104.948 244.709 105.513 246.38 105.512H261.84C263.575 105.513 265.249 104.905 266.543 103.805C267.836 102.705 268.659 101.19 268.853 99.5495C269.125 97.5023 269.54 95.4746 270.095 93.4797L270.35 92.5146C271.491 88.1885 268.254 83.8275 263.571 83.6183C263.447 83.6127 263.322 83.61 263.196 83.6099H245.025Z" fill="#0B5C6A"/>
<path d="M256.26 94.7157C256.854 93.9565 257.741 93.4525 258.725 93.314C259.709 93.1756 260.711 93.4141 261.511 93.9772C261.955 93.4095 262.213 92.7291 262.25 92.0221C262.288 91.3151 262.105 90.6134 261.723 90.0058C261.341 89.3981 260.779 88.9119 260.106 88.6087C259.434 88.3054 258.682 88.1988 257.946 88.3023C257.21 88.4059 256.523 88.7148 255.972 89.1902C255.42 89.6655 255.03 90.2858 254.849 90.9725C254.669 91.6592 254.706 92.3815 254.957 93.0478C255.209 93.7142 255.662 94.2947 256.26 94.7157Z" fill="white"/>
<path d="M247.489 95.406C248.083 94.6467 248.969 94.1427 249.954 94.0042C250.938 93.8658 251.94 94.1043 252.74 94.6675C253.184 94.0998 253.441 93.4193 253.479 92.7124C253.517 92.0054 253.333 91.3036 252.952 90.696C252.57 90.0883 252.007 89.6021 251.335 89.2989C250.663 88.9956 249.911 88.889 249.175 88.9926C248.439 89.0961 247.752 89.4051 247.201 89.8804C246.649 90.3557 246.259 90.976 246.078 91.6627C245.897 92.3495 245.935 93.0717 246.186 93.7381C246.437 94.4044 246.891 94.9849 247.489 95.406Z" fill="white"/>
<path d="M248.537 93.1501C249.302 93.1501 249.922 92.5602 249.922 91.8324C249.922 91.1047 249.302 90.5147 248.537 90.5147C247.772 90.5147 247.152 91.1047 247.152 91.8324C247.152 92.5602 247.772 93.1501 248.537 93.1501Z" fill="#3F3D56"/>
<path d="M257.506 92.6937C258.271 92.6937 258.891 92.1038 258.891 91.376C258.891 90.6483 258.271 90.0583 257.506 90.0583C256.741 90.0583 256.121 90.6483 256.121 91.376C256.121 92.1038 256.741 92.6937 257.506 92.6937Z" fill="#3F3D56"/>
<path d="M255.639 96.4776C255.639 96.698 255.583 96.9151 255.476 97.1105C255.368 97.3059 255.213 97.4738 255.023 97.6C254.834 97.7262 254.614 97.8068 254.385 97.8352C254.155 97.8635 253.922 97.8386 253.704 97.7627C253.487 97.6868 253.292 97.5621 253.136 97.3991C252.98 97.2361 252.868 97.0397 252.809 96.8267C252.75 96.6136 252.745 96.3901 252.797 96.1751C252.848 95.9602 252.953 95.7602 253.103 95.5922C253.366 95.2964 253.671 96.2039 254.11 96.2039C254.566 96.2039 255.061 95.31 255.325 95.6241C255.528 95.8664 255.639 96.1674 255.639 96.4776Z" fill="white"/>
<path d="M251.035 98.3941H257.941C257.941 99.2655 257.577 100.101 256.929 100.717C256.282 101.333 255.403 101.68 254.488 101.68C253.572 101.68 252.693 101.333 252.046 100.717C251.398 100.101 251.035 99.2655 251.035 98.3941Z" fill="white"/>
<path d="M253.103 85.2526C254.136 85.2526 254.974 83.9043 254.974 82.241C254.974 80.5778 254.136 79.2294 253.103 79.2294C252.07 79.2294 251.233 80.5778 251.233 82.241C251.233 83.9043 252.07 85.2526 253.103 85.2526Z" fill="#6C63FF"/>
<path d="M257.513 83.8093C258.515 82.4468 258.642 80.8853 257.796 80.3216C256.95 79.7579 255.451 80.4054 254.448 81.7679C253.446 83.1304 253.319 84.6919 254.165 85.2556C255.011 85.8193 256.51 85.1718 257.513 83.8093Z" fill="#6C63FF"/>
<path d="M109.262 119.299H60.6377C59.9491 119.298 59.2888 119.038 58.8019 118.574C58.3149 118.111 58.041 117.483 58.0402 116.828V67.0268C58.041 66.3715 58.3149 65.7433 58.8019 65.28C59.2888 64.8167 59.9491 64.5561 60.6377 64.5553H109.262C109.951 64.5561 110.611 64.8167 111.098 65.28C111.585 65.7433 111.859 66.3715 111.86 67.0268V116.828C111.859 117.483 111.585 118.111 111.098 118.574C110.611 119.038 109.951 119.298 109.262 119.299ZM60.6377 65.5439C60.2245 65.5443 59.8284 65.7007 59.5362 65.9787C59.244 66.2567 59.0797 66.6336 59.0792 67.0268V116.828C59.0797 117.221 59.244 117.598 59.5362 117.876C59.8284 118.154 60.2245 118.31 60.6377 118.31H109.262C109.676 118.31 110.072 118.154 110.364 117.876C110.656 117.598 110.821 117.221 110.821 116.828V67.0268C110.821 66.6336 110.656 66.2567 110.364 65.9787C110.072 65.7007 109.676 65.5443 109.262 65.5439H60.6377Z" fill="#176977"/>
<path d="M193.771 119.299H145.146C144.457 119.298 143.797 119.038 143.31 118.574C142.823 118.111 142.549 117.483 142.548 116.828V67.0268C142.549 66.3715 142.823 65.7433 143.31 65.28C143.797 64.8167 144.457 64.5561 145.146 64.5553H193.771C194.459 64.5561 195.12 64.8167 195.606 65.28C196.093 65.7433 196.367 66.3715 196.368 67.0268V116.828C196.367 117.483 196.093 118.111 195.606 118.574C195.12 119.038 194.459 119.298 193.771 119.299ZM145.146 65.5439C144.733 65.5443 144.337 65.7007 144.044 65.9787C143.752 66.2567 143.588 66.6336 143.587 67.0268V116.828C143.588 117.221 143.752 117.598 144.044 117.876C144.337 118.154 144.733 118.31 145.146 118.31H193.771C194.184 118.31 194.58 118.154 194.872 117.876C195.164 117.598 195.329 117.221 195.329 116.828V67.0268C195.329 66.6336 195.164 66.2567 194.872 65.9787C194.58 65.7007 194.184 65.5443 193.771 65.5439H145.146Z" fill="#176977"/>
<path d="M278.279 119.299H229.654C228.965 119.298 228.305 119.038 227.818 118.574C227.331 118.111 227.057 117.483 227.057 116.828V67.0268C227.057 66.3715 227.331 65.7433 227.818 65.28C228.305 64.8167 228.965 64.5561 229.654 64.5553H278.279C278.967 64.5561 279.628 64.8167 280.115 65.28C280.602 65.7433 280.876 66.3715 280.876 67.0268V116.828C280.876 117.483 280.602 118.111 280.115 118.574C279.628 119.038 278.967 119.298 278.279 119.299ZM229.654 65.5439C229.241 65.5443 228.845 65.7007 228.553 65.9787C228.26 66.2567 228.096 66.6336 228.096 67.0268V116.828C228.096 117.221 228.26 117.598 228.553 117.876C228.845 118.154 229.241 118.31 229.654 118.31H278.279C278.692 118.31 279.088 118.154 279.38 117.876C279.673 117.598 279.837 117.221 279.837 116.828V67.0268C279.837 66.6336 279.673 66.2567 279.38 65.9787C279.088 65.7007 278.692 65.5443 278.279 65.5439H229.654Z" fill="#176977"/>
<path d="M59.4098 122.051C59.1956 122.051 58.9901 122.126 58.8386 122.26C58.6871 122.394 58.6019 122.576 58.6017 122.766V128.483C58.6019 128.673 58.6871 128.855 58.8386 128.989C58.9901 129.123 59.1956 129.198 59.4098 129.198H111.128C111.342 129.198 111.547 129.123 111.699 128.989C111.85 128.855 111.936 128.673 111.936 128.483V122.766C111.936 122.576 111.85 122.394 111.699 122.26C111.547 122.126 111.342 122.051 111.128 122.051H59.4098Z" fill="white"/>
<path d="M76.5308 126.558L77.2632 124.091H77.7144L77.5913 124.829L76.8531 127.261H76.4488L76.5308 126.558ZM76.1001 124.091L76.6714 126.569L76.7183 127.261H76.2671L75.4087 124.091H76.1001ZM78.3999 126.54L78.9536 124.091H79.6421L78.7866 127.261H78.3355L78.3999 126.54ZM77.7906 124.091L78.5142 126.528L78.605 127.261H78.2007L77.4536 124.826L77.3306 124.091H77.7906ZM80.8784 124.091V127.261H80.1695V124.091H80.8784ZM80.1226 123.259C80.1226 123.152 80.1577 123.063 80.2281 122.992C80.3003 122.92 80.3999 122.884 80.5269 122.884C80.6519 122.884 80.7505 122.92 80.8228 122.992C80.895 123.063 80.9312 123.152 80.9312 123.259C80.9312 123.364 80.895 123.452 80.8228 123.523C80.7505 123.593 80.6519 123.628 80.5269 123.628C80.3999 123.628 80.3003 123.593 80.2281 123.523C80.1577 123.452 80.1226 123.364 80.1226 123.259ZM82.3521 124.768V127.261H81.646V124.091H82.3111L82.3521 124.768ZM82.2261 125.559L81.9976 125.556C81.9995 125.331 82.0308 125.125 82.0913 124.938C82.1538 124.75 82.2398 124.589 82.3491 124.454C82.4605 124.319 82.5933 124.216 82.7476 124.144C82.9019 124.069 83.0738 124.032 83.2632 124.032C83.4156 124.032 83.5532 124.054 83.6763 124.097C83.8013 124.138 83.9077 124.205 83.9956 124.299C84.0855 124.393 84.1538 124.515 84.2007 124.665C84.2476 124.814 84.271 124.996 84.271 125.213V127.261H83.562V125.21C83.562 125.058 83.5396 124.938 83.4947 124.85C83.4517 124.76 83.3882 124.696 83.3042 124.659C83.2222 124.62 83.1197 124.601 82.9966 124.601C82.8755 124.601 82.7671 124.626 82.6714 124.677C82.5757 124.728 82.4947 124.797 82.4282 124.885C82.3638 124.973 82.314 125.074 82.2788 125.19C82.2437 125.305 82.2261 125.428 82.2261 125.559ZM85.6919 124.768V127.261H84.9859V124.091H85.6509L85.6919 124.768ZM85.5659 125.559L85.3374 125.556C85.3394 125.331 85.3706 125.125 85.4312 124.938C85.4937 124.75 85.5796 124.589 85.689 124.454C85.8003 124.319 85.9331 124.216 86.0874 124.144C86.2417 124.069 86.4136 124.032 86.6031 124.032C86.7554 124.032 86.8931 124.054 87.0161 124.097C87.1411 124.138 87.2476 124.205 87.3355 124.299C87.4253 124.393 87.4937 124.515 87.5406 124.665C87.5874 124.814 87.6109 124.996 87.6109 125.213V127.261H86.9019V125.21C86.9019 125.058 86.8794 124.938 86.8345 124.85C86.7915 124.76 86.7281 124.696 86.6441 124.659C86.562 124.62 86.4595 124.601 86.3365 124.601C86.2154 124.601 86.107 124.626 86.0113 124.677C85.9156 124.728 85.8345 124.797 85.7681 124.885C85.7036 124.973 85.6538 125.074 85.6187 125.19C85.5835 125.305 85.5659 125.428 85.5659 125.559ZM89.729 127.319C89.4947 127.319 89.2827 127.281 89.0933 127.205C88.9058 127.127 88.7456 127.019 88.6128 126.88C88.482 126.741 88.3814 126.578 88.3111 126.391C88.2407 126.203 88.2056 126.001 88.2056 125.784V125.667C88.2056 125.419 88.2417 125.194 88.314 124.993C88.3863 124.792 88.4868 124.62 88.6157 124.478C88.7447 124.333 88.897 124.223 89.0728 124.147C89.2486 124.07 89.439 124.032 89.6441 124.032C89.8706 124.032 90.0689 124.07 90.2388 124.147C90.4087 124.223 90.5493 124.33 90.6607 124.469C90.774 124.606 90.8579 124.769 90.9126 124.958C90.9693 125.148 90.9976 125.357 90.9976 125.585V125.887H88.5484V125.38H90.3003V125.324C90.2964 125.197 90.271 125.078 90.2241 124.967C90.1792 124.856 90.1099 124.766 90.0161 124.697C89.9224 124.629 89.7974 124.595 89.6411 124.595C89.524 124.595 89.4195 124.62 89.3277 124.671C89.2378 124.72 89.1626 124.791 89.1021 124.885C89.0415 124.979 88.9947 125.092 88.9615 125.225C88.9302 125.356 88.9146 125.503 88.9146 125.667V125.784C88.9146 125.923 88.9331 126.052 88.9702 126.171C89.0093 126.288 89.0659 126.391 89.1402 126.479C89.2144 126.567 89.3042 126.636 89.4097 126.687C89.5152 126.735 89.6353 126.76 89.77 126.76C89.94 126.76 90.0913 126.726 90.2241 126.657C90.357 126.589 90.4722 126.492 90.5699 126.367L90.9419 126.728C90.8736 126.827 90.7847 126.923 90.6753 127.015C90.5659 127.105 90.4322 127.178 90.274 127.235C90.1177 127.291 89.9361 127.319 89.729 127.319ZM92.2574 124.694V127.261H91.5513V124.091H92.2251L92.2574 124.694ZM93.2271 124.07L93.2212 124.727C93.1782 124.719 93.1314 124.713 93.0806 124.709C93.0318 124.705 92.9829 124.703 92.9341 124.703C92.813 124.703 92.7066 124.721 92.6148 124.756C92.523 124.789 92.4458 124.838 92.3833 124.902C92.3228 124.965 92.2759 125.041 92.2427 125.131C92.2095 125.221 92.19 125.321 92.1841 125.433L92.023 125.444C92.023 125.245 92.0425 125.061 92.0816 124.891C92.1206 124.721 92.1792 124.571 92.2574 124.443C92.3374 124.314 92.437 124.213 92.5562 124.141C92.6773 124.068 92.8169 124.032 92.9751 124.032C93.0181 124.032 93.064 124.036 93.1128 124.044C93.1636 124.052 93.2017 124.061 93.2271 124.07Z" fill="black"/>
<path d="M143.542 121.694C143.328 121.694 143.123 121.769 142.971 121.903C142.82 122.037 142.734 122.219 142.734 122.408V128.126C142.734 128.315 142.82 128.497 142.971 128.631C143.123 128.765 143.328 128.841 143.542 128.841H195.26C195.475 128.841 195.68 128.765 195.832 128.631C195.983 128.497 196.068 128.315 196.068 128.126V122.408C196.068 122.219 195.983 122.037 195.832 121.903C195.68 121.769 195.475 121.694 195.26 121.694H143.542Z" fill="white"/>
<path d="M157.344 124.89V127.457H156.638V124.287H157.312L157.344 124.89ZM158.314 124.266L158.308 124.922C158.265 124.915 158.218 124.909 158.167 124.905C158.118 124.901 158.069 124.899 158.021 124.899C157.899 124.899 157.793 124.916 157.701 124.952C157.609 124.985 157.532 125.034 157.47 125.098C157.409 125.161 157.362 125.237 157.329 125.327C157.296 125.416 157.276 125.517 157.271 125.628L157.109 125.64C157.109 125.441 157.129 125.256 157.168 125.086C157.207 124.916 157.266 124.767 157.344 124.638C157.424 124.509 157.524 124.409 157.643 124.336C157.764 124.264 157.903 124.228 158.062 124.228C158.105 124.228 158.15 124.232 158.199 124.24C158.25 124.248 158.288 124.256 158.314 124.266ZM160.438 126.821V125.309C160.438 125.196 160.417 125.098 160.376 125.016C160.335 124.934 160.273 124.871 160.189 124.826C160.107 124.781 160.003 124.758 159.878 124.758C159.763 124.758 159.663 124.778 159.579 124.817C159.495 124.856 159.43 124.909 159.383 124.975C159.336 125.041 159.313 125.117 159.313 125.201H158.609C158.609 125.076 158.64 124.955 158.7 124.837C158.761 124.72 158.849 124.616 158.964 124.524C159.079 124.432 159.217 124.36 159.377 124.307C159.537 124.254 159.717 124.228 159.916 124.228C160.154 124.228 160.365 124.268 160.549 124.348C160.734 124.428 160.88 124.549 160.985 124.711C161.093 124.872 161.147 125.073 161.147 125.315V126.724C161.147 126.869 161.156 126.999 161.176 127.114C161.197 127.227 161.228 127.326 161.267 127.41V127.457H160.543C160.51 127.38 160.483 127.284 160.464 127.166C160.446 127.047 160.438 126.932 160.438 126.821ZM160.54 125.529L160.546 125.965H160.039C159.908 125.965 159.793 125.978 159.693 126.003C159.594 126.027 159.511 126.062 159.444 126.109C159.378 126.156 159.328 126.212 159.295 126.279C159.262 126.345 159.245 126.42 159.245 126.504C159.245 126.588 159.265 126.666 159.304 126.736C159.343 126.804 159.399 126.858 159.474 126.897C159.55 126.936 159.642 126.956 159.749 126.956C159.894 126.956 160.02 126.926 160.127 126.868C160.236 126.807 160.322 126.734 160.385 126.648C160.447 126.56 160.481 126.477 160.484 126.399L160.713 126.712C160.69 126.792 160.649 126.878 160.593 126.97C160.536 127.062 160.462 127.15 160.37 127.234C160.28 127.316 160.172 127.383 160.045 127.436C159.92 127.489 159.775 127.515 159.611 127.515C159.404 127.515 159.22 127.474 159.058 127.392C158.896 127.308 158.769 127.196 158.677 127.055C158.585 126.913 158.539 126.751 158.539 126.572C158.539 126.404 158.57 126.255 158.633 126.126C158.697 125.996 158.791 125.886 158.914 125.798C159.039 125.71 159.191 125.644 159.371 125.599C159.551 125.552 159.756 125.529 159.986 125.529H160.54ZM163.18 126.953C163.295 126.953 163.399 126.93 163.49 126.885C163.584 126.838 163.659 126.774 163.716 126.692C163.774 126.61 163.807 126.515 163.813 126.408H164.478C164.474 126.613 164.413 126.799 164.296 126.967C164.179 127.135 164.024 127.269 163.83 127.369C163.637 127.466 163.423 127.515 163.189 127.515C162.946 127.515 162.735 127.474 162.556 127.392C162.376 127.308 162.227 127.193 162.108 127.046C161.988 126.9 161.899 126.731 161.838 126.54C161.779 126.348 161.75 126.143 161.75 125.924V125.822C161.75 125.603 161.779 125.398 161.838 125.207C161.899 125.013 161.988 124.843 162.108 124.697C162.227 124.55 162.376 124.436 162.556 124.354C162.735 124.27 162.945 124.228 163.186 124.228C163.44 124.228 163.662 124.279 163.854 124.38C164.045 124.48 164.195 124.62 164.305 124.799C164.416 124.977 164.474 125.184 164.478 125.42H163.813C163.807 125.303 163.777 125.198 163.725 125.104C163.674 125.008 163.602 124.932 163.508 124.875C163.416 124.819 163.306 124.791 163.177 124.791C163.034 124.791 162.916 124.82 162.822 124.878C162.729 124.935 162.655 125.013 162.603 125.113C162.55 125.21 162.512 125.321 162.488 125.444C162.467 125.565 162.456 125.691 162.456 125.822V125.924C162.456 126.055 162.467 126.182 162.488 126.305C162.51 126.428 162.547 126.539 162.6 126.636C162.654 126.732 162.729 126.809 162.822 126.868C162.916 126.924 163.035 126.953 163.18 126.953ZM166.417 127.515C166.183 127.515 165.971 127.477 165.781 127.401C165.594 127.323 165.434 127.214 165.301 127.076C165.17 126.937 165.069 126.774 164.999 126.586C164.929 126.399 164.894 126.197 164.894 125.98V125.863C164.894 125.615 164.93 125.39 165.002 125.189C165.074 124.988 165.175 124.816 165.304 124.673C165.433 124.529 165.585 124.418 165.761 124.342C165.937 124.266 166.127 124.228 166.332 124.228C166.559 124.228 166.757 124.266 166.927 124.342C167.097 124.418 167.237 124.526 167.349 124.665C167.462 124.801 167.546 124.964 167.601 125.154C167.657 125.343 167.686 125.552 167.686 125.781V126.083H165.236V125.576H166.988V125.52C166.984 125.393 166.959 125.274 166.912 125.163C166.867 125.051 166.798 124.961 166.704 124.893C166.61 124.825 166.485 124.791 166.329 124.791C166.212 124.791 166.108 124.816 166.016 124.867C165.926 124.916 165.851 124.987 165.79 125.081C165.73 125.174 165.683 125.288 165.649 125.42C165.618 125.551 165.603 125.699 165.603 125.863V125.98C165.603 126.119 165.621 126.248 165.658 126.367C165.697 126.484 165.754 126.586 165.828 126.674C165.902 126.762 165.992 126.832 166.098 126.882C166.203 126.931 166.323 126.956 166.458 126.956C166.628 126.956 166.779 126.921 166.912 126.853C167.045 126.785 167.16 126.688 167.258 126.563L167.63 126.923C167.562 127.023 167.473 127.119 167.363 127.21C167.254 127.3 167.12 127.374 166.962 127.43C166.806 127.487 166.624 127.515 166.417 127.515ZM170.44 124.89V127.457H169.733V124.287H170.407L170.44 124.89ZM171.409 124.266L171.403 124.922C171.36 124.915 171.314 124.909 171.263 124.905C171.214 124.901 171.165 124.899 171.116 124.899C170.995 124.899 170.889 124.916 170.797 124.952C170.705 124.985 170.628 125.034 170.566 125.098C170.505 125.161 170.458 125.237 170.425 125.327C170.392 125.416 170.372 125.517 170.366 125.628L170.205 125.64C170.205 125.441 170.225 125.256 170.264 125.086C170.303 124.916 170.361 124.767 170.44 124.638C170.52 124.509 170.619 124.409 170.738 124.336C170.859 124.264 170.999 124.228 171.157 124.228C171.2 124.228 171.246 124.232 171.295 124.24C171.346 124.248 171.384 124.256 171.409 124.266ZM171.641 125.907V125.839C171.641 125.611 171.674 125.399 171.74 125.204C171.807 125.006 171.902 124.835 172.027 124.691C172.154 124.544 172.309 124.431 172.49 124.351C172.674 124.269 172.881 124.228 173.111 124.228C173.344 124.228 173.551 124.269 173.733 124.351C173.916 124.431 174.071 124.544 174.198 124.691C174.325 124.835 174.422 125.006 174.488 125.204C174.555 125.399 174.588 125.611 174.588 125.839V125.907C174.588 126.135 174.555 126.347 174.488 126.542C174.422 126.738 174.325 126.909 174.198 127.055C174.071 127.2 173.917 127.313 173.735 127.395C173.554 127.475 173.348 127.515 173.117 127.515C172.885 127.515 172.677 127.475 172.493 127.395C172.312 127.313 172.157 127.2 172.03 127.055C171.903 126.909 171.807 126.738 171.74 126.542C171.674 126.347 171.641 126.135 171.641 125.907ZM172.347 125.839V125.907C172.347 126.049 172.361 126.184 172.391 126.311C172.42 126.438 172.466 126.549 172.528 126.645C172.591 126.741 172.671 126.816 172.769 126.871C172.866 126.925 172.983 126.953 173.117 126.953C173.248 126.953 173.361 126.925 173.457 126.871C173.555 126.816 173.635 126.741 173.697 126.645C173.76 126.549 173.806 126.438 173.835 126.311C173.866 126.184 173.882 126.049 173.882 125.907V125.839C173.882 125.699 173.866 125.566 173.835 125.441C173.806 125.314 173.759 125.202 173.694 125.104C173.632 125.006 173.552 124.93 173.454 124.875C173.358 124.819 173.244 124.791 173.111 124.791C172.979 124.791 172.863 124.819 172.766 124.875C172.67 124.93 172.591 125.006 172.528 125.104C172.466 125.202 172.42 125.314 172.391 125.441C172.361 125.566 172.347 125.699 172.347 125.839ZM175.045 125.907V125.839C175.045 125.611 175.078 125.399 175.145 125.204C175.211 125.006 175.307 124.835 175.432 124.691C175.559 124.544 175.713 124.431 175.895 124.351C176.078 124.269 176.285 124.228 176.516 124.228C176.748 124.228 176.955 124.269 177.137 124.351C177.32 124.431 177.476 124.544 177.603 124.691C177.73 124.835 177.826 125.006 177.893 125.204C177.959 125.399 177.992 125.611 177.992 125.839V125.907C177.992 126.135 177.959 126.347 177.893 126.542C177.826 126.738 177.73 126.909 177.603 127.055C177.476 127.2 177.321 127.313 177.14 127.395C176.958 127.475 176.752 127.515 176.522 127.515C176.289 127.515 176.081 127.475 175.898 127.395C175.716 127.313 175.562 127.2 175.435 127.055C175.308 126.909 175.211 126.738 175.145 126.542C175.078 126.347 175.045 126.135 175.045 125.907ZM175.751 125.839V125.907C175.751 126.049 175.766 126.184 175.795 126.311C175.824 126.438 175.87 126.549 175.933 126.645C175.995 126.741 176.075 126.816 176.173 126.871C176.271 126.925 176.387 126.953 176.522 126.953C176.652 126.953 176.766 126.925 176.861 126.871C176.959 126.816 177.039 126.741 177.102 126.645C177.164 126.549 177.21 126.438 177.239 126.311C177.271 126.184 177.286 126.049 177.286 125.907V125.839C177.286 125.699 177.271 125.566 177.239 125.441C177.21 125.314 177.163 125.202 177.099 125.104C177.036 125.006 176.956 124.93 176.858 124.875C176.763 124.819 176.649 124.791 176.516 124.791C176.383 124.791 176.268 124.819 176.17 124.875C176.074 124.93 175.995 125.006 175.933 125.104C175.87 125.202 175.824 125.314 175.795 125.441C175.766 125.566 175.751 125.699 175.751 125.839ZM179.29 124.931V127.457H178.584V124.287H179.249L179.29 124.931ZM179.176 125.754L178.936 125.751C178.936 125.533 178.963 125.331 179.018 125.145C179.072 124.959 179.152 124.798 179.258 124.662C179.363 124.523 179.494 124.416 179.65 124.342C179.809 124.266 179.991 124.228 180.198 124.228C180.343 124.228 180.475 124.249 180.594 124.292C180.715 124.333 180.819 124.399 180.907 124.489C180.997 124.579 181.066 124.694 181.112 124.834C181.161 124.975 181.186 125.145 181.186 125.344V127.457H180.48V125.406C180.48 125.251 180.456 125.13 180.409 125.042C180.364 124.955 180.299 124.892 180.213 124.855C180.129 124.816 180.028 124.796 179.911 124.796C179.778 124.796 179.665 124.822 179.571 124.873C179.48 124.923 179.404 124.993 179.346 125.081C179.287 125.168 179.244 125.27 179.217 125.385C179.19 125.5 179.176 125.624 179.176 125.754ZM181.142 125.567L180.811 125.64C180.811 125.449 180.837 125.268 180.89 125.098C180.944 124.926 181.024 124.776 181.127 124.647C181.233 124.516 181.362 124.414 181.517 124.339C181.671 124.265 181.848 124.228 182.047 124.228C182.209 124.228 182.354 124.25 182.481 124.295C182.609 124.338 182.719 124.407 182.809 124.5C182.899 124.594 182.967 124.716 183.014 124.867C183.061 125.015 183.084 125.195 183.084 125.406V127.457H182.375V125.403C182.375 125.243 182.352 125.119 182.305 125.031C182.26 124.943 182.195 124.882 182.111 124.849C182.027 124.814 181.927 124.796 181.81 124.796C181.7 124.796 181.604 124.817 181.52 124.858C181.438 124.897 181.368 124.953 181.312 125.025C181.255 125.095 181.212 125.176 181.183 125.268C181.155 125.36 181.142 125.459 181.142 125.567Z" fill="black"/>
<path d="M60.4797 171.984L59.3529 176.629C59.3529 176.629 59.7285 187.35 56.7238 186.278C53.7191 185.206 54.4702 175.915 54.4702 175.915L57.0994 171.269L60.4797 171.984Z" fill="#FFB8B8"/>
<path d="M50.5265 121.79C54.6752 121.79 58.0384 118.59 58.0384 114.643C58.0384 110.696 54.6752 107.496 50.5265 107.496C46.3779 107.496 43.0147 110.696 43.0147 114.643C43.0147 118.59 46.3779 121.79 50.5265 121.79Z" fill="#FFB8B8"/>
<path d="M44.7049 116.608L43.9537 126.972L53.3435 128.044C53.3435 128.044 53.3435 119.467 54.0947 118.395C54.8458 117.323 44.7049 116.608 44.7049 116.608Z" fill="#FFB8B8"/>
<path d="M65.5284 130.104L53.3612 125.214C53.3612 125.214 47.5472 120.953 44.142 124.11L42.6137 126.192C42.6137 126.192 29.097 131.207 29.1006 135.138L34.3769 154.788C34.3769 154.788 31.3824 165.868 35.8902 166.579L60.3056 168.703C60.3056 168.703 63.6823 164.769 60.673 159.769L61.7889 147.975L65.5284 130.104Z" fill="#F9E1C7"/>
<path d="M57.2657 130.468L65.5284 130.104C65.5284 130.104 68.1582 130.817 70.0424 137.605C71.9266 144.393 72.3124 155.471 72.3124 155.471L67.8237 175.487L62.1892 174.777L64.425 155.478L60.6572 142.616L57.2657 130.468Z" fill="#E6E6E6"/>
<path d="M33.6054 132.632L29.5327 133.843C29.5327 133.843 26.0992 138.714 26.1015 141.215C26.1038 143.717 24.6188 162.658 24.6188 162.658L34.3983 178.016L37.3962 170.509L31.3778 160.865L36.2497 149.069L33.6054 132.632Z" fill="#E6E6E6"/>
<path d="M61.4187 167.889L34.4148 165.628C34.4148 165.628 31.7469 181.826 32.1225 188.258C32.4981 194.691 32.8737 204.697 32.8737 204.697L29.869 248.294L41.5123 246.865L43.0147 210.772L47.8974 191.117L53.5312 216.132L57.2872 248.294L67.4281 247.222L64.0478 208.27C64.0478 208.27 67.0525 173.249 61.4187 167.889Z" fill="#456EB8"/>
<path d="M65.1746 245.435L68.5549 246.507C68.5549 246.507 75.6912 244.721 73.8132 249.366C71.9353 254.012 66.677 253.297 66.677 253.297C66.677 253.297 60.2919 257.943 57.6628 254.369L59.1651 246.865L65.1746 245.435Z" fill="#2F2E41"/>
<path d="M37.7564 245.435L41.1367 246.507C41.1367 246.507 48.273 244.721 46.395 249.366C44.5171 254.012 39.2588 253.297 39.2588 253.297C39.2588 253.297 32.8737 257.943 30.2446 254.369L31.7469 246.865L37.7564 245.435Z" fill="#2F2E41"/>
<path d="M44.7049 120.897C44.7049 120.897 36.8174 115.536 40.9489 109.104C43.8152 104.641 49.7544 104.995 53.1234 105.63C54.031 105.789 54.8843 106.156 55.6097 106.699C56.3351 107.242 56.9108 107.945 57.2872 108.747C57.8506 109.997 57.8506 111.248 55.597 111.248C51.0899 111.248 53.3435 114.464 53.3435 114.464C53.3435 114.464 50.3387 115.179 51.0899 117.68C51.8411 120.182 44.7049 120.897 44.7049 120.897Z" fill="#2F2E41"/>
<path d="M295.345 242.465C295.345 242.465 287.016 243.074 287.87 245.919C288.725 248.764 295.345 248.358 295.345 248.358C295.345 248.358 300.471 247.951 303.247 248.764C306.024 249.577 309.227 248.764 309.441 247.342C309.655 245.919 307.946 244.903 307.946 244.903L306.878 242.871L295.345 242.465Z" fill="#2F2E41"/>
<path d="M273.454 178.964L272.6 182.215C272.6 182.215 268.755 189.733 273.454 189.733C278.153 189.733 276.444 182.825 276.444 182.825L276.871 179.573L273.454 178.964Z" fill="#9F616A"/>
<path d="M314.674 176.322L315.528 179.573C315.528 179.573 319.372 187.092 314.674 187.092C309.975 187.092 311.683 180.183 311.683 180.183L311.256 176.932L314.674 176.322Z" fill="#9F616A"/>
<path d="M292.462 121.051C297.534 121.051 301.646 117.139 301.646 112.313C301.646 107.487 297.534 103.575 292.462 103.575C287.39 103.575 283.278 107.487 283.278 112.313C283.278 117.139 287.39 121.051 292.462 121.051Z" fill="#9F616A"/>
<path d="M289.686 119.019C289.686 119.019 290.753 123.692 290.113 125.928C289.472 128.163 303.354 125.521 303.354 125.521C303.354 125.521 298.442 117.799 298.656 117.596L289.686 119.019Z" fill="#9F616A"/>
<path d="M291.798 124.193C291.798 124.193 287.953 123.18 286.672 124.4C285.392 125.62 277.92 129.081 277.92 129.081L283.073 158.948L305.281 154.256L309.099 126.007C309.099 126.007 303.039 122.633 302.01 123.307C300.981 123.982 291.798 124.193 291.798 124.193Z" fill="#E6E6E6"/>
<path d="M279.629 129.283L278.603 128.761C278.603 128.761 274.717 129.49 274.933 132.335C275.149 135.179 276.018 151.029 276.018 151.029L272.627 179.683L278.822 180.694L284.993 156.711L279.629 129.283Z" fill="#E6E6E6"/>
<path d="M308.459 126.617L309.483 126.093C309.483 126.093 313.371 126.816 313.16 129.661C312.949 132.506 312.109 148.357 312.109 148.357L315.553 177.006L309.36 178.027L303.145 154.054L308.459 126.617Z" fill="#E6E6E6"/>
<path d="M283.278 156.002L282.424 168.397L279.648 193.188L283.705 244.599L297.801 245.005L293.53 196.033L297.801 179.167L311.763 178.675C311.763 178.675 312.751 159.253 304.849 153.157L283.278 156.002Z" fill="#3BA27A"/>
<path d="M298.656 176.322L296.413 221.129L295.666 243.786L308.266 245.005L311.446 178.373L306.558 173.681L298.656 176.322Z" fill="#3BA27A"/>
<path d="M296.52 100.73C296.52 100.73 288.191 99.7143 285.841 103.575C285.841 103.575 285.201 106.42 283.065 107.436C280.929 108.452 283.492 111.906 284.133 112.923C284.773 113.939 286.482 119.831 284.56 121.254C282.638 122.676 287.977 126.74 287.977 126.74C287.977 126.74 290.54 129.992 288.404 132.43C286.268 134.868 291.181 135.681 291.181 135.681C291.181 135.681 290.113 142.59 292.035 140.761C292.035 140.761 292.889 156.408 301.005 146.654C309.121 136.901 312.538 132.227 309.121 128.366C305.704 124.505 308.266 121.051 308.266 121.051C308.266 121.051 309.334 119.019 306.985 115.971C304.636 112.923 304.636 100.73 296.52 100.73Z" fill="#2F2E41"/>
<path d="M297.035 246.899C297.035 246.899 288.706 247.508 289.56 250.353C290.415 253.198 297.035 252.792 297.035 252.792C297.035 252.792 302.161 252.385 304.938 253.198C307.714 254.011 310.918 253.198 311.131 251.776C311.345 250.353 309.636 249.337 309.636 249.337L308.568 247.305L297.035 246.899Z" fill="#2F2E41"/>
<path d="M202.534 79.7724L190.34 72.7828L193.901 85.8971L196.048 81.1192L199.628 85.687L200.69 84.9337L197.109 80.3659L202.534 79.7724Z" fill="#0B5B6A"/>
<path d="M228.426 121.694C228.212 121.694 228.006 121.769 227.855 121.903C227.703 122.037 227.618 122.219 227.618 122.408V128.126C227.618 128.315 227.703 128.497 227.855 128.631C228.006 128.765 228.212 128.841 228.426 128.841H280.144C280.358 128.841 280.564 128.765 280.715 128.631C280.867 128.497 280.952 128.315 280.952 128.126V122.408C280.952 122.219 280.867 122.037 280.715 121.903C280.564 121.769 280.358 121.694 280.144 121.694H228.426Z" fill="white"/>
<path d="M249.459 126.753L250.191 124.287H250.642L250.519 125.025L249.781 127.457H249.377L249.459 126.753ZM249.028 124.287L249.599 126.765L249.646 127.457H249.195L248.337 124.287H249.028ZM251.328 126.736L251.882 124.287H252.57L251.715 127.457H251.263L251.328 126.736ZM250.719 124.287L251.442 126.724L251.533 127.457H251.129L250.382 125.022L250.259 124.287H250.719ZM252.916 125.907V125.839C252.916 125.611 252.949 125.399 253.015 125.204C253.082 125.006 253.178 124.835 253.303 124.691C253.43 124.544 253.584 124.431 253.765 124.351C253.949 124.269 254.156 124.228 254.387 124.228C254.619 124.228 254.826 124.269 255.008 124.351C255.191 124.431 255.346 124.544 255.473 124.691C255.6 124.835 255.697 125.006 255.763 125.204C255.83 125.399 255.863 125.611 255.863 125.839V125.907C255.863 126.135 255.83 126.347 255.763 126.542C255.697 126.738 255.6 126.909 255.473 127.055C255.346 127.2 255.192 127.313 255.011 127.395C254.829 127.475 254.623 127.515 254.392 127.515C254.16 127.515 253.952 127.475 253.768 127.395C253.587 127.313 253.432 127.2 253.305 127.055C253.179 126.909 253.082 126.738 253.015 126.542C252.949 126.347 252.916 126.135 252.916 125.907ZM253.622 125.839V125.907C253.622 126.049 253.637 126.184 253.666 126.311C253.695 126.438 253.741 126.549 253.804 126.645C253.866 126.741 253.946 126.816 254.044 126.871C254.141 126.925 254.258 126.953 254.392 126.953C254.523 126.953 254.637 126.925 254.732 126.871C254.83 126.816 254.91 126.741 254.972 126.645C255.035 126.549 255.081 126.438 255.11 126.311C255.141 126.184 255.157 126.049 255.157 125.907V125.839C255.157 125.699 255.141 125.566 255.11 125.441C255.081 125.314 255.034 125.202 254.97 125.104C254.907 125.006 254.827 124.93 254.729 124.875C254.634 124.819 254.519 124.791 254.387 124.791C254.254 124.791 254.138 124.819 254.041 124.875C253.945 124.93 253.866 125.006 253.804 125.104C253.741 125.202 253.695 125.314 253.666 125.441C253.637 125.566 253.622 125.699 253.622 125.839ZM257.164 124.89V127.457H256.458V124.287H257.132L257.164 124.89ZM258.134 124.266L258.128 124.922C258.085 124.915 258.038 124.909 257.987 124.905C257.938 124.901 257.889 124.899 257.841 124.899C257.72 124.899 257.613 124.916 257.521 124.952C257.43 124.985 257.352 125.034 257.29 125.098C257.229 125.161 257.182 125.237 257.149 125.327C257.116 125.416 257.096 125.517 257.091 125.628L256.93 125.64C256.93 125.441 256.949 125.256 256.988 125.086C257.027 124.916 257.086 124.767 257.164 124.638C257.244 124.509 257.344 124.409 257.463 124.336C257.584 124.264 257.723 124.228 257.882 124.228C257.925 124.228 257.971 124.232 258.019 124.24C258.07 124.248 258.108 124.256 258.134 124.266ZM260.451 126.8V122.957H261.16V127.457H260.518L260.451 126.8ZM258.388 125.907V125.845C258.388 125.605 258.417 125.386 258.473 125.189C258.53 124.99 258.612 124.819 258.72 124.676C258.827 124.532 258.958 124.421 259.112 124.345C259.266 124.267 259.44 124.228 259.634 124.228C259.825 124.228 259.993 124.265 260.138 124.339C260.282 124.414 260.405 124.52 260.507 124.659C260.608 124.795 260.689 124.959 260.75 125.151C260.81 125.34 260.853 125.551 260.879 125.784V125.98C260.853 126.207 260.81 126.414 260.75 126.601C260.689 126.789 260.608 126.951 260.507 127.087C260.405 127.224 260.281 127.33 260.135 127.404C259.99 127.478 259.821 127.515 259.628 127.515C259.436 127.515 259.263 127.475 259.109 127.395C258.957 127.315 258.827 127.203 258.72 127.058C258.612 126.914 258.53 126.744 258.473 126.548C258.417 126.351 258.388 126.137 258.388 125.907ZM259.095 125.845V125.907C259.095 126.051 259.107 126.186 259.133 126.311C259.16 126.436 259.202 126.546 259.259 126.642C259.315 126.736 259.388 126.81 259.478 126.865C259.57 126.917 259.68 126.944 259.806 126.944C259.967 126.944 260.098 126.909 260.202 126.838C260.305 126.768 260.387 126.673 260.445 126.554C260.506 126.433 260.547 126.298 260.568 126.15V125.62C260.556 125.504 260.532 125.397 260.495 125.297C260.46 125.198 260.412 125.111 260.351 125.037C260.291 124.96 260.216 124.902 260.126 124.861C260.038 124.818 259.933 124.796 259.812 124.796C259.683 124.796 259.574 124.824 259.484 124.878C259.394 124.933 259.32 125.008 259.262 125.104C259.205 125.2 259.163 125.311 259.136 125.438C259.108 125.565 259.095 125.701 259.095 125.845Z" fill="black"/>
</svg>
