<svg width="200" height="200" viewBox="0 0 200 200" fill="none" xmlns="http://www.w3.org/2000/svg">
<g filter="url(#filter0_d_8_247)">
<circle cx="104" cy="81" r="75" fill="url(#paint0_linear_8_247)"/>
<g clip-path="url(#clip0_8_247)">
<path d="M74.7019 102.152C71.9608 102.152 69.7301 100.035 69.7301 97.4325H66.4155C66.4155 100.035 64.1848 102.152 61.4437 102.152V105.299C64.1848 105.299 66.4155 107.417 66.4155 110.019H69.7301C69.7301 107.417 71.9608 105.299 74.7019 105.299V102.152ZM68.0728 105.348C67.5889 104.73 67.0155 104.185 66.3642 103.726C67.0155 103.266 67.5889 102.722 68.0728 102.104C68.5567 102.722 69.1302 103.266 69.7815 103.726C69.1302 104.185 68.5567 104.73 68.0728 105.348Z" fill="white"/>
<path d="M150.937 103.726H147.622V61.2463C147.622 46.4981 134.982 34.5 119.444 34.5H118.62C102.629 34.5 89.6175 46.8521 89.6175 62.033V73.8328C89.6175 74.7013 90.3599 75.4061 91.2748 75.4061H96.2466V78.5528C96.2466 79.4212 96.9891 80.1261 97.9039 80.1261H102.592C101.908 81.9574 100.065 83.2727 97.9039 83.2727C96.9891 83.2727 96.2466 83.9775 96.2466 84.846V86.4193C96.2466 90.7569 99.9639 94.2859 104.533 94.2859H121.106V103.726H99.5612C85.8538 103.726 74.7019 114.313 74.7019 127.325V128.899H78.0165V127.325C78.0165 116.048 87.6818 106.872 99.5612 106.872H121.802L134.583 128.106C134.88 128.598 135.43 128.899 136.021 128.899C136.053 128.899 136.084 128.899 136.116 128.897C136.744 128.863 137.296 128.494 137.544 127.947L147.057 106.872H150.937V103.726ZM122.763 91.1393H104.533C101.792 91.1393 99.5612 89.0216 99.5612 86.4193V86.2604C103.338 85.5304 106.19 82.3507 106.19 78.5528C106.19 77.6843 105.448 76.9794 104.533 76.9794H99.5612V73.8328C99.5612 72.9643 98.8187 72.2595 97.9039 72.2595H92.932V62.033C92.932 48.5859 104.455 37.6466 118.62 37.6466H119.444C133.154 37.6466 144.308 48.2334 144.308 61.2463V103.726H124.42V92.7126C124.42 91.8441 123.678 91.1393 122.763 91.1393ZM135.809 123.801L125.619 106.872H143.451L135.809 123.801Z" fill="white"/>
<path d="M92.768 85.5272C93.0447 84.9829 92.9668 84.3347 92.5674 83.8627L86.3029 76.4272V59.673C86.3029 55.3354 82.5856 51.8064 78.0165 51.8064H59.7864C55.2173 51.8064 51.5 55.3354 51.5 59.673V78.5528C51.5 82.8904 55.2173 86.4193 59.7864 86.4193H91.2748C91.9111 86.4193 92.4929 86.0732 92.768 85.5272ZM59.7864 83.2727C57.0453 83.2727 54.8146 81.155 54.8146 78.5528V59.673C54.8146 57.0707 57.0453 54.9531 59.7864 54.9531H78.0165C80.7576 54.9531 82.9883 57.0707 82.9883 59.673V76.9794C82.9883 77.3366 83.116 77.6827 83.3513 77.9628L87.826 83.2727H59.7864Z" fill="white"/>
<path d="M68.9015 59.673C62.9618 59.673 58.1291 63.9068 58.1291 69.1129C58.1291 74.319 62.9618 78.5527 68.9015 78.5527C74.8412 78.5527 79.6738 74.319 79.6738 69.1129C79.6738 63.9068 74.8412 59.673 68.9015 59.673ZM76.0941 67.5396H72.9916C72.922 66.4194 72.758 64.9546 72.39 63.5843C74.2048 64.4039 75.5654 65.8231 76.0941 67.5396ZM68.1358 70.6862H69.6671C69.5395 72.5034 69.218 73.891 68.9015 74.7123C68.5849 73.891 68.2634 72.5034 68.1358 70.6862ZM68.1358 67.5396C68.2634 65.7224 68.5849 64.3347 68.9015 63.5135C69.218 64.3347 69.5395 65.7224 69.6671 67.5396H68.1358ZM65.4129 63.5843C65.045 64.953 64.8809 66.4194 64.8113 67.5396H61.7089C62.2375 65.8231 63.5982 64.4039 65.4129 63.5843ZM61.7089 70.6862H64.8113C64.8809 71.8064 65.045 73.2711 65.4129 74.6415C63.5982 73.8218 62.2375 72.4027 61.7089 70.6862ZM72.39 74.6415C72.758 73.2727 72.922 71.8064 72.9916 70.6862H76.0941C75.5654 72.4027 74.2048 73.8218 72.39 74.6415Z" fill="white"/>
<path d="M107.848 64.3929C105.106 64.3929 102.876 62.2753 102.876 59.673H99.5612C99.5612 64.0106 103.278 67.5396 107.848 67.5396C112.417 67.5396 116.134 64.0106 116.134 59.673H112.819C112.819 62.2753 110.589 64.3929 107.848 64.3929Z" fill="white"/>
<path d="M119.449 110.019H116.134V113.166H119.449V110.019Z" fill="white"/>
<path d="M112.819 110.019H109.505V113.166H112.819V110.019Z" fill="white"/>
<path d="M106.19 110.019H102.876V113.166H106.19V110.019Z" fill="white"/>
</g>
</g>
<path d="M8.1164 137.599L24.0162 123.017L25.6443 126.459L13.2195 137.233L30.1576 136.002L31.5763 139.003L19.2221 149.925L36.0926 148.552L37.7207 151.995L15.6184 153.462L14.1437 150.344L26.407 139.399L9.59105 140.717L8.1164 137.599ZM48.1269 160.658C49.6372 162.094 50.6951 163.661 51.2994 165.361C51.8971 167.06 51.9858 168.784 51.5641 170.531C51.1431 172.285 50.2058 173.896 48.7529 175.361C47.2797 176.848 45.6415 177.85 43.8367 178.369C42.0385 178.888 40.2264 178.897 38.3991 178.398C36.5718 177.891 34.8819 176.9 33.3295 175.424C32.3056 174.45 31.4876 173.37 30.8768 172.184C30.2631 171.001 29.8893 169.765 29.7563 168.474C29.6196 167.187 29.8108 165.863 30.3314 164.502C30.8484 163.137 31.7006 161.856 32.8888 160.657C34.3685 159.164 36.0053 158.167 37.7999 157.665C39.5953 157.169 41.3833 157.181 43.1663 157.698C44.9485 158.222 46.602 159.209 48.1269 160.658ZM46.9809 164.508C46.6137 163.926 46.1803 163.397 45.68 162.922C45.1797 162.446 44.6329 162.042 44.0389 161.71C43.4477 161.381 42.8063 161.137 42.1148 160.979C41.4306 160.82 40.7369 160.773 40.0352 160.837C39.34 160.901 38.6209 161.115 37.8785 161.481C37.1397 161.843 36.4431 162.354 35.7879 163.015C34.2268 164.59 33.4712 166.329 33.5207 168.232C33.5701 170.135 34.3395 171.794 35.8287 173.211C36.4482 173.799 37.1462 174.27 37.9228 174.623C38.7038 174.979 39.5327 175.198 40.4089 175.28C41.2888 175.359 42.2101 175.207 43.1728 174.825C44.1356 174.443 45.0394 173.826 45.8844 172.973C46.573 172.278 47.098 171.543 47.4586 170.768C47.8222 169.99 48.0207 169.248 48.0549 168.542C48.0891 167.829 48.0098 167.125 47.8164 166.429C47.623 165.726 47.3445 165.086 46.9809 164.508ZM73.1589 182.726C72.8687 183.304 72.5204 183.82 72.114 184.273C71.7097 184.732 71.2312 185.13 70.6779 185.465C70.1223 185.804 69.481 186.037 68.7545 186.166C68.0252 186.289 67.2414 186.282 66.4037 186.144L68.1946 196.441L63.9103 194.381L62.243 184.829L59.0937 183.314L55.559 190.363L52.2716 188.781L61.3907 170.597L69.2897 174.396C69.6831 174.586 70.0387 174.77 70.3564 174.949C70.6691 175.126 71.0392 175.369 71.4661 175.675C71.8936 175.981 72.2521 176.289 72.5422 176.599C72.836 176.91 73.1102 177.29 73.3639 177.736C73.6206 178.189 73.7878 178.655 73.8678 179.135C73.95 179.61 73.9355 180.159 73.8242 180.781C73.7202 181.401 73.4977 182.049 73.1589 182.726ZM66.8429 176.888L63.1955 175.134L60.5822 180.345L63.6129 181.803C64.1379 182.055 64.6105 182.261 65.0301 182.421C65.4453 182.578 65.894 182.706 66.3761 182.805C66.8538 182.902 67.2784 182.923 67.6486 182.867C68.018 182.811 68.3757 182.661 68.7204 182.417C69.0629 182.167 69.3479 181.815 69.5755 181.361C70.4262 179.665 69.5159 178.174 66.8429 176.888ZM89.8803 183.084L86.1515 182.526L84.045 196.014L86.6823 196.409C87.3418 196.508 87.8901 196.581 88.3264 196.627C88.7583 196.672 89.3342 196.691 90.0556 196.683C90.7718 196.675 91.3935 196.605 91.9214 196.477C92.4435 196.353 93.0041 196.125 93.6026 195.795C94.1967 195.464 94.7173 195.035 95.1645 194.508C95.9869 193.535 96.5104 192.329 96.7351 190.891C96.8638 190.065 96.8653 189.286 96.738 188.552C96.6108 187.823 96.389 187.191 96.0734 186.656C95.7615 186.126 95.371 185.643 94.902 185.206C94.4373 184.775 93.9501 184.419 93.4419 184.14C92.938 183.861 92.4079 183.642 91.8516 183.481C91.3804 183.343 90.7231 183.211 89.8803 183.084ZM83.0357 178.713L90.2897 179.8C91.5753 179.993 92.7453 180.269 93.7982 180.63C94.8511 180.991 95.7433 181.397 96.4763 181.85C97.2136 182.307 97.8498 182.823 98.3865 183.396C98.9289 183.965 99.3521 184.552 99.6568 185.158C99.9673 185.759 100.199 186.4 100.355 187.081C100.51 187.756 100.588 188.407 100.589 189.035C100.594 189.668 100.545 190.313 100.442 190.968C100.307 191.836 100.106 192.661 99.8415 193.442C99.5717 194.222 99.1892 195 98.6933 195.776C98.1967 196.556 97.6128 197.234 96.9409 197.809C96.2647 198.383 95.427 198.869 94.4286 199.265C93.431 199.656 92.3221 199.89 91.1027 199.968C90.4751 200.01 89.7872 200.011 89.039 199.971C88.2908 199.931 87.6778 199.88 87.1993 199.818C86.726 199.757 86.0606 199.662 85.2033 199.533L79.9068 198.74L83.0357 178.713ZM135.499 179.368C135.692 179.985 135.798 180.594 135.818 181.197C135.845 181.803 135.773 182.414 135.603 183.028C135.435 183.648 135.131 184.248 134.691 184.829C134.244 185.407 133.668 185.927 132.961 186.388L141.46 192.698L136.896 194.066L129.007 188.217L125.652 189.222L127.998 196.732L124.497 197.781L118.445 178.408L126.859 175.886C127.279 175.76 127.667 175.657 128.023 175.575C128.375 175.495 128.815 175.423 129.34 175.36C129.865 175.297 130.342 175.282 130.77 175.313C131.203 175.344 131.667 175.436 132.164 175.591C132.667 175.75 133.116 175.978 133.508 176.274C133.9 176.566 134.273 176.976 134.627 177.504C134.983 178.026 135.275 178.647 135.499 179.368ZM126.816 179.343L122.93 180.508L124.664 186.059L127.893 185.092C128.452 184.924 128.94 184.758 129.358 184.593C129.771 184.43 130.187 184.222 130.608 183.971C131.024 183.722 131.348 183.453 131.579 183.164C131.81 182.875 131.966 182.526 132.047 182.117C132.122 181.706 132.085 181.258 131.933 180.774C131.369 178.967 129.663 178.49 126.816 179.343ZM149.627 187.843L144.532 166.631L147.831 164.382L166.363 176.43L163.268 178.541L158.277 175.48L151.343 180.209L152.542 185.856L149.627 187.843ZM150.465 176.795L155.3 173.498L148.508 168.979L150.465 176.795ZM164.549 147.165C165.92 145.513 167.517 144.182 169.34 143.173L169.851 142.897L171.566 145.711L171.074 146.02C169.397 147.059 168.077 148.158 167.115 149.317C166.356 150.232 165.807 151.2 165.468 152.222C165.125 153.241 164.997 154.212 165.085 155.136C165.17 156.054 165.429 156.92 165.858 157.735C166.286 158.543 166.861 159.234 167.583 159.809C168.328 160.402 169.163 160.815 170.088 161.047C171.02 161.278 171.967 161.321 172.928 161.177C173.897 161.031 174.874 160.659 175.861 160.061C176.851 159.465 177.757 158.673 178.577 157.683C179.579 156.476 180.363 155.092 180.929 153.532L181.118 153.009L184.137 153.899L183.977 154.455C183.35 156.611 182.298 158.579 180.823 160.357C179.68 161.735 178.426 162.815 177.06 163.598C175.699 164.384 174.341 164.844 172.987 164.978C171.629 165.108 170.29 164.978 168.971 164.585C167.65 164.186 166.417 163.53 165.272 162.619C164.11 161.694 163.2 160.635 162.54 159.44C161.887 158.244 161.506 156.978 161.397 155.642C161.29 154.309 161.503 152.91 162.034 151.445C162.559 149.98 163.397 148.554 164.549 147.165ZM195.475 131.878L189.736 144.929L170.737 136.914L176.478 123.863L179.579 125.172L175.294 134.916L179.852 136.839L183.822 127.811L186.923 129.119L182.953 138.147L188.089 140.314L192.374 130.569L195.475 131.878ZM0 103.304C0 99.0291 3.53829 95.5642 7.90189 95.5642C12.2662 95.5642 15.8038 99.0291 15.8038 103.304C15.8038 107.578 12.2662 111.043 7.90189 111.043C3.53829 111.043 0 107.578 0 103.304ZM184.197 103.304C184.197 99.0291 187.735 95.5642 192.098 95.5642C196.462 95.5642 200 99.0291 200 103.304C200 107.578 196.462 111.043 192.098 111.043C187.735 111.043 184.197 107.578 184.197 103.304Z" fill="url(#paint1_linear_8_247)"/>
<defs>
<filter id="filter0_d_8_247" x="19" y="0" width="170" height="170" filterUnits="userSpaceOnUse" color-interpolation-filters="sRGB">
<feFlood flood-opacity="0" result="BackgroundImageFix"/>
<feColorMatrix in="SourceAlpha" type="matrix" values="0 0 0 0 0 0 0 0 0 0 0 0 0 0 0 0 0 0 127 0" result="hardAlpha"/>
<feOffset dy="4"/>
<feGaussianBlur stdDeviation="5"/>
<feComposite in2="hardAlpha" operator="out"/>
<feColorMatrix type="matrix" values="0 0 0 0 0.168627 0 0 0 0 0.278431 0 0 0 0 0.32549 0 0 0 1 0"/>
<feBlend mode="normal" in2="BackgroundImageFix" result="effect1_dropShadow_8_247"/>
<feBlend mode="normal" in="SourceGraphic" in2="effect1_dropShadow_8_247" result="shape"/>
</filter>
<linearGradient id="paint0_linear_8_247" x1="17.1343" y1="81" x2="179" y2="81" gradientUnits="userSpaceOnUse">
<stop stop-color="#5BB9CA"/>
<stop offset="1" stop-color="#1D7483"/>
</linearGradient>
<linearGradient id="paint1_linear_8_247" x1="-15.8209" y1="139.5" x2="200" y2="139.5" gradientUnits="userSpaceOnUse">
<stop stop-color="#5BB9CA"/>
<stop offset="1" stop-color="#1D7483"/>
</linearGradient>
<clipPath id="clip0_8_247">
<rect width="99.4369" height="94.3988" fill="white" transform="translate(51.5 34.5)"/>
</clipPath>
</defs>
</svg>
