<svg width="24" height="24" viewBox="0 0 24 24" fill="none" xmlns="http://www.w3.org/2000/svg">
<g clip-path="url(#clip0_135_194)">
<path fill-rule="evenodd" clip-rule="evenodd" d="M13.2281 2.68799C12.877 2.41488 12.4449 2.2666 12.0001 2.2666C11.5553 2.2666 11.1232 2.41488 10.7721 2.68799L2.3881 9.20799C1.6361 9.79499 2.0501 11 3.0031 11H4.0001V19C4.0001 19.5304 4.21082 20.0391 4.58589 20.4142C4.96096 20.7893 5.46967 21 6.0001 21H11.0001V14C11.0001 13.7348 11.1055 13.4804 11.293 13.2929C11.4805 13.1053 11.7349 13 12.0001 13C12.2653 13 12.5197 13.1053 12.7072 13.2929C12.8947 13.4804 13.0001 13.7348 13.0001 14V21H18.0001C18.5305 21 19.0392 20.7893 19.4143 20.4142C19.7894 20.0391 20.0001 19.5304 20.0001 19V11H20.9971C21.9491 11 22.3651 9.79499 21.6121 9.20899L13.2281 2.68799Z" fill="url(#paint0_linear_135_194)"/>
</g>
<defs>
<linearGradient id="paint0_linear_135_194" x1="0.417879" y1="11.6333" x2="22.0004" y2="11.6333" gradientUnits="userSpaceOnUse">
<stop stop-color="#5BB9CA"/>
<stop offset="1" stop-color="#1D7483"/>
</linearGradient>
<clipPath id="clip0_135_194">
<rect width="24" height="24" fill="white"/>
</clipPath>
</defs>
</svg>
