<svg width="154" height="153" viewBox="0 0 154 153" fill="none" xmlns="http://www.w3.org/2000/svg">
<path d="M77 107.18C90.2894 107.18 101.062 96.4765 101.062 83.2734C101.062 70.0704 90.2894 59.3672 77 59.3672C63.7106 59.3672 52.9375 70.0704 52.9375 83.2734C52.9375 96.4765 63.7106 107.18 77 107.18Z" stroke="url(#paint0_linear_164_399)" stroke-width="4" stroke-linecap="round" stroke-linejoin="round"/>
<path d="M70.6027 27.9448C44.7275 30.7913 23.9536 51.5929 21.2682 77.3192C18.6951 101.914 32.2696 123.653 52.7291 133.438C53.0989 133.618 53.5061 133.709 53.9178 133.703C54.3294 133.698 54.734 133.596 55.0987 133.406C55.4635 133.217 55.7783 132.945 56.0176 132.612C56.257 132.279 56.4141 131.895 56.4764 131.491L58.8506 115.633C58.9112 115.233 59.0658 114.853 59.3018 114.523C59.5377 114.193 59.8485 113.923 60.2089 113.735C60.5694 113.546 60.9694 113.445 61.3766 113.438C61.7838 113.432 62.1868 113.521 62.553 113.698C66.9356 115.767 71.8251 116.94 77.0002 116.94C82.1752 116.94 87.0679 115.767 91.4473 113.698C91.8135 113.521 92.2165 113.432 92.6237 113.438C93.0309 113.445 93.4309 113.546 93.7914 113.735C94.1518 113.923 94.4626 114.193 94.6986 114.523C94.9345 114.853 95.0891 115.233 95.1497 115.633L97.5239 131.488C97.5856 131.892 97.7421 132.275 97.9807 132.608C98.2192 132.941 98.5332 133.214 98.8973 133.404C99.2613 133.594 99.6653 133.696 100.077 133.703C100.488 133.71 100.895 133.62 101.265 133.441C120.059 124.453 133.047 105.382 133.047 83.2703C133.047 50.4263 104.419 24.2218 70.5995 27.9416L70.6027 27.9448ZM42.2603 30.8486C44.1532 29.7521 43.8164 26.9216 41.747 26.2076C32.2375 22.9341 16.5391 17.8946 14.7585 19.6669C13.1479 21.267 17.9476 36.3566 21.1976 45.8904C21.9099 47.9751 24.6883 48.2396 25.8914 46.3941C30.0487 40.0124 35.6553 34.6858 42.2603 30.8486Z" stroke="url(#paint1_linear_164_399)" stroke-width="4" stroke-linecap="round" stroke-linejoin="round"/>
<path d="M111.74 30.8486C109.847 29.7521 110.184 26.9216 112.253 26.2076C121.763 22.9341 137.461 17.8946 139.242 19.6637C140.852 21.2638 136.053 36.3534 132.803 45.8872C132.09 47.9719 129.312 48.2364 128.109 46.3909C123.951 40.0092 118.345 34.6858 111.74 30.8486Z" stroke="url(#paint2_linear_164_399)" stroke-width="4" stroke-linecap="round" stroke-linejoin="round"/>
<defs>
<linearGradient id="paint0_linear_164_399" x1="49.1306" y1="83.2734" x2="101.062" y2="83.2734" gradientUnits="userSpaceOnUse">
<stop stop-color="#5BB9CA"/>
<stop offset="1" stop-color="#1D7483"/>
</linearGradient>
<linearGradient id="paint1_linear_164_399" x1="5.05447" y1="76.5015" x2="133.047" y2="76.5015" gradientUnits="userSpaceOnUse">
<stop stop-color="#5BB9CA"/>
<stop offset="1" stop-color="#1D7483"/>
</linearGradient>
<linearGradient id="paint2_linear_164_399" x1="108.194" y1="33.4621" x2="139.563" y2="33.4621" gradientUnits="userSpaceOnUse">
<stop stop-color="#5BB9CA"/>
<stop offset="1" stop-color="#1D7483"/>
</linearGradient>
</defs>
</svg>
