<svg width="68" height="75" viewBox="0 0 68 75" fill="none" xmlns="http://www.w3.org/2000/svg">
<path d="M28.5526 40.9375V40.9375H28.5625C43.7189 40.9375 55.6875 51.6121 55.6875 64.3438V64.3729L55.6879 64.3844L55.6518 64.4084L55.6038 64.4461C55.5934 64.4542 55.5807 64.4589 55.5675 64.4594C55.5544 64.4599 55.5413 64.4562 55.5304 64.4489C55.5194 64.4415 55.511 64.4308 55.5065 64.4184C55.502 64.4061 55.5015 64.3925 55.5051 64.3798L55.5675 64.1609L55.5621 63.9332C55.2568 51.0457 43.0407 41.0677 28.5738 41.0625C21.5351 40.9593 14.6961 43.4034 9.31708 47.9447C9.24856 48.0018 9.18041 48.0594 9.11263 48.1173C9.19676 48.045 9.28148 47.9732 9.36677 47.9021L9.3668 47.9022L9.37561 47.8947C14.7316 43.3592 21.5344 40.8912 28.5526 40.9375ZM24.2422 73.0272C16.4187 72.3054 8.91181 69.6137 2.41876 65.2111C8.99747 69.6414 16.6034 72.3141 24.5119 72.9713C32.553 73.6395 40.6294 72.201 47.9452 68.7975L47.991 68.7762L48.0353 68.7519C48.0429 68.7477 48.0513 68.7451 48.06 68.7444C48.0687 68.7436 48.0775 68.7447 48.0857 68.7475C48.0939 68.7503 48.1014 68.7549 48.1079 68.7608C48.1143 68.7667 48.1193 68.7739 48.1228 68.7819L48.1294 68.7973L48.1364 68.8126C48.1433 68.8275 48.144 68.8445 48.1384 68.86C48.133 68.8748 48.1223 68.8869 48.1083 68.8941C40.6578 72.3559 32.423 73.782 24.2422 73.0272Z" fill="url(#paint0_linear_147_546)" stroke="url(#paint1_linear_147_546)" stroke-width="3"/>
<path d="M30.0626 34.4257C32.242 34.2172 34.3627 33.5733 36.2971 32.5264C38.6712 31.2416 40.6908 29.3897 42.1762 27.1357C43.6617 24.8816 44.5668 22.2953 44.8111 19.6069C45.0553 16.9185 44.6312 14.2114 43.5764 11.7265C42.5215 9.24167 40.8687 7.05614 38.7651 5.36444C36.6614 3.67273 34.1722 2.52735 31.5189 2.03021C28.8655 1.53308 26.1305 1.69962 23.5571 2.51501C20.9837 3.3304 18.6518 4.76935 16.769 6.70379L16.7689 6.70378L16.7638 6.70914C14.531 9.02603 13.0287 11.9483 12.444 15.1124C11.8593 18.2766 12.2179 21.5427 13.4753 24.5046C14.7326 27.4664 16.8331 29.9932 19.5154 31.7704C21.7795 33.2705 24.3737 34.1807 27.0626 34.43V34.5624C25.4076 34.4177 23.7811 34.0236 22.2387 33.391C20.234 32.5687 18.4108 31.3597 16.8733 29.8328C15.3358 28.306 14.1141 26.4913 13.278 24.4923C12.4418 22.4933 12.0076 20.3491 12.0001 18.1823C11.9888 14.919 12.9454 11.7255 14.749 9.00585C16.5527 6.28618 19.1223 4.16241 22.1329 2.90312C25.1435 1.64382 28.4599 1.30556 31.6628 1.9311C34.8657 2.55664 37.8111 4.11789 40.1267 6.41743C42.4422 8.71696 44.0239 11.6515 44.6717 14.8499C45.3194 18.0484 45.0042 21.3671 43.7659 24.3864C42.5275 27.4057 40.4216 29.99 37.7146 31.8124C35.4256 33.3534 32.7938 34.2912 30.0626 34.551V34.4257ZM27.064 34.5625H29.9361C29.4788 34.6025 29.0189 34.6234 28.5574 34.625C28.058 34.6268 27.5597 34.6058 27.064 34.5625Z" fill="url(#paint2_linear_147_546)" stroke="url(#paint3_linear_147_546)" stroke-width="3"/>
<path d="M28.5625 29.4375C30.0481 29.4334 31.5183 29.1368 32.8892 28.5645C34.2602 27.9922 35.5049 27.1555 36.5525 26.1021C37.6001 25.0487 38.4299 23.7993 38.9946 22.4253C39.5593 21.0512 39.8479 19.5794 39.8438 18.0938C39.8438 17.6794 39.6791 17.2819 39.3861 16.9889C39.0931 16.6959 38.6957 16.5313 38.2812 16.5313C38.0725 16.5175 37.8632 16.5484 37.6673 16.6221C37.4715 16.6957 37.2937 16.8103 37.1457 16.9583C36.9978 17.1062 36.8832 17.284 36.8095 17.4799C36.7359 17.6757 36.7049 17.885 36.7188 18.0938C36.7188 20.2627 35.8615 22.3438 34.3337 23.8833C32.8058 25.4229 30.7314 26.296 28.5625 26.3125C26.4039 26.2883 24.3401 25.4222 22.8108 23.8987C21.2814 22.3752 20.4074 20.3147 20.375 18.1563C20.375 17.7419 20.2104 17.3444 19.9174 17.0514C19.6243 16.7584 19.2269 16.5938 18.8125 16.5938C18.3981 16.5938 18.0007 16.7584 17.7076 17.0514C17.4146 17.3444 17.25 17.7419 17.25 18.1563M28.5625 29.4375L28.5707 27.9375C28.5687 27.9375 28.5666 27.9375 28.5646 27.9375M28.5625 29.4375L28.5584 27.9375C28.5604 27.9375 28.5625 27.9375 28.5646 27.9375M28.5625 29.4375C25.5727 29.4212 22.7095 28.2284 20.5924 26.1172C18.4753 24.0059 17.2746 21.146 17.25 18.1563M28.5646 27.9375C29.8511 27.9332 31.1242 27.6759 32.3114 27.1802C33.5005 26.6838 34.5803 25.9581 35.4889 25.0444C36.3976 24.1307 37.1174 23.0469 37.6072 21.8551C38.097 20.6632 38.3473 19.3865 38.3438 18.0979L38.3437 18.0938C38.3438 18.0772 38.3372 18.0613 38.3254 18.0496C38.3137 18.0379 38.2978 18.0313 38.2812 18.0313H38.2317L38.2178 18.0304M28.5646 27.9375C25.9712 27.9217 23.4881 26.8864 21.6516 25.055C19.8161 23.2246 18.774 20.7459 18.75 18.1541M38.2178 18.0304L38.2155 17.9948C38.2158 17.9992 38.2151 18.0037 38.2135 18.0078C38.212 18.012 38.2095 18.0158 38.2064 18.0189C38.2033 18.0221 38.1995 18.0245 38.1953 18.0261C38.1911 18.0276 38.1867 18.0283 38.1822 18.028L38.2178 18.0304ZM38.2178 18.0304L38.2187 18.0442L38.2188 18.0937C38.2188 20.6586 37.205 23.1194 35.3984 24.9399C33.5917 26.7604 31.1386 27.793 28.5739 27.8125L28.5598 27.8126L28.5457 27.8124C25.9961 27.7839 23.5585 26.7609 21.7522 24.9614C19.9458 23.1619 18.9135 20.7282 18.8752 18.1788L18.875 18.1676V18.1563C18.875 18.1397 18.8684 18.1238 18.8567 18.1121C18.845 18.1004 18.8291 18.0938 18.8125 18.0938C18.7959 18.0938 18.78 18.1004 18.7683 18.1121C18.7571 18.1233 18.7506 18.1383 18.75 18.1541M18.75 18.1541C18.75 18.1507 18.75 18.1473 18.7499 18.1439L17.25 18.1563M18.75 18.1541C18.75 18.1548 18.75 18.1555 18.75 18.1563H17.25" fill="url(#paint4_linear_147_546)" stroke="url(#paint5_linear_147_546)" stroke-width="3"/>
<path d="M55.7188 33V34.5H57.2188H65.6875C65.6957 34.5 65.7038 34.5016 65.7114 34.5048C65.719 34.5079 65.7259 34.5125 65.7317 34.5183C65.7375 34.5241 65.7421 34.531 65.7452 34.5386C65.7484 34.5462 65.75 34.5543 65.75 34.5625C65.75 34.5791 65.7434 34.595 65.7317 34.6067C65.72 34.6184 65.7041 34.625 65.6875 34.625H57.2188H55.7188V36.125V44.5938C55.7188 44.6103 55.7122 44.6262 55.7004 44.6379C55.6919 44.6465 55.6811 44.6523 55.6694 44.6549C55.6512 44.6513 55.6342 44.6424 55.6209 44.6291C55.6051 44.6133 55.5955 44.5924 55.5938 44.5703V36.125V34.625H54.0938H45.6484C45.6263 34.6232 45.6055 34.6136 45.5897 34.5978C45.5763 34.5845 45.5674 34.5676 45.5639 34.5493C45.5664 34.5377 45.5722 34.5269 45.5808 34.5183C45.5925 34.5066 45.6084 34.5 45.625 34.5H54.0938H55.5938V33V24.5312C55.5938 24.5147 55.6003 24.4988 55.6121 24.4871C55.6238 24.4753 55.6397 24.4688 55.6563 24.4688C55.6728 24.4688 55.6887 24.4753 55.7004 24.4871C55.7122 24.4988 55.7188 24.5147 55.7188 24.5312V33Z" fill="url(#paint6_linear_147_546)" stroke="url(#paint7_linear_147_546)" stroke-width="3"/>
<defs>
<linearGradient id="paint0_linear_147_546" x1="-4.52387" y1="57.0804" x2="57.1886" y2="57.0804" gradientUnits="userSpaceOnUse">
<stop stop-color="#5BB9CA"/>
<stop offset="1" stop-color="#1D7483"/>
</linearGradient>
<linearGradient id="paint1_linear_147_546" x1="-4.52387" y1="57.0804" x2="57.1886" y2="57.0804" gradientUnits="userSpaceOnUse">
<stop stop-color="#5BB9CA"/>
<stop offset="1" stop-color="#1D7483"/>
</linearGradient>
<linearGradient id="paint2_linear_147_546" x1="7.65224" y1="18.1251" x2="46.5" y2="18.1251" gradientUnits="userSpaceOnUse">
<stop stop-color="#5BB9CA"/>
<stop offset="1" stop-color="#1D7483"/>
</linearGradient>
<linearGradient id="paint3_linear_147_546" x1="7.65224" y1="18.1251" x2="46.5" y2="18.1251" gradientUnits="userSpaceOnUse">
<stop stop-color="#5BB9CA"/>
<stop offset="1" stop-color="#1D7483"/>
</linearGradient>
<linearGradient id="paint4_linear_147_546" x1="15.4627" y1="22.9828" x2="39.8438" y2="22.9828" gradientUnits="userSpaceOnUse">
<stop stop-color="#5BB9CA"/>
<stop offset="1" stop-color="#1D7483"/>
</linearGradient>
<linearGradient id="paint5_linear_147_546" x1="15.4627" y1="22.9828" x2="39.8438" y2="22.9828" gradientUnits="userSpaceOnUse">
<stop stop-color="#5BB9CA"/>
<stop offset="1" stop-color="#1D7483"/>
</linearGradient>
<linearGradient id="paint6_linear_147_546" x1="42.2283" y1="34.5625" x2="67.25" y2="34.5625" gradientUnits="userSpaceOnUse">
<stop stop-color="#5BB9CA"/>
<stop offset="1" stop-color="#1D7483"/>
</linearGradient>
<linearGradient id="paint7_linear_147_546" x1="42.2283" y1="34.5625" x2="67.25" y2="34.5625" gradientUnits="userSpaceOnUse">
<stop stop-color="#5BB9CA"/>
<stop offset="1" stop-color="#1D7483"/>
</linearGradient>
</defs>
</svg>
