<svg width="120" height="120" viewBox="0 0 120 120" fill="none" xmlns="http://www.w3.org/2000/svg">
<g filter="url(#filter0_d_12_3684)">
<circle cx="60" cy="56" r="50" fill="url(#paint0_linear_12_3684)"/>
<g clip-path="url(#clip0_12_3684)">
<path d="M40.468 70.1016C38.6406 70.1016 37.1534 68.6898 37.1534 66.955H34.9437C34.9437 68.6898 33.4566 70.1016 31.6292 70.1016V72.1994C33.4566 72.1994 34.9437 73.6111 34.9437 75.346H37.1534C37.1534 73.6111 38.6406 72.1994 40.468 72.1994V70.1016ZM36.0486 72.2319C35.726 71.8197 35.3437 71.4568 34.9095 71.1505C35.3437 70.8442 35.726 70.4813 36.0486 70.0691C36.3712 70.4813 36.7535 70.8442 37.1877 71.1505C36.7535 71.4568 36.3712 71.8197 36.0486 72.2319Z" fill="white"/>
<path d="M91.2913 71.1505H89.0816V42.8309C89.0816 32.9987 80.6549 25 70.2958 25H69.7467C59.0859 25 50.4117 33.2347 50.4117 43.3553V51.2219C50.4117 51.8009 50.9067 52.2708 51.5166 52.2708H54.8311V54.3685C54.8311 54.9475 55.3261 55.4174 55.936 55.4174H59.0616C58.6053 56.6383 57.3767 57.5151 55.936 57.5151C55.3261 57.5151 54.8311 57.985 54.8311 58.564V59.6129C54.8311 62.5046 57.3093 64.8573 60.3554 64.8573H71.4039V71.1505H57.0408C47.9026 71.1505 40.468 78.2084 40.468 86.8836V87.9325H42.6777V86.8836C42.6777 79.3653 49.1212 73.2483 57.0408 73.2483H71.868L80.3886 87.4039C80.5864 87.7322 80.9532 87.9325 81.3476 87.9325C81.3686 87.9325 81.3896 87.9325 81.4106 87.9315C81.8293 87.9084 82.1973 87.6629 82.363 87.2979L88.7049 73.2483H91.2913V71.1505ZM72.5088 62.7595H60.3554C58.528 62.7595 57.0408 61.3477 57.0408 59.6129V59.5069C59.5588 59.0203 61.4603 56.9005 61.4603 54.3685C61.4603 53.7895 60.9653 53.3196 60.3554 53.3196H57.0408V51.2219C57.0408 50.6429 56.5459 50.173 55.936 50.173H52.6214V43.3553C52.6214 34.3906 60.3035 27.0978 69.7467 27.0978H70.2958C79.4362 27.0978 86.8719 34.1556 86.8719 42.8309V71.1505H73.6137V63.8084C73.6137 63.2294 73.1187 62.7595 72.5088 62.7595ZM81.2062 84.5341L74.4125 73.2483H86.3007L81.2062 84.5341Z" fill="white"/>
<path d="M52.512 59.0182C52.6965 58.6553 52.6446 58.2231 52.3783 57.9085L48.2019 52.9515V41.782C48.2019 38.8903 45.7238 36.5376 42.6777 36.5376H30.5243C27.4782 36.5376 25 38.8903 25 41.782V54.3685C25 57.2603 27.4782 59.6129 30.5243 59.6129H51.5165C51.9408 59.6129 52.3286 59.3821 52.512 59.0182ZM30.5243 57.5151C28.6968 57.5151 27.2097 56.1033 27.2097 54.3685V41.782C27.2097 40.0472 28.6968 38.6354 30.5243 38.6354H42.6777C44.5051 38.6354 45.9922 40.0472 45.9922 41.782V53.3196C45.9922 53.5577 46.0773 53.7885 46.2342 53.9752L49.2173 57.5151H30.5243Z" fill="white"/>
<path d="M36.601 41.782C32.6412 41.782 29.4194 44.6045 29.4194 48.0753C29.4194 51.546 32.6412 54.3685 36.601 54.3685C40.5608 54.3685 43.7825 51.546 43.7825 48.0753C43.7825 44.6045 40.5608 41.782 36.601 41.782ZM41.3961 47.0264H39.3278C39.2814 46.2796 39.172 45.3031 38.9267 44.3895C40.1365 44.936 41.0436 45.8821 41.3961 47.0264ZM36.0905 49.1241H37.1114C37.0264 50.3356 36.812 51.2607 36.601 51.8082C36.39 51.2607 36.1756 50.3356 36.0905 49.1241ZM36.0905 47.0264C36.1756 45.8149 36.39 44.8898 36.601 44.3423C36.812 44.8898 37.0264 45.8149 37.1114 47.0264H36.0905ZM34.2753 44.3895C34.03 45.302 33.9206 46.2796 33.8742 47.0264H31.8059C32.1584 45.8821 33.0655 44.936 34.2753 44.3895ZM31.8059 49.1241H33.8742C33.9206 49.8709 34.03 50.8474 34.2753 51.761C33.0655 51.2145 32.1584 50.2685 31.8059 49.1241ZM38.9267 51.761C39.172 50.8485 39.2814 49.8709 39.3278 49.1241H41.3961C41.0436 50.2685 40.1365 51.2145 38.9267 51.761Z" fill="white"/>
<path d="M62.565 44.9286C60.7376 44.9286 59.2505 43.5169 59.2505 41.782H57.0408C57.0408 44.6738 59.519 47.0264 62.565 47.0264C65.6111 47.0264 68.0893 44.6738 68.0893 41.782H65.8796C65.8796 43.5169 64.3925 44.9286 62.565 44.9286Z" fill="white"/>
<path d="M70.2991 75.346H68.0894V77.4438H70.2991V75.346Z" fill="white"/>
<path d="M65.8796 75.346H63.6699V77.4438H65.8796V75.346Z" fill="white"/>
<path d="M61.4602 75.346H59.2505V77.4438H61.4602V75.346Z" fill="white"/>
</g>
</g>
<defs>
<filter id="filter0_d_12_3684" x="0" y="0" width="120" height="120" filterUnits="userSpaceOnUse" color-interpolation-filters="sRGB">
<feFlood flood-opacity="0" result="BackgroundImageFix"/>
<feColorMatrix in="SourceAlpha" type="matrix" values="0 0 0 0 0 0 0 0 0 0 0 0 0 0 0 0 0 0 127 0" result="hardAlpha"/>
<feOffset dy="4"/>
<feGaussianBlur stdDeviation="5"/>
<feComposite in2="hardAlpha" operator="out"/>
<feColorMatrix type="matrix" values="0 0 0 0 0.168627 0 0 0 0 0.278431 0 0 0 0 0.32549 0 0 0 1 0"/>
<feBlend mode="normal" in2="BackgroundImageFix" result="effect1_dropShadow_12_3684"/>
<feBlend mode="normal" in="SourceGraphic" in2="effect1_dropShadow_12_3684" result="shape"/>
</filter>
<linearGradient id="paint0_linear_12_3684" x1="2.08955" y1="56" x2="110" y2="56" gradientUnits="userSpaceOnUse">
<stop stop-color="#5BB9CA"/>
<stop offset="1" stop-color="#1D7483"/>
</linearGradient>
<clipPath id="clip0_12_3684">
<rect width="66.2913" height="62.9325" fill="white" transform="translate(25 25)"/>
</clipPath>
</defs>
</svg>
