<svg width="683" height="683" viewBox="0 0 683 683" fill="none" xmlns="http://www.w3.org/2000/svg">
<g clip-path="url(#clip0_167_402)">
<path d="M315.334 9.33327C256 15.3333 203.067 39.9999 165.733 79.0666C141.867 104.133 126.533 133.2 120.533 164.8C118.133 178.267 117.733 203.067 120 216.533C120.8 221.6 120.933 226.133 120.4 226.667C119.867 227.2 112.4 229.867 104 232.667C78.0002 241.2 51.7335 251.867 43.0668 257.467C8.26681 280.133 -8.13319 325.467 4.40015 364C6.13348 369.467 18.9335 398 32.8002 427.333L57.8668 480.667L68.0002 490.667C73.4668 496.133 81.0668 502.133 84.6668 504L91.3335 507.467L92.0002 538.667C92.6668 566.8 93.0668 570.8 95.7335 578C108.667 612.667 145.733 632.933 181.067 624.667C189.733 622.667 198.933 618.533 203.067 614.933C206.4 612 206 605.067 202.133 601.467C198.267 597.867 196.4 598 181.333 603.467C172.933 606.4 169.867 606.933 162 606.267C156.933 605.867 149.2 604.267 144.933 602.667C134.133 598.533 121.6 586.8 116.533 575.733C112.667 567.467 112.667 566.933 112.267 539.733L111.867 512H117.2C126.133 512 135.733 509.333 158 500.667C178.4 492.667 203.733 484.133 213.067 482.133L217.333 481.067V521.333C217.333 546.933 216.8 563.733 215.867 567.467C214.533 572.8 214.533 574 216.933 577.067C219.867 581.067 226.133 582.4 230.533 580C236.267 576.933 237.333 568.133 237.333 520.533V476.267L246.4 474.667C261.333 472.133 282.667 469.467 296 468.667C302.934 468.267 311.467 467.6 314.934 467.2L321.2 466.533L321.6 538.933L322 611.333L325.6 621.2C335.2 647.6 357.467 666.933 384.667 672.667C396.667 675.2 403.067 675.2 415.734 672.533C433.6 668.8 450.667 658.4 461.2 644.933C466.534 638 474.667 622.267 474.667 618.8C474.667 617.867 475.467 617.333 476.4 617.733C490.4 623.733 495.734 625.333 504.8 626.667C521.6 629.067 538.934 625.733 554.667 616.933C565.867 610.667 580 595.6 585.867 583.867C592.8 569.6 594.667 559.333 594.667 532C594.667 515.733 595.2 508 596.4 506.533C597.334 505.467 600.8 502.667 604.134 500.4C607.467 498 613.467 492.667 617.467 488.267C624 481.333 627.334 474.933 649.867 427.2C663.734 398 676.534 369.467 678.267 364C688.267 333.333 680 296.8 657.6 273.2C641.734 256.267 630.4 250.267 585.467 235.067C573.334 230.933 562.8 227.2 562.267 226.667C561.6 226.133 561.867 222 562.667 217.467C564.934 204.533 564.4 175.867 561.467 162C558 145.333 550.934 126.8 546.534 122.267C542.134 118 538.934 117.733 534.134 121.467C529.467 125.067 529.6 130.267 534.8 142.4C540.667 156.667 544.134 173.733 544.134 190.667C544.267 205.467 542.934 219.6 541.467 220.533C541.067 220.8 532.267 219.067 522 216.533C467.2 203.333 407.867 196.933 340 197.067C286 197.067 251.067 199.867 202.8 208.133C183.6 211.333 152.667 218 143.867 220.8C140.8 221.6 140 218.933 138.8 204.267C131.733 122 198.934 50.1333 300 31.7333C312.134 29.4666 320.667 28.9333 341.334 28.9333C369.6 28.9333 386.4 31.1999 409.867 37.9999C444.267 47.9999 478.667 67.9999 501.334 91.1999C509.6 99.7333 514.667 100.933 519.734 95.5999C525.467 89.4666 524 85.8666 509.6 71.9999C477.467 40.7999 431.467 18.9333 382 11.3333C365.467 8.79993 331.334 7.73327 315.334 9.33327ZM402.667 218.8C459.067 222.4 515.734 233.467 570.667 251.467C618.667 267.067 630.667 272.933 643.2 286.933C659.734 305.2 666.4 331.6 660.134 354.667C658.934 359.467 646.8 387.067 633.334 416C610.4 464.933 608.134 469.067 601.334 476C597.334 480 591.067 485.333 587.6 487.733C582.934 490.8 580.267 494 578 499.067C574.934 505.6 574.667 507.333 574.667 530C574.667 556.933 573.334 564.667 566.4 577.6C555.6 597.733 529.6 610.667 507.067 606.933C488.267 603.867 472 592.267 463.734 576.4C456.667 562.933 456 557.6 456 514.8V476.267L452.267 469.2C446.667 458.4 440.134 454.933 419.734 452C385.734 447.067 340.4 445.467 302 448C245.2 451.733 203.333 461.333 148 483.067C128.533 490.667 126.667 491.2 116 491.2C105.733 491.333 103.733 490.933 95.7335 486.933C79.7335 479.067 77.2002 475.2 49.3335 415.867C35.8668 386.933 23.7335 359.467 22.5335 354.667C15.8668 330 23.3335 303.467 42.0001 284.667C53.2001 273.333 60.2668 269.467 89.6002 258.8C184.267 224.4 286.267 211.333 402.667 218.8ZM380 468C390.667 468.8 406.267 470.267 414.667 471.467C437.734 474.533 436 470.933 436 517.2C436 559.2 437.067 567.6 443.734 581.867C445.867 586.4 449.867 592.933 452.534 596.533C457.067 602.4 457.467 603.6 456.667 608.8C454.534 623.467 439.734 642 424.667 648.8C391.334 664.133 352.667 645.6 343.334 610C341.734 603.467 341.334 590.933 341.334 534.4V466.667H351.067C356.267 466.667 369.334 467.333 380 468Z" fill="url(#paint0_linear_167_402)"/>
<path d="M244.667 258.4C232.667 262 222.934 267.733 214 276.667C180.134 310.533 189.2 368.4 231.734 389.733C244 395.867 253.734 397.733 268 397.067C296.667 395.467 320.8 377.467 330.934 349.867C335.067 338.533 335.067 314.8 330.934 303.333C323.467 283.2 307.2 266.933 287.067 259.733C276.134 255.867 255.6 255.2 244.667 258.4ZM284.934 280.533C295.067 285.2 305.334 295.467 310.4 306.267C313.467 312.933 314 315.733 314 326.667C314 337.6 313.467 340.4 310.4 347.067C305.334 357.733 295.067 368.133 284.934 372.8C277.6 376.267 275.2 376.667 263.334 376.667C251.334 376.667 249.2 376.267 242.267 372.933C232.4 368 222.667 358.267 217.867 348.533C213.467 339.6 212 324.133 214.667 313.333C218.134 298.8 231.734 284.267 246.934 278.533C257.467 274.667 273.867 275.6 284.934 280.533Z" fill="url(#paint1_linear_167_402)"/>
<path d="M396 258.133C380.134 263.733 370.4 276.8 370.4 292.667C370.4 301.6 374.4 311.467 380.267 316.933C381.867 318.533 392.934 324.667 404.667 330.667C430.267 343.6 436 348.667 436 357.867C436 365.467 430.667 372.133 422 375.467C408.534 380.533 388.134 374.533 376.267 362.133C368.534 354 361.867 353.867 357.867 361.467C355.2 366.8 357.734 372.267 366.4 380.133C389.867 401.2 426 403.067 444.8 384.133C456.4 372.533 459.6 356.267 452.8 343.067C447.2 332 439.6 326.133 415.2 313.6C393.6 302.533 392.534 301.733 390.934 296.8C389.467 292.267 389.6 291.067 391.6 286.933C395.734 278.8 400 276.667 412.4 276.667C421.6 276.8 424.4 277.333 430.134 280.267C433.867 282.267 438.8 285.333 441.067 287.2C448.8 293.867 459.067 290.4 459.067 281.333C459.067 276.4 456.134 272.933 446.134 266.4C431.2 256.667 410.267 253.333 396 258.133Z" fill="url(#paint2_linear_167_402)"/>
<path d="M525.734 285.333C524.134 286 522.267 287.6 521.6 288.933C518.8 294.133 478.667 405.6 478.667 408.133C478.667 415.2 478.934 415.333 514.267 428.133C537.734 436.533 540.4 436.8 544.667 430.267C547.067 426.533 546.267 421.2 542.934 418.267C541.6 417.2 532 413.2 521.334 409.467C510.667 405.6 501.867 402.267 501.6 402.133C501.334 401.733 514.4 365.2 515.067 364.4C515.334 364.267 523.467 367.067 533.334 370.667C543.2 374.4 552.4 377.333 553.6 377.333C563.067 377.333 566.667 363.2 558.267 358.933C556.667 358 548.4 354.933 540 351.867C531.6 348.8 524.134 345.867 523.467 345.2C522.134 344 534.667 308 536.534 308C537.2 308 546 310.933 556 314.667C566 318.267 576 321.333 578.267 321.333C582.8 321.333 586 318.4 587.334 313.2C588.934 306.533 584.267 303.6 556.267 293.333C542 288.267 530 284 529.6 284.133C529.067 284.133 527.334 284.667 525.734 285.333Z" fill="url(#paint3_linear_167_402)"/>
<path d="M99.867 301.333C98.667 302 96.9336 304.266 96.1336 306.4C94.667 309.866 96.4003 315.333 116 369.467C128.4 403.467 138.667 430 140.267 431.6C141.867 433.333 144.4 434.667 146 434.667C149.334 434.667 191.467 419.467 194 417.333C199.067 413.2 196.267 402.133 189.867 400.533C187.467 399.867 181.334 401.467 169.6 405.867C160.4 409.2 152.8 411.867 152.667 411.6C152.534 411.467 143.867 387.6 133.467 358.666C113.734 304.266 111.6 300 104.934 300C103.334 300 101.067 300.666 99.867 301.333Z" fill="url(#paint4_linear_167_402)"/>
<path d="M228.4 99.3333C220.934 102.533 220.534 110.267 227.467 116.933C238.134 126.933 254 130.667 267.734 126.133C274.934 123.733 286 114.933 287.334 110.533C288.667 106.4 285.6 100.4 281.467 98.9333C277.334 97.4666 273.2 99.0666 265.334 104.8C258.8 109.6 248.934 108.933 241.734 103.2C234.934 97.8666 233.2 97.3333 228.4 99.3333Z" fill="url(#paint5_linear_167_402)"/>
<path d="M401.2 98.9333C397.067 100.267 394 106.533 395.333 110.533C396.667 114.933 407.733 123.733 414.933 126.133C428.667 130.667 444.533 126.933 455.2 116.933C460.8 111.6 461.6 105.6 457.333 101.333C452.8 96.8 448.133 97.3333 441.2 102.933C433.067 109.467 422.533 109.733 414.933 103.333C409.6 98.8 405.333 97.4666 401.2 98.9333Z" fill="url(#paint6_linear_167_402)"/>
<path d="M330.267 125.333C315.6 129.066 296 145.466 296 154.133C296 158.933 300.933 164 305.867 164C309.2 164 311.467 162.533 316.667 157.2C333.067 140.4 347.467 139.866 364.133 155.6C374.4 165.333 379.2 166.533 383.867 160.533C387.6 155.866 387.333 152.533 383.2 146.4C372 130.4 348.133 120.933 330.267 125.333Z" fill="url(#paint7_linear_167_402)"/>
</g>
<defs>
<linearGradient id="paint0_linear_167_402" x1="-53.7545" y1="341.564" x2="682.462" y2="341.564" gradientUnits="userSpaceOnUse">
<stop stop-color="#5BB9CA"/>
<stop offset="1" stop-color="#1D7483"/>
</linearGradient>
<linearGradient id="paint1_linear_167_402" x1="182.212" y1="326.779" x2="334.034" y2="326.779" gradientUnits="userSpaceOnUse">
<stop stop-color="#5BB9CA"/>
<stop offset="1" stop-color="#1D7483"/>
</linearGradient>
<linearGradient id="paint2_linear_167_402" x1="348.771" y1="326.588" x2="459.067" y2="326.588" gradientUnits="userSpaceOnUse">
<stop stop-color="#5BB9CA"/>
<stop offset="1" stop-color="#1D7483"/>
</linearGradient>
<linearGradient id="paint3_linear_167_402" x1="470.049" y1="359.483" x2="587.611" y2="359.483" gradientUnits="userSpaceOnUse">
<stop stop-color="#5BB9CA"/>
<stop offset="1" stop-color="#1D7483"/>
</linearGradient>
<linearGradient id="paint4_linear_167_402" x1="87.7549" y1="367.333" x2="196.613" y2="367.333" gradientUnits="userSpaceOnUse">
<stop stop-color="#5BB9CA"/>
<stop offset="1" stop-color="#1D7483"/>
</linearGradient>
<linearGradient id="paint5_linear_167_402" x1="217.37" y1="113.151" x2="287.649" y2="113.151" gradientUnits="userSpaceOnUse">
<stop stop-color="#5BB9CA"/>
<stop offset="1" stop-color="#1D7483"/>
</linearGradient>
<linearGradient id="paint6_linear_167_402" x1="389.873" y1="113.166" x2="460.048" y2="113.166" gradientUnits="userSpaceOnUse">
<stop stop-color="#5BB9CA"/>
<stop offset="1" stop-color="#1D7483"/>
</linearGradient>
<linearGradient id="paint7_linear_167_402" x1="288.842" y1="144.223" x2="386.494" y2="144.223" gradientUnits="userSpaceOnUse">
<stop stop-color="#5BB9CA"/>
<stop offset="1" stop-color="#1D7483"/>
</linearGradient>
<clipPath id="clip0_167_402">
<rect width="682.667" height="682.667" fill="white"/>
</clipPath>
</defs>
</svg>
