<svg width="24" height="24" viewBox="0 0 24 24" fill="currentColor" xmlns="http://www.w3.org/2000/svg">
<path d="M23.9999 17V19H20.9999V17C20.9999 15.45 20.2999 14.06 19.1799 13.06C23.9999 13.55 23.9999 17 23.9999 17ZM17.9999 5C19.6599 5 20.9999 6.34 20.9999 8C21.0004 8.47117 20.8899 8.93584 20.6772 9.35625C20.4644 9.77667 20.1556 10.141 19.7756 10.4196C19.3956 10.6983 18.9553 10.8834 18.4904 10.9599C18.0255 11.0364 17.5491 11.0022 17.0999 10.86C17.6699 10.05 17.9999 9.07 17.9999 8C17.9999 6.94 17.6699 5.95 17.0999 5.14C17.3799 5.05 17.6899 5 17.9999 5ZM12.9999 5C14.6599 5 15.9999 6.34 15.9999 8C15.9999 9.66 14.6599 11 12.9999 11C11.3399 11 9.99987 9.66 9.99987 8C9.99987 6.34 11.3399 5 12.9999 5ZM18.9999 17V19H6.99987V17C6.99987 14.79 9.68987 13 12.9999 13C16.3099 13 18.9999 14.79 18.9999 17ZM0.463867 13.12L2.58987 11L0.463867 8.88L1.87987 7.46L3.99987 9.59L6.11987 7.46L7.53987 8.88L5.40987 11L7.53987 13.12L6.11987 14.54L3.99987 12.41L1.87987 14.54L0.463867 13.12Z" fill="black"/>
</svg>
