<svg width="24" height="22" viewBox="0 0 24 22" fill="none" xmlns="http://www.w3.org/2000/svg">
<g clip-path="url(#clip0_135_340)">
<path d="M13.2675 2.32447L12.3825 0.270566C12.2363 -0.0860747 11.7788 -0.0989654 11.6175 0.270566L10.7325 2.32447L8.77125 2.64674C8.4225 2.70689 8.2725 3.20103 8.53125 3.49752L9.95625 5.08736L9.61875 7.32603C9.56625 7.72564 9.92625 8.03502 10.2487 7.85025L12.0075 6.78463L13.755 7.83307C14.0775 8.01783 14.4413 7.70846 14.385 7.30885L14.0475 5.07018L15.4725 3.49752C15.7275 3.20533 15.5813 2.71119 15.2325 2.64674L13.2713 2.32447H13.2675ZM9.6 10.9999C8.93625 10.9999 8.4 11.6143 8.4 12.3749V20.6249C8.4 21.3854 8.93625 21.9999 9.6 21.9999H14.4C15.0638 21.9999 15.6 21.3854 15.6 20.6249V12.3749C15.6 11.6143 15.0638 10.9999 14.4 10.9999H9.6ZM1.2 13.7499C0.53625 13.7499 0 14.3643 0 15.1249V20.6249C0 21.3854 0.53625 21.9999 1.2 21.9999H6C6.66375 21.9999 7.2 21.3854 7.2 20.6249V15.1249C7.2 14.3643 6.66375 13.7499 6 13.7499H1.2ZM16.8 17.8749V20.6249C16.8 21.3854 17.3363 21.9999 18 21.9999H22.8C23.4638 21.9999 24 21.3854 24 20.6249V17.8749C24 17.1143 23.4638 16.4999 22.8 16.4999H18C17.3363 16.4999 16.8 17.1143 16.8 17.8749Z" fill="url(#paint0_linear_135_340)"/>
</g>
<defs>
<linearGradient id="paint0_linear_135_340" x1="-1.89851" y1="10.999" x2="24" y2="10.999" gradientUnits="userSpaceOnUse">
<stop stop-color="#5BB9CA"/>
<stop offset="1" stop-color="#1D7483"/>
</linearGradient>
<clipPath id="clip0_135_340">
<rect width="24" height="22" fill="white"/>
</clipPath>
</defs>
</svg>
