<svg width="32" height="32" viewBox="0 0 32 32" fill="none" xmlns="http://www.w3.org/2000/svg">
<path d="M10.6668 16C10.6668 16.3778 10.7948 16.6947 11.0508 16.9507C11.3068 17.2067 11.6233 17.3342 12.0002 17.3333H16.2668L15.0668 18.5333C14.8224 18.7778 14.7002 19.0889 14.7002 19.4667C14.7002 19.8444 14.8224 20.1555 15.0668 20.4C15.3113 20.6444 15.6224 20.7667 16.0002 20.7667C16.3779 20.7667 16.6891 20.6444 16.9335 20.4L20.4002 16.9333C20.5335 16.8 20.6277 16.6555 20.6828 16.5C20.7379 16.3444 20.7659 16.1778 20.7668 16C20.7668 15.8222 20.7388 15.6555 20.6828 15.5C20.6268 15.3444 20.5326 15.2 20.4002 15.0667L16.9335 11.6C16.6891 11.3555 16.3779 11.2333 16.0002 11.2333C15.6224 11.2333 15.3113 11.3555 15.0668 11.6C14.8224 11.8444 14.7002 12.1555 14.7002 12.5333C14.7002 12.9111 14.8224 13.2222 15.0668 13.4667L16.2668 14.6667H12.0002C11.6224 14.6667 11.3055 14.7947 11.0495 15.0507C10.7935 15.3067 10.6659 15.6231 10.6668 16ZM2.66683 16C2.66683 14.1555 3.01705 12.4222 3.71749 10.8C4.41794 9.17777 5.36772 7.76666 6.56683 6.56666C7.76683 5.36666 9.17794 4.41688 10.8002 3.71732C12.4224 3.01777 14.1557 2.66755 16.0002 2.66666C17.8446 2.66666 19.5779 3.01688 21.2002 3.71732C22.8224 4.41777 24.2335 5.36755 25.4335 6.56666C26.6335 7.76666 27.5833 9.17777 28.2828 10.8C28.9824 12.4222 29.3326 14.1555 29.3335 16C29.3335 17.8444 28.9833 19.5778 28.2828 21.2C27.5824 22.8222 26.6326 24.2333 25.4335 25.4333C24.2335 26.6333 22.8224 27.5835 21.2002 28.284C19.5779 28.9844 17.8446 29.3342 16.0002 29.3333C14.1557 29.3333 12.4224 28.9831 10.8002 28.2827C9.17794 27.5822 7.76683 26.6324 6.56683 25.4333C5.36683 24.2333 4.41661 22.8222 3.71616 21.2C3.01572 19.5778 2.66594 17.8444 2.66683 16Z" fill="url(#paint0_linear_21_374)"/>
<defs>
<linearGradient id="paint0_linear_21_374" x1="16.0002" y1="0.557204" x2="16.0002" y2="29.3333" gradientUnits="userSpaceOnUse">
<stop stop-color="#5BB9CA"/>
<stop offset="1" stop-color="#1D7483"/>
</linearGradient>
</defs>
</svg>
