<svg width="90" height="90" viewBox="0 0 90 90" fill="none" xmlns="http://www.w3.org/2000/svg">
<path d="M17.2961 3.71706C17.0215 3.7102 16.7473 3.74102 16.4812 3.80865C12.8794 4.73361 10.6517 7.43501 10.1327 10.6024C9.61375 13.7698 10.5137 17.3429 12.3609 20.8317C15.9987 27.7022 23.4811 34.3809 33.077 35.9225C32.0909 34.7412 31.1346 33.4183 30.2164 31.9894C23.3595 29.7798 17.908 24.5461 15.1572 19.3509C13.5389 16.2946 12.8991 13.288 13.2552 11.1143C13.6115 8.94058 14.6741 7.53925 17.268 6.87304C17.2794 6.87005 17.2799 6.86706 17.2841 6.86372C17.2727 6.83859 17.3026 6.84966 17.2841 6.86372C17.2917 6.87844 17.3022 6.89143 17.3151 6.90187C17.4077 6.98853 17.612 7.29562 17.703 7.80538C17.8851 8.82562 17.6304 10.5463 16.273 12.3194L18.7855 14.2428C20.6168 11.8505 21.1849 9.30585 20.8175 7.24939C20.634 6.22107 20.2206 5.28679 19.4767 4.59087C18.9187 4.06898 18.1149 3.73534 17.2961 3.71706ZM72.703 3.71706C71.8843 3.73534 71.0806 4.06915 70.5225 4.59105C69.7786 5.28714 69.3651 6.22124 69.1814 7.24956C68.8142 9.30603 69.3824 11.8505 71.2135 14.243L73.7261 12.3196C72.3687 10.5465 72.114 8.82579 72.2961 7.80556C72.3872 7.29579 72.5914 6.9887 72.6841 6.90204C72.6968 6.89155 72.7074 6.87858 72.715 6.8639C72.6965 6.84984 72.7264 6.83876 72.715 6.8639C72.7192 6.86724 72.7197 6.87023 72.7312 6.87322C75.325 7.53943 76.3876 8.9404 76.7439 11.1143C77.1 13.288 76.4602 16.2946 74.8419 19.3509C72.0911 24.5461 66.6396 29.78 59.7828 31.9894C58.8647 33.4183 57.9081 34.7412 56.9221 35.9225C66.518 34.3809 74.0005 27.7022 77.6383 20.8317C79.4854 17.3429 80.3854 13.7698 79.8665 10.6024C79.3474 7.43484 77.1197 4.73361 73.518 3.80865C73.2518 3.74102 72.9776 3.7102 72.703 3.71706ZM24.1582 5.07286C24.5355 11.4947 27.1043 19.675 30.5808 26.3115C32.4629 29.9048 34.6019 33.0499 36.6911 35.2209C38.7804 37.3922 40.7808 38.4711 42.1871 38.4711H47.8121C49.2183 38.4711 51.2187 37.3922 53.308 35.2209C55.3972 33.0499 57.5363 29.9048 59.4184 26.3115C62.8948 19.6748 65.4635 11.4949 65.8409 5.07286H24.1582ZM40.9566 41.6354V44.4479H49.0425V41.6354H40.9566ZM42.0895 47.6119C41.6574 52.1764 39.8402 57.7849 37.7939 60.9713H52.2052C50.1591 57.7849 48.3417 52.1764 47.9096 47.6119H42.0895ZM35.3316 64.1354V66.5963H54.6675V64.1354H35.3316ZM29.7066 69.7604V86.2838H60.2925V69.7604H29.7066ZM33.7496 73.8033H56.2496V82.2408H33.7496V73.8033Z" fill="url(#paint0_linear_16_793)"/>
<defs>
<linearGradient id="paint0_linear_16_793" x1="4.44805" y1="45" x2="80.0118" y2="45" gradientUnits="userSpaceOnUse">
<stop stop-color="#5BB9CA"/>
<stop offset="1" stop-color="#1D7483"/>
</linearGradient>
</defs>
</svg>
