<svg width="24" height="24" viewBox="0 0 24 24" fill="currentColor" xmlns="http://www.w3.org/2000/svg">
<path d="M12 16C11.7167 16 11.479 15.904 11.287 15.712C11.095 15.52 10.9993 15.2827 11 15V7.84999L9.125 9.72499C8.925 9.92499 8.69167 10.025 8.425 10.025C8.15834 10.025 7.91667 9.91665 7.7 9.69999C7.5 9.49999 7.40434 9.26265 7.413 8.98799C7.42167 8.71332 7.51733 8.48399 7.7 8.29999L11.3 4.69999C11.4 4.59999 11.5083 4.52932 11.625 4.48799C11.7417 4.44665 11.8667 4.42565 12 4.42499C12.1333 4.42499 12.2583 4.44599 12.375 4.48799C12.4917 4.52999 12.6 4.60065 12.7 4.69999L16.3 8.29999C16.5 8.49999 16.596 8.73765 16.588 9.01299C16.58 9.28832 16.484 9.51732 16.3 9.69999C16.1 9.89999 15.8623 10.0043 15.587 10.013C15.3117 10.0217 15.0743 9.92565 14.875 9.72499L13 7.84999V15C13 15.2833 12.904 15.521 12.712 15.713C12.52 15.905 12.2827 16.0007 12 16ZM6 20C5.45 20 4.979 19.804 4.587 19.412C4.195 19.02 3.99934 18.5493 4 18V16C4 15.7167 4.096 15.479 4.288 15.287C4.48 15.095 4.71733 14.9993 5 15C5.28333 15 5.521 15.096 5.713 15.288C5.905 15.48 6.00067 15.7173 6 16V18H18V16C18 15.7167 18.096 15.479 18.288 15.287C18.48 15.095 18.7173 14.9993 19 15C19.2833 15 19.521 15.096 19.713 15.288C19.905 15.48 20.0007 15.7173 20 16V18C20 18.55 19.804 19.021 19.412 19.413C19.02 19.805 18.5493 20.0007 18 20H6Z" fill="currentColor"/>
</svg>
