<svg width="41" height="36" viewBox="0 0 41 36" fill="currentColor" xmlns="http://www.w3.org/2000/svg">
<path d="M7.95625 21.56L10.4763 12.536H15.4923L10.8603 26H5.00425L0.37225 12.536H5.38825L7.95625 21.56ZM26.3742 3.152L19.9662 30.632H15.4302L21.8382 3.152H26.3742ZM33.6889 26.168C31.7209 26.168 30.1049 25.704 28.8409 24.776C27.5769 23.832 26.8969 22.488 26.8009 20.744H31.8169C31.8649 21.336 32.0409 21.768 32.3449 22.04C32.6489 22.312 33.0409 22.448 33.5209 22.448C33.9529 22.448 34.3049 22.344 34.5769 22.136C34.8649 21.912 35.0089 21.608 35.0089 21.224C35.0089 20.728 34.7769 20.344 34.3129 20.072C33.8489 19.8 33.0969 19.496 32.0569 19.16C30.9529 18.792 30.0569 18.44 29.3689 18.104C28.6969 17.752 28.1049 17.248 27.5929 16.592C27.0969 15.92 26.8489 15.048 26.8489 13.976C26.8489 12.888 27.1209 11.96 27.6649 11.192C28.2089 10.408 28.9609 9.816 29.9209 9.416C30.8809 9.016 31.9689 8.816 33.1849 8.816C35.1529 8.816 36.7209 9.28 37.8889 10.208C39.0729 11.12 39.7049 12.408 39.7849 14.072H34.6729C34.6569 13.56 34.4969 13.176 34.1929 12.92C33.9049 12.664 33.5289 12.536 33.0649 12.536C32.7129 12.536 32.4249 12.64 32.2009 12.848C31.9769 13.056 31.8649 13.352 31.8649 13.736C31.8649 14.056 31.9849 14.336 32.2249 14.576C32.4809 14.8 32.7929 15 33.1609 15.176C33.5289 15.336 34.0729 15.544 34.7929 15.8C35.8649 16.168 36.7449 16.536 37.4329 16.904C38.1369 17.256 38.7369 17.76 39.2329 18.416C39.7449 19.056 40.0009 19.872 40.0009 20.864C40.0009 21.872 39.7449 22.776 39.2329 23.576C38.7369 24.376 38.0089 25.008 37.0489 25.472C36.1049 25.936 34.9849 26.168 33.6889 26.168Z" fill="currentColor"/>
</svg>
