<svg width="683" height="683" viewBox="0 0 683 683" fill="none" xmlns="http://www.w3.org/2000/svg">
<g clip-path="url(#clip0_167_412)">
<path d="M142 2.53312C135.467 5.46645 130.533 11.0665 125.333 21.4665C121.733 28.3998 120.4 29.5998 112 34.1331C101.333 39.7331 95.4667 45.7331 93.4667 52.9331C91.7334 59.1998 91.7334 60.7998 93.4667 67.0665C95.4667 74.3998 101.867 80.9331 112.267 86.1331C120.4 90.2665 121.733 91.4665 125.2 98.5331C127.467 102.8 130.8 108.266 132.8 110.666C140.267 119.466 152.933 122.266 163.333 117.466C170 114.4 172 112.133 178.267 100.666C182.933 92.2665 184.267 90.9331 192.667 86.2665C197.733 83.5998 203.067 80.2664 204.4 78.9331C211.867 72.2664 214.267 57.5998 209.467 48.1331C206.267 41.9998 204.8 40.6665 192.8 33.9998C184.267 29.0665 182.8 27.7331 178.267 19.3331C172 7.86645 170 5.59979 163.333 2.53312C156.533 -0.666879 148.8 -0.666879 142 2.53312ZM156 21.5998C156.8 22.5331 160.267 28.1331 163.733 33.9998C169.733 44.1331 170.4 44.7998 181.067 50.3998C190.933 55.5998 192 56.5331 192 60.1331C192 63.4665 191.067 64.3998 185.067 67.4665C171.6 74.2664 168.667 76.9331 162.533 87.9998C156.8 98.3998 153.067 101.6 149.333 99.3331C148.533 98.9331 146.133 95.0665 144 90.7998C138.4 79.5998 134.267 75.3331 123.867 69.8664C108.8 61.8665 108.667 58.6665 123.333 50.6665C134.133 44.6665 138.4 40.3998 143.6 30.1331C148 21.3331 149.067 19.9998 152.133 19.9998C153.467 19.9998 155.2 20.7998 156 21.5998Z" fill="url(#paint0_linear_167_412)"/>
<path d="M575.6 68.6665C566 71.0665 562.667 74.3998 554.533 89.4665C549.2 99.3331 548.8 99.7331 537.2 106C521.2 114.666 518 119.2 518 133.466C518 147.6 521.6 152.8 537.2 161.2C547.333 166.667 548.933 168.133 553.2 175.333L557.733 183.2L554.667 192C550.267 204.4 542 220.667 535.067 230.267C531.867 234.933 529.067 238.667 528.8 238.667C528.533 238.667 526.667 234 524.667 228.267C517.867 209.067 504.667 185.733 490.8 168.267C485.867 162.133 484.667 161.333 480.133 161.333C474 161.333 470.667 164.533 470.667 170.4C470.667 173.467 472.8 177.6 478.667 185.467C489.467 200 496.533 212.4 502.933 227.733C508.667 241.333 515.067 264.933 516.667 277.6L517.467 285.333H512.667C504.4 285.333 487.733 289.333 479.333 293.333C470.133 297.733 460.533 305.467 454.267 313.2C451.867 316.133 449.6 318.533 448.933 318.533C448.4 318.667 445.733 317.2 442.933 315.6C428.267 306.267 404.133 302.8 386.8 307.333C377.733 309.6 365.467 315.333 360.133 319.6C357.067 322.133 357.067 322.133 343.333 315.2C324.133 305.6 314.267 303.333 292 303.333C274.933 303.467 273.2 303.733 260.4 308.133L246.667 312.8L243.733 309.733C238.667 304.8 225.2 297.467 216 294.533C203.867 290.667 184 290.667 171.733 294.533L162.8 297.333L155.733 292C151.867 289.067 144.933 285.067 140.267 283.067L131.867 279.333L132.8 272.667C133.2 269.067 135.067 260.533 136.8 253.733C154.667 184.667 209.333 130.933 278.933 114C330.8 101.466 384.533 110.667 429.733 139.867C436.533 144.4 443.733 148 445.6 148C450.133 148 454.667 142.8 454.667 137.733C454.667 134.4 453.467 132.533 449.067 129.066C440.667 122.4 433.867 118.266 419.2 110.933C345.867 74.1331 257.867 83.1998 192.667 134C171.333 150.666 150.933 174.4 138.4 197.067C134.533 204.133 132.667 206.4 131.867 205.067C129.867 202.133 125.6 186.8 122.8 173.2C121.467 166.133 119.067 158.133 117.6 155.2C113.733 147.6 104.533 139.333 95.6 135.2C88.5333 132 86.5333 131.733 76.2666 132.266C67.7333 132.666 63.2 133.6 58.9333 135.866C43.2 144 34.1333 158.667 34.1333 176C34.2666 200.267 48.9333 245.467 66.2666 275.2L72.4 285.733L68.5333 288.4C58.9333 295.067 46.9333 308.933 42.2666 318.8C34 336.133 34 335.6 35.8666 431.2C37.7333 524.267 38 528 45.3333 543.867C50.5333 554.933 54 558.667 58.9333 558.667C63.4666 558.667 69.3333 553.467 69.3333 549.333C69.3333 547.867 67.6 543.467 65.3333 539.6C58 526.4 57.7333 524.267 56 437.733C55.0666 393.733 54.5333 353.067 54.9333 347.467C56.9333 315.733 87.6 291.6 118.533 297.2C130.4 299.467 140 304.267 149.2 312.8C158.133 321.067 160.667 321.6 170.267 316.8C190.667 306.533 215.067 310.667 233.2 327.467C237.867 331.733 242.267 334.667 244 334.667C245.6 334.667 252.133 332.667 258.533 330.133C290.667 317.2 316.533 320.8 351.733 342.933C357.333 346.4 360.133 345.6 369.333 338C380.4 328.933 388.533 326.133 404.667 326C420.933 326 426.933 328 440.267 338.133C445.467 342.133 450.8 345.333 452 345.333C455.6 345.333 459.6 341.6 463.733 334.4C474.8 314.667 498.933 302.8 520.133 306.533C541.067 310.133 558.533 324.4 564.667 342.667C567.6 351.6 596 505.867 596 513.2C596 526 589.867 542.267 581.333 551.6C568.933 565.333 553.867 571.333 534.933 570.4C521.867 569.733 512.933 566.4 502.267 558.267C495.333 552.8 489.333 551.867 485.867 555.6C484.8 556.933 481.467 561.733 478.533 566.267C462.667 590.8 431.6 598.667 405.333 584.667C393.067 578 390.667 578.4 383.333 587.6C376.133 596.933 370.133 601.867 360.667 606.133C353.333 609.467 338.267 612.667 335.2 611.467C334.267 611.067 332.4 608.267 330.933 605.067C327.867 598 322.4 593.2 310.533 587.2C301.867 582.933 301.067 582.133 296.667 573.333C287.867 555.733 279.2 549.733 264.667 550.933C253.733 551.867 247.467 556.667 240.533 570C233.2 583.867 229.333 586.667 217.333 586.667C212.133 586.667 204.667 585.6 199.733 584C186.533 580 180.133 575.2 167.2 559.6C162.4 553.867 158.533 553.733 149.6 559.333C134.4 568.667 121.467 570.933 102.667 567.733C93.7333 566.133 93.3333 566.267 90 569.333C83.7333 575.2 86.5333 583.467 96 586.667C98.5333 587.467 106.133 588.533 112.667 588.933C126 589.733 137.333 587.733 149.6 582.267L156.8 579.067L164.8 586.533C173.467 594.533 186 601.467 196.4 604L202.667 605.6L201.867 612.8C200.133 626.8 207.333 637.067 224.8 645.733C233.067 649.733 233.867 650.533 238.133 658.933C248.267 678.933 260.267 685.867 276.133 681.2C283.867 678.8 288.8 673.867 295.733 661.333C301.867 650.267 302.267 649.867 312.667 644.4C318.533 641.2 324.933 636.8 326.933 634.533C329.467 631.467 331.067 630.667 333.2 631.333C337.067 632.533 354.533 629.867 363.6 626.667C372.267 623.6 383.067 616.8 391.333 609.2L397.067 603.867L407.067 607.333C435.867 616.933 464.933 610 486.267 588.4L496 578.667L504 582.667C515.2 588.267 525.333 590.667 538.667 590.667C552.4 590.667 562.8 588.133 574.533 582C586.667 575.6 594.667 568.267 602.4 556.933C611.733 542.8 615.333 530.8 615.333 513.333C615.333 501.2 613.333 489.067 600.933 422.667C586.267 344.933 583.867 334.533 578 324.133L574.667 318.4L583.333 310.4C605.467 290.133 627.333 255.467 637.867 223.733C645.067 202.133 639.733 181.867 624 170.933C621.067 168.933 618.8 166.933 618.667 166.533C618.667 166.133 622.4 164 626.933 161.867C646.933 152.533 653.867 136.8 645.333 120C642.133 113.733 639.6 111.6 627.2 104.933C617.067 99.4665 616.533 98.9331 611.067 88.7998C604.4 76.3998 602.267 73.8665 596 70.6665C589.333 67.3331 582.933 66.7998 575.6 68.6665ZM594.4 99.9998C600.933 112.133 606 116.933 618.667 123.333C628.4 128.266 630.933 131.867 628.267 136.933C627.467 138.267 622.533 141.733 617.067 144.533C604.133 151.467 600.8 154.667 594.4 167.067C585.6 183.867 580 183.733 571.467 166.8C565.733 155.6 561.467 151.2 550.533 145.467C539.467 139.6 537.333 137.733 537.333 133.333C537.333 128.933 539.467 127.066 551.6 120.8C563.067 114.8 563.867 114 571.067 100.533C580.267 83.3331 585.333 83.1998 594.4 99.9998ZM90.1333 154.533C97.6 159.067 101.2 165.333 103.333 177.467C106 192.533 108.4 200.667 115.6 218.4L121.733 233.6L118.933 243.067C117.467 248.4 115.2 257.733 114.133 263.867C112.933 270.133 111.867 275.2 111.6 275.333C111.467 275.467 107.2 276.267 102 276.933C92.8 278.4 92.6666 278.4 89.7333 274.933C85.7333 270.267 73.2 245.867 68 232.8C58.2666 208.133 52.1333 178.933 54.6666 169.467C56.4 162.933 61.0666 157.067 66.9333 154.267C73.0666 151.2 84.9333 151.333 90.1333 154.533ZM618.533 195.067C620.133 198.267 621.333 203.333 621.333 206.267C621.333 216.933 608.933 244.4 594.4 266.133C585.6 279.333 564.667 302.667 561.6 302.667C560.8 302.667 557.067 300.533 553.2 298C549.2 295.467 544.133 292.667 541.733 291.867C537.867 290.667 537.333 289.867 537.333 285.867C537.333 283.2 536.667 277.067 535.867 272L534.533 262.8L542.667 253.067C553.333 240.4 562.8 225.067 568.933 210.267L573.733 198.533L578.667 199.333C587.067 200.8 595.867 197.6 602.667 190.667L608.667 184.533L612.267 186.933C614.133 188.267 617.067 192 618.533 195.067ZM278.667 582.267C286.133 596 288.667 598.533 302 605.6C308.4 609.067 312.8 612.267 313.067 613.733C314.267 619.733 312.133 622.267 301.733 627.733C289.2 634.267 284.667 638.933 278 651.733C274.267 658.8 272.133 661.6 269.6 662.267C264.667 663.467 262.667 661.6 256.4 650C249.2 636.667 247.6 635.067 235.733 628.8C223.733 622.4 221.333 620.4 221.333 616.667C221.333 612.933 225.467 609.2 235.333 604.267C245.6 599.2 249.333 595.333 256.133 582.8C262.533 571.2 263.2 570.533 268.667 570.933C272.133 571.333 273.333 572.667 278.667 582.267Z" fill="url(#paint1_linear_167_412)"/>
<path d="M403.733 175.2C391.733 178.4 383.6 187.733 381.867 200.533C381.067 205.733 381.467 206.933 384.4 209.867C386.4 211.867 389.333 213.333 391.333 213.333C395.733 213.333 401.333 207.733 401.333 203.333C401.333 199.6 405.467 194.8 409.067 194.533C416 194 419.333 196.8 420.533 204C421.867 212.8 429.6 216 436.533 210.533C439.2 208.4 440 206.667 440 202.533C440 184.267 421.733 170.667 403.733 175.2Z" fill="url(#paint2_linear_167_412)"/>
<path d="M226.667 176.133C216.933 180 210 189.333 208.533 200.533C207.733 205.733 208.133 206.933 211.067 209.867C212.933 211.733 216 213.333 217.733 213.333C222.667 213.333 228 208.533 228 203.867C228 198.667 232.267 194.667 237.733 194.667C243.2 194.667 246 197.6 247.2 204.267C249.6 217.467 266.667 215.6 266.667 202.267C266.667 192.267 260.133 182.267 250.4 177.2C244.933 174.4 232.4 173.867 226.667 176.133Z" fill="url(#paint3_linear_167_412)"/>
<path d="M306.4 188C296.133 189.6 287.467 194 282.133 200.133C266.667 218.266 275.6 255.6 298.933 270.666C329.067 290.133 367.2 270.666 373.333 232.8C376.8 210.666 367.733 194.666 348.667 189.466C341.333 187.466 315.733 186.533 306.4 188ZM339.333 208C350.8 209.866 353.867 213.333 353.867 224.266C353.733 244.266 339.2 260 322.4 258.4C307.067 256.8 294.667 242 294.667 225.066C294.667 216.266 296 212.8 300.4 210.4C306.533 207.066 326 205.866 339.333 208Z" fill="url(#paint4_linear_167_412)"/>
<path d="M102.933 345.733L99.8667 348.933L101.467 430.133C103.2 521.067 102.933 518.933 112.267 522.4C116.667 524.133 117.733 524 122.267 521.867C127.067 519.467 128.8 516.4 157.2 460.933C173.6 428.933 187.467 402.933 187.867 403.467C188.267 403.867 192.267 433.333 196.8 469.067L204.933 533.733L209.2 537.6C214.4 542.267 221.067 542.667 226 538.267C228.667 536 236.4 517.733 258.8 460.133C274.8 418.8 288 383.333 288 381.333C288 376.933 282.667 372 277.867 372C271.2 372 273.333 367.333 236.8 461.333C228.4 482.933 221.2 499.733 220.8 498.667C220.533 497.6 216.533 466.667 212 430C204.667 370.8 203.467 362.933 200.933 360.267C197.2 356.267 190.4 356.267 187.067 360.4C185.733 362.133 170.933 390.4 154.133 423.067C137.333 455.867 123.467 482.533 123.2 482.267C123.067 482.133 122.133 452.267 121.333 416C120 356 119.6 349.733 117.467 346.667C114 341.867 106.933 341.467 102.933 345.733Z" fill="url(#paint5_linear_167_412)"/>
<path d="M505.333 354.666C503.867 356.133 502.667 359.066 502.667 361.2C502.667 363.333 507.733 392.533 514 426C520.267 459.6 525.2 487.2 524.933 487.467C524.667 487.867 498.8 461.867 467.333 430C433.6 395.6 409.067 371.6 407.067 371.2C402.8 370.133 397.6 372.533 395.867 376.4C393.867 380.8 421.467 539.2 424.933 542.933C429.467 547.867 439.333 545.333 441.6 538.667C442 537.467 437.467 508.667 431.333 474.667C425.333 440.533 420.533 412.533 420.667 412.267C420.933 412 446.133 437.067 476.8 468C509.6 501.067 533.867 524.4 535.733 524.933C540.933 526.267 545.733 523.733 548.4 518.533L550.667 513.6L536.133 435.333C525.6 378.8 520.933 356.4 519.2 354.533C516.133 351.2 508.8 351.2 505.333 354.666Z" fill="url(#paint6_linear_167_412)"/>
<path d="M330.933 391.066L328 394.133V477.066C328 558.266 328 560 330.667 562.666C334 566 340.133 566.133 344.133 562.8L347.333 560.266V476.666V393.066L344.133 390.533C339.867 387.066 334.4 387.333 330.933 391.066Z" fill="url(#paint7_linear_167_412)"/>
</g>
<defs>
<linearGradient id="paint0_linear_167_412" x1="82.6912" y1="59.9632" x2="211.952" y2="59.9632" gradientUnits="userSpaceOnUse">
<stop stop-color="#5BB9CA"/>
<stop offset="1" stop-color="#1D7483"/>
</linearGradient>
<linearGradient id="paint1_linear_167_412" x1="-14.4988" y1="375.098" x2="648.916" y2="375.098" gradientUnits="userSpaceOnUse">
<stop stop-color="#5BB9CA"/>
<stop offset="1" stop-color="#1D7483"/>
</linearGradient>
<linearGradient id="paint2_linear_167_412" x1="376.879" y1="193.827" x2="440" y2="193.827" gradientUnits="userSpaceOnUse">
<stop stop-color="#5BB9CA"/>
<stop offset="1" stop-color="#1D7483"/>
</linearGradient>
<linearGradient id="paint3_linear_167_412" x1="203.545" y1="194.026" x2="266.667" y2="194.026" gradientUnits="userSpaceOnUse">
<stop stop-color="#5BB9CA"/>
<stop offset="1" stop-color="#1D7483"/>
</linearGradient>
<linearGradient id="paint4_linear_167_412" x1="266.545" y1="232.804" x2="374.059" y2="232.804" gradientUnits="userSpaceOnUse">
<stop stop-color="#5BB9CA"/>
<stop offset="1" stop-color="#1D7483"/>
</linearGradient>
<linearGradient id="paint5_linear_167_412" x1="84.9845" y1="442.063" x2="288" y2="442.063" gradientUnits="userSpaceOnUse">
<stop stop-color="#5BB9CA"/>
<stop offset="1" stop-color="#1D7483"/>
</linearGradient>
<linearGradient id="paint6_linear_167_412" x1="383.51" y1="448.782" x2="550.667" y2="448.782" gradientUnits="userSpaceOnUse">
<stop stop-color="#5BB9CA"/>
<stop offset="1" stop-color="#1D7483"/>
</linearGradient>
<linearGradient id="paint7_linear_167_412" x1="326.471" y1="476.663" x2="347.333" y2="476.663" gradientUnits="userSpaceOnUse">
<stop stop-color="#5BB9CA"/>
<stop offset="1" stop-color="#1D7483"/>
</linearGradient>
<clipPath id="clip0_167_412">
<rect width="682.667" height="682.667" fill="white"/>
</clipPath>
</defs>
</svg>
